<svg xmlns="http://www.w3.org/2000/svg" width="30" height="30" viewBox="0 0 30 30">
  <g id="ARCHITECT_icon" transform="translate(17836 -19304)">
    <g id="Icon-08" transform="translate(-17835 19308)">
      <path id="Path_3449" data-name="Path 3449" d="M14,20.1l.114,14.3a3.39,3.39,0,0,1,3-2.134,3.553,3.553,0,0,1,3.1,1.98l-.092-14.134a2.785,2.785,0,0,0-3.06-2.2A2.935,2.935,0,0,0,14,20.1Z" transform="translate(-13.956 -17.91)" fill="rgba(0,0,0,0)" stroke="#4a4a4a" stroke-width="0.3"/>
      <ellipse id="Ellipse_70" data-name="Ellipse 70" cx="3.155" cy="3.155" rx="3.155" ry="3.155" transform="translate(0 14.321)" fill="rgba(0,0,0,0)" stroke="#4a4a4a" stroke-width="0.3"/>
      <line id="Line_146" data-name="Line 146" y2="10.417" transform="translate(2.369 1.818)" fill="none" stroke="#4a4a4a" stroke-linecap="round" stroke-width="0.3"/>
      <path id="Path_3450" data-name="Path 3450" d="M31.06,23.59H47.809a2.237,2.237,0,0,1,2.237,2.237v8.518" transform="translate(-24.75 -21.504)" fill="rgba(0,0,0,0)" stroke="#4a4a4a" stroke-linecap="round" stroke-width="0.3"/>
      <path id="Path_3451" data-name="Path 3451" d="M19.354,59.728a2.2,2.2,0,0,0-1.587,1.341,2.406,2.406,0,0,0,.088,1.807,1.778,1.778,0,0,0,.871.885,1.973,1.973,0,0,0,.793.195.551.551,0,1,0,0-1.1h-.1l-.187-.055a.331.331,0,0,0-.077-.029c.151.029.1.04.033,0s-.121-.073-.18-.11.1.1,0,0a.877.877,0,0,1-.084-.081s-.1-.121-.037-.04-.033-.055-.048-.081-.037-.073-.059-.11.048.132,0,.022l-.022-.066a.737.737,0,0,0-.04-.14.569.569,0,0,1,0-.077c0-.048-.051-.125,0,0a.984.984,0,0,1,0-.367v-.055s.033-.154.04-.18a.6.6,0,0,0,.048-.136c0,.051-.048.1,0,.04s.026-.048.037-.073l.07-.107h0c-.055.081,0,0,.026-.026a1.219,1.219,0,0,0,.18-.169s-.118.081-.048.037l.044-.033.11-.07c.066-.037.136-.066.2-.1H19.4l.084-.029a1.268,1.268,0,0,1,.169-.044.555.555,0,0,0,.367-.68.562.562,0,0,0-.676-.367Z" transform="translate(-16.254 -44.357)" fill="rgba(0,0,0,0)" stroke="#4a4a4a" stroke-width="0.3"/>
      <line id="Line_147" data-name="Line 147" x2="11.324" transform="translate(6.252 19.82)" fill="none" stroke="#4a4a4a" stroke-linecap="round" stroke-width="0.3" stroke-dasharray="1"/>
      <rect id="Rectangle_618" data-name="Rectangle 618" width="8.121" height="8.121" transform="translate(11.603 7.577)" fill="rgba(0,0,0,0)" stroke="#4a4a4a" stroke-width="0.3"/>
      <rect id="Rectangle_619" data-name="Rectangle 619" width="8.121" height="8.121" transform="translate(13.517 4.474)" fill="rgba(0,0,0,0)" stroke="#4a4a4a" stroke-width="0.3"/>
      <line id="Line_148" data-name="Line 148" y1="3.104" x2="1.914" transform="translate(11.603 4.474)" fill="none" stroke="#4a4a4a" stroke-linecap="round" stroke-width="0.3" stroke-dasharray="0.5"/>
      <line id="Line_149" data-name="Line 149" y1="3.104" x2="1.91" transform="translate(19.725 4.474)" fill="none" stroke="#4a4a4a" stroke-linecap="round" stroke-width="0.3" stroke-dasharray="0.5"/>
      <line id="Line_150" data-name="Line 150" y1="3.104" x2="1.91" transform="translate(19.725 12.595)" fill="none" stroke="#4a4a4a" stroke-linecap="round" stroke-width="0.3" stroke-dasharray="0.5"/>
      <line id="Line_151" data-name="Line 151" y1="3.104" x2="1.914" transform="translate(11.603 12.595)" fill="none" stroke="#4a4a4a" stroke-linecap="round" stroke-width="0.3" stroke-dasharray="0.5"/>
      <path id="Path_3452" data-name="Path 3452" d="M58.31,63.417l9.12-8.187v8.187Z" transform="translate(-41.99 -41.522)" fill="rgba(0,0,0,0)" stroke="#4a4a4a" stroke-linecap="round" stroke-width="0.3"/>
      <path id="Path_3453" data-name="Path 3453" d="M67.75,67.268h4.433V63.36" transform="translate(-47.963 -46.666)" fill="rgba(0,0,0,0)" stroke="#4a4a4a" stroke-linecap="round" stroke-width="0.3"/>
      <line id="Line_152" data-name="Line 152" y1="0.121" x2="0.136" transform="translate(20.253 19.963)" fill="none" stroke="#4a4a4a" stroke-linecap="round" stroke-width="0.3"/>
      <line id="Line_153" data-name="Line 153" y1="2.454" x2="2.744" transform="translate(20.676 17.248)" fill="none" stroke="#4a4a4a" stroke-linecap="round" stroke-width="0.3" stroke-dasharray="1.05 1.05"/>
      <line id="Line_154" data-name="Line 154" y1="0.121" x2="0.136" transform="translate(23.563 16.995)" fill="none" stroke="#4a4a4a" stroke-linecap="round" stroke-width="0.3"/>
      <path id="Path_3454" data-name="Path 3454" d="M86.5,60.669H84.632l.14.136V52.012A.889.889,0,0,1,85,51.3a.812.812,0,0,1,1.359.624c0,.176.286.176.275,0a1.19,1.19,0,0,0-.5-.966,1.168,1.168,0,0,0-1.44.253,2.01,2.01,0,0,0-.217,1.267V60.8a.14.14,0,0,0,.136.14H86.5a.14.14,0,0,0,0-.275Z" transform="translate(-58.545 -38.731)" fill="rgba(0,0,0,0)" stroke="#4a4a4a" stroke-width="0.3"/>
      <line id="Line_155" data-name="Line 155" y2="7.831" transform="translate(27.956 13.708)" fill="none" stroke="#4a4a4a" stroke-linecap="round" stroke-width="0.3" stroke-dasharray="0.7"/>
      <ellipse id="Ellipse_71" data-name="Ellipse 71" cx="0.272" cy="0.272" rx="0.272" ry="0.272" transform="translate(26.755 12.694)" fill="rgba(0,0,0,0)" stroke="#4a4a4a" stroke-width="0.3"/>
      <line id="Line_156" data-name="Line 156" x2="0.669" transform="translate(26.086 14.27)" fill="none" stroke="#4a4a4a" stroke-linecap="round" stroke-width="0.3"/>
      <line id="Line_157" data-name="Line 157" x2="0.669" transform="translate(26.086 15.037)" fill="none" stroke="#4a4a4a" stroke-linecap="round" stroke-width="0.3"/>
      <line id="Line_158" data-name="Line 158" x2="0.669" transform="translate(26.086 15.805)" fill="none" stroke="#4a4a4a" stroke-linecap="round" stroke-width="0.3"/>
      <line id="Line_159" data-name="Line 159" x2="0.669" transform="translate(26.086 16.573)" fill="none" stroke="#4a4a4a" stroke-linecap="round" stroke-width="0.3"/>
      <line id="Line_160" data-name="Line 160" x2="0.669" transform="translate(26.086 17.34)" fill="none" stroke="#4a4a4a" stroke-linecap="round" stroke-width="0.3"/>
      <line id="Line_161" data-name="Line 161" x2="0.669" transform="translate(26.086 18.108)" fill="none" stroke="#4a4a4a" stroke-linecap="round" stroke-width="0.3"/>
      <line id="Line_162" data-name="Line 162" x2="0.669" transform="translate(26.086 18.876)" fill="none" stroke="#4a4a4a" stroke-linecap="round" stroke-width="0.3"/>
      <line id="Line_163" data-name="Line 163" x2="0.669" transform="translate(26.086 19.643)" fill="none" stroke="#4a4a4a" stroke-linecap="round" stroke-width="0.3"/>
      <line id="Line_164" data-name="Line 164" x2="0.669" transform="translate(26.086 20.411)" fill="none" stroke="#4a4a4a" stroke-linecap="round" stroke-width="0.3"/>
      <line id="Line_165" data-name="Line 165" x2="0.669" transform="translate(26.086 21.179)" fill="none" stroke="#4a4a4a" stroke-linecap="round" stroke-width="0.3"/>
      <path id="Path_3455" data-name="Path 3455" d="M63.405,76.27V75.76a.143.143,0,0,0-.14-.14.14.14,0,0,0-.136.14v.522a.14.14,0,0,0,.136.14.143.143,0,0,0,.14-.14Z" transform="translate(-45.04 -54.423)" fill="rgba(0,0,0,0)" stroke="#4a4a4a" stroke-width="0.3"/>
      <path id="Path_3456" data-name="Path 3456" d="M66.265,76.586V76.26a.143.143,0,0,0-.04-.1.162.162,0,0,0-.1-.04.14.14,0,0,0-.136.14v.327a.143.143,0,0,0,.04.1.151.151,0,0,0,.1.04A.143.143,0,0,0,66.265,76.586Z" transform="translate(-46.849 -54.739)" fill="rgba(0,0,0,0)" stroke="#4a4a4a" stroke-width="0.3"/>
      <path id="Path_3457" data-name="Path 3457" d="M68.992,76.231v-.511a.14.14,0,1,0-.275,0v.522a.14.14,0,1,0,.275,0Z" transform="translate(-48.574 -54.384)" fill="rgba(0,0,0,0)" stroke="#4a4a4a" stroke-width="0.3"/>
      <path id="Path_3458" data-name="Path 3458" d="M71.855,76.586V76.26a.143.143,0,0,0-.04-.1.151.151,0,0,0-.1-.04.143.143,0,0,0-.14.14v.327a.143.143,0,0,0,.04.1.162.162,0,0,0,.1.04.14.14,0,0,0,.136-.14Z" transform="translate(-50.386 -54.739)" fill="rgba(0,0,0,0)" stroke="#4a4a4a" stroke-width="0.3"/>
      <path id="Path_3459" data-name="Path 3459" d="M74.572,76.231v-.511a.14.14,0,1,0-.275,0v.522a.14.14,0,0,0,.136.14.143.143,0,0,0,.14-.14Z" transform="translate(-52.104 -54.384)" fill="rgba(0,0,0,0)" stroke="#4a4a4a" stroke-width="0.3"/>
      <path id="Path_3460" data-name="Path 3460" d="M79.9,76.27V75.76a.143.143,0,0,0-.14-.14.14.14,0,0,0-.136.14v.522a.14.14,0,0,0,.136.14.143.143,0,0,0,.14-.14Z" transform="translate(-55.473 -54.423)" fill="rgba(0,0,0,0)" stroke="#4a4a4a" stroke-width="0.3"/>
      <path id="Path_3461" data-name="Path 3461" d="M77.435,76.586V76.26a.143.143,0,0,0-.04-.1.162.162,0,0,0-.1-.04.14.14,0,0,0-.136.14v.327a.143.143,0,0,0,.04.1.151.151,0,0,0,.1.04A.143.143,0,0,0,77.435,76.586Z" transform="translate(-53.917 -54.739)" fill="rgba(0,0,0,0)" stroke="#4a4a4a" stroke-width="0.3"/>
    </g>
    <rect id="Rectangle_657" data-name="Rectangle 657" width="30" height="30" transform="translate(-17836 19304)" fill="none"/>
  </g>
</svg>
