<svg xmlns="http://www.w3.org/2000/svg" width="30" height="30" viewBox="0 0 30 30">
  <g id="BADEZIMMER_icon" transform="translate(18036 -19304)">
    <g id="Icon-03" transform="translate(-18035 19306)">
      <path id="Path_3399" data-name="Path 3399" d="M15.484,51.81a8.722,8.722,0,0,0,1,4.681,5.9,5.9,0,0,0,2.869,2.624,9.654,9.654,0,0,0,4,.541c2.457-.026,4.913,0,7.366,0H34.7a10.432,10.432,0,0,0,1.555-.043,7.164,7.164,0,0,0,4.909-3.006,5.639,5.639,0,0,0,1.19-3.479c-.03-.636-.15-1.254-.15-1.9a9.731,9.731,0,0,1,.047-1.172.326.326,0,0,0-.236-.314,11.8,11.8,0,0,0-3.539.15c-1.924.258-3.831.6-5.738.941-2.354.429-4.724.833-7.065,1.2A21.473,21.473,0,0,1,19,52.3a14.238,14.238,0,0,1-2.2-.5c-.219-.069-.429-.142-.649-.228l-.176-.047c-.374-.172-.7.382-.326.554a15.341,15.341,0,0,0,8.16.91c4.557-.606,9.071-1.568,13.619-2.259.859-.133,1.757-.258,2.641-.331a7.005,7.005,0,0,1,1.774,0l-.236-.309a11.419,11.419,0,0,0,.021,2.392,4.827,4.827,0,0,1-.709,3.367,6.593,6.593,0,0,1-4.479,3.105,7.061,7.061,0,0,1-1.413.086H23.881a15.574,15.574,0,0,1-3.006-.112,5.407,5.407,0,0,1-3.436-2.1,7.833,7.833,0,0,1-1.314-5.021C16.159,51.4,15.514,51.4,15.484,51.81Z" transform="translate(-14.861 -34.872)" fill="rgba(0,0,0,0)" stroke="#4a4a4a" stroke-width="0.3"/>
      <path id="Path_3400" data-name="Path 3400" d="M14.209,48.936a9.423,9.423,0,0,0,2.147.743,22.007,22.007,0,0,0,6.227.541c5.094-.228,10.028-1.778,15.053-2.525a11.369,11.369,0,0,1,4.243,0c.4.094.58-.528.172-.618-3.006-.691-6.21.249-9.135.833-5.154,1.026-10.462,2.353-15.706,1.288a10.1,10.1,0,0,1-2.667-.829c-.365-.2-.691.361-.326.554Z" transform="translate(-14.058 -33.26)" fill="rgba(0,0,0,0)" stroke="#4a4a4a" stroke-width="0.3"/>
      <path id="Path_3401" data-name="Path 3401" d="M60.381,28.4a.1.1,0,0,1-.069-.03.09.09,0,0,1-.039-.077V19.083a2.814,2.814,0,0,0-2.916-2.508h-.112a3.034,3.034,0,0,0-3.213,2.276l.726.829a.2.2,0,0,1,.026.215.2.2,0,0,1-.18.112H52.289a.2.2,0,0,1-.146-.335l.782-.859a4.262,4.262,0,0,1,4.437-3.363,3.779,3.779,0,0,1,4.033,3.719v9.019a.107.107,0,0,1-.094.107Z" transform="translate(-35.758 -15.356)" fill="rgba(0,0,0,0)" stroke="#4a4a4a" stroke-width="0.3"/>
      <path id="Path_3402" data-name="Path 3402" d="M57.2,15.449a3.678,3.678,0,0,1,3.925,3.616v9.019l-.906.1V18.958a2.92,2.92,0,0,0-3.006-2.615H57.1a3.154,3.154,0,0,0-3.328,2.414l.76.859a.094.094,0,0,1-.073.15H52.132a.09.09,0,0,1-.064-.155l.8-.859A4.125,4.125,0,0,1,57.2,15.445m0-.215a4.368,4.368,0,0,0-4.535,3.436l-.773.807a.309.309,0,0,0,.223.515h2.315a.3.3,0,0,0,.275-.172.309.309,0,0,0-.034-.326l-.691-.79a2.939,2.939,0,0,1,3.092-2.147h.112A2.7,2.7,0,0,1,60,18.954v9.212a.228.228,0,0,0,.073.159.219.219,0,0,0,.142.056h.026l.906-.1a.219.219,0,0,0,.189-.215v-9a3.879,3.879,0,0,0-4.14-3.831Z" transform="translate(-35.6 -15.23)" fill="rgba(0,0,0,0)" stroke="#4a4a4a" stroke-width="0.3"/>
      <line id="Line_94" data-name="Line 94" x1="1.001" y2="2.5" transform="translate(15.552 4.995)" fill="none" stroke="#4a4a4a" stroke-linecap="round" stroke-linejoin="round" stroke-width="0.3" stroke-dasharray="1"/>
      <line id="Line_95" data-name="Line 95" y2="3.032" transform="translate(17.7 5.377)" fill="none" stroke="#4a4a4a" stroke-linecap="round" stroke-linejoin="round" stroke-width="0.3" stroke-dasharray="1"/>
      <line id="Line_96" data-name="Line 96" x2="0.868" y2="2.5" transform="translate(18.859 4.995)" fill="none" stroke="#4a4a4a" stroke-linecap="round" stroke-linejoin="round" stroke-width="0.3" stroke-dasharray="1"/>
      <path id="Path_3403" data-name="Path 3403" d="M30.71,68.674v2.293a.644.644,0,0,0,1.288,0V68.674a.644.644,0,0,0-1.288,0Z" transform="translate(-23.558 -45.354)" fill="rgba(0,0,0,0)" stroke="#4a4a4a" stroke-width="0.3"/>
      <path id="Path_3404" data-name="Path 3404" d="M58.49,68.674v2.293a.644.644,0,0,0,1.288,0V68.674a.644.644,0,0,0-1.288,0Z" transform="translate(-39.408 -45.354)" fill="rgba(0,0,0,0)" stroke="#4a4a4a" stroke-width="0.3"/>
    </g>
    <rect id="Rectangle_656" data-name="Rectangle 656" width="30" height="30" transform="translate(-18036 19304)" fill="none"/>
  </g>
</svg>
