<svg xmlns="http://www.w3.org/2000/svg" width="30" height="30" viewBox="0 0 30 30">
  <g id="BODENLEGER_icon" transform="translate(17996 -19304)">
    <g id="Icon-04" transform="translate(-17995 19312)">
      <line id="Line_97" data-name="Line 97" x2="2.72" transform="translate(17.416 2.031)" fill="none" stroke="#4a4a4a" stroke-linecap="round" stroke-width="0.3"/>
      <line id="Line_98" data-name="Line 98" x2="2.72" transform="translate(17.416 1.244)" fill="none" stroke="#4a4a4a" stroke-linecap="round" stroke-width="0.3"/>
      <line id="Line_99" data-name="Line 99" x2="2.72" transform="translate(17.416 2.818)" fill="none" stroke="#4a4a4a" stroke-linecap="round" stroke-width="0.3"/>
      <line id="Line_100" data-name="Line 100" x2="2.72" transform="translate(17.416 3.525)" fill="none" stroke="#4a4a4a" stroke-linecap="round" stroke-width="0.3"/>
      <line id="Line_101" data-name="Line 101" x2="2.72" transform="translate(17.416 4.173)" fill="none" stroke="#4a4a4a" stroke-linecap="round" stroke-width="0.3"/>
      <line id="Line_102" data-name="Line 102" x2="2.72" transform="translate(17.416 5.604)" fill="none" stroke="#4a4a4a" stroke-linecap="round" stroke-width="0.3"/>
      <line id="Line_103" data-name="Line 103" x2="2.72" transform="translate(17.416 6.263)" fill="none" stroke="#4a4a4a" stroke-linecap="round" stroke-width="0.3"/>
      <line id="Line_104" data-name="Line 104" x2="2.72" transform="translate(17.416 7.019)" fill="none" stroke="#4a4a4a" stroke-linecap="round" stroke-width="0.3"/>
      <line id="Line_105" data-name="Line 105" x2="2.72" transform="translate(17.416 7.726)" fill="none" stroke="#4a4a4a" stroke-linecap="round" stroke-width="0.3"/>
      <line id="Line_106" data-name="Line 106" x2="2.72" transform="translate(17.416 8.436)" fill="none" stroke="#4a4a4a" stroke-linecap="round" stroke-width="0.3"/>
      <line id="Line_107" data-name="Line 107" x2="2.72" transform="translate(17.416 9.143)" fill="none" stroke="#4a4a4a" stroke-linecap="round" stroke-width="0.3"/>
      <line id="Line_108" data-name="Line 108" x2="2.72" transform="translate(17.416 9.85)" fill="none" stroke="#4a4a4a" stroke-linecap="round" stroke-width="0.3"/>
      <line id="Line_109" data-name="Line 109" x2="2.72" transform="translate(17.416 4.894)" fill="none" stroke="#4a4a4a" stroke-linecap="round" stroke-width="0.3"/>
      <path id="Path_3405" data-name="Path 3405" d="M25.908,31.643H11V41.7H29.629s1.508,0,1.508-1.31a1.518,1.518,0,0,0-1.393-1.358c-3.7-.613-3.832,1.358-3.832,1.358V29.957s.474-1.244,2.612-1.247c2.243,0,2.616,1.247,2.616,1.247V40.372" transform="translate(-11 -28.71)" fill="rgba(0,0,0,0)" stroke="#4a4a4a" stroke-linejoin="round" stroke-width="0.3"/>
      <path id="Path_3406" data-name="Path 3406" d="M64.022,46.812v-.056H70.2a7.436,7.436,0,0,0,1.449-.131l.394-.131.557-.637a1.465,1.465,0,0,0-.46-1.6,3.391,3.391,0,0,0-2.222-.373H68.272a1.132,1.132,0,0,1-.557-.1c-.7-.348-.8-1.393-.7-2.09A1.2,1.2,0,0,1,68,40.542c.829-.084,1.689.031,2.525,0A1.223,1.223,0,0,0,71,38.333a1.986,1.986,0,0,0-.958-.108H68.394l.035.254a1.46,1.46,0,0,0,1.045-.7.975.975,0,0,0-.6-1.268,4.738,4.738,0,0,0-1.717-.115H65.6a.132.132,0,0,0,0,.261c.819,0,1.637-.028,2.438-.024.529,0,1.324.164,1.209.881-.063.408-.557.606-.923.679-.146.028-.108.258.035.258h1.31a5.069,5.069,0,0,1,.975,0,1.021,1.021,0,0,1,.27,1.717,2.3,2.3,0,0,1-.9.067H68.38a2.221,2.221,0,0,0-.538.1c-1.209.289-1.318,1.944-.918,2.87a1.393,1.393,0,0,0,1.348.881c.951,0,1.926-.063,2.874,0a1.522,1.522,0,0,1,.9.369,1.118,1.118,0,0,1-.275,1.884,3.776,3.776,0,0,1-1.567.153H64.022a.132.132,0,0,0,0,.261Z" transform="translate(-45.481 -33.708)" fill="rgba(0,0,0,0)" stroke="#4a4a4a" stroke-width="0.3"/>
      <line id="Line_110" data-name="Line 110" x1="0.324" y2="0.324" transform="translate(0.913 3.525)" fill="none" stroke="#4a4a4a" stroke-linecap="round" stroke-width="0.3"/>
      <line id="Line_111" data-name="Line 111" x1="1.787" y2="1.884" transform="translate(0.509 3.344)" fill="none" stroke="#4a4a4a" stroke-linecap="round" stroke-width="0.3"/>
      <line id="Line_112" data-name="Line 112" x1="0.32" y2="0.324" transform="translate(2.7 3.525)" fill="none" stroke="#4a4a4a" stroke-linecap="round" stroke-width="0.3"/>
      <line id="Line_113" data-name="Line 113" x1="1.756" y2="1.954" transform="translate(2.278 3.323)" fill="none" stroke="#4a4a4a" stroke-linecap="round" stroke-width="0.3"/>
      <line id="Line_114" data-name="Line 114" x1="1.244" y2="1.334" transform="translate(1.237 4.093)" fill="none" stroke="#4a4a4a" stroke-linecap="round" stroke-width="0.3"/>
      <line id="Line_115" data-name="Line 115" x1="0.324" y2="0.324" transform="translate(0.679 5.699)" fill="none" stroke="#4a4a4a" stroke-linecap="round" stroke-width="0.3"/>
      <line id="Line_116" data-name="Line 116" x1="1.557" y2="1.742" transform="translate(0.509 5.538)" fill="none" stroke="#4a4a4a" stroke-linecap="round" stroke-width="0.3"/>
      <line id="Line_117" data-name="Line 117" x1="4.466" y2="4.838" transform="translate(0.338 3.434)" fill="none" stroke="#4a4a4a" stroke-linecap="round" stroke-width="0.3"/>
      <line id="Line_118" data-name="Line 118" x1="5.061" y2="5.479" transform="translate(0.606 3.588)" fill="none" stroke="#4a4a4a" stroke-linecap="round" stroke-width="0.3"/>
      <line id="Line_119" data-name="Line 119" x1="6.28" y2="6.789" transform="translate(0.592 3.525)" fill="none" stroke="#4a4a4a" stroke-linecap="round" stroke-width="0.3"/>
      <line id="Line_120" data-name="Line 120" x1="7.116" y2="7.691" transform="translate(0.665 3.567)" fill="none" stroke="#4a4a4a" stroke-linecap="round" stroke-width="0.3"/>
      <line id="Line_121" data-name="Line 121" x1="7.959" y2="8.621" transform="translate(0.665 3.654)" fill="none" stroke="#4a4a4a" stroke-linecap="round" stroke-width="0.3"/>
      <line id="Line_122" data-name="Line 122" x1="7.959" y2="8.621" transform="translate(1.888 3.654)" fill="none" stroke="#4a4a4a" stroke-linecap="round" stroke-width="0.3"/>
      <line id="Line_123" data-name="Line 123" x1="7.959" y2="8.624" transform="translate(3.003 3.689)" fill="none" stroke="#4a4a4a" stroke-linecap="round" stroke-width="0.3"/>
      <line id="Line_124" data-name="Line 124" y1="0.324" x2="0.324" transform="translate(13.393 11.982)" fill="none" stroke="#4a4a4a" stroke-linecap="round" stroke-width="0.3"/>
      <line id="Line_125" data-name="Line 125" y1="1.888" x2="1.787" transform="translate(12.341 10.582)" fill="none" stroke="#4a4a4a" stroke-linecap="round" stroke-width="0.3"/>
      <line id="Line_126" data-name="Line 126" y1="0.324" x2="0.324" transform="translate(11.606 11.982)" fill="none" stroke="#4a4a4a" stroke-linecap="round" stroke-width="0.3"/>
      <line id="Line_127" data-name="Line 127" y1="1.954" x2="1.756" transform="translate(10.561 10.519)" fill="none" stroke="#4a4a4a" stroke-linecap="round" stroke-width="0.3"/>
      <line id="Line_128" data-name="Line 128" y1="1.334" x2="1.247" transform="translate(12.146 10.404)" fill="none" stroke="#4a4a4a" stroke-linecap="round" stroke-width="0.3"/>
      <line id="Line_129" data-name="Line 129" y1="0.32" x2="0.32" transform="translate(13.627 9.812)" fill="none" stroke="#4a4a4a" stroke-linecap="round" stroke-width="0.3"/>
      <line id="Line_130" data-name="Line 130" y1="1.989" x2="1.836" transform="translate(12.529 8.273)" fill="none" stroke="#4a4a4a" stroke-linecap="round" stroke-width="0.3"/>
      <line id="Line_131" data-name="Line 131" y1="5.068" x2="4.521" transform="translate(9.736 7.238)" fill="none" stroke="#4a4a4a" stroke-linecap="round" stroke-width="0.3"/>
      <line id="Line_132" data-name="Line 132" y1="6.831" x2="5.995" transform="translate(8.426 5.667)" fill="none" stroke="#4a4a4a" stroke-linecap="round" stroke-width="0.3"/>
      <line id="Line_133" data-name="Line 133" y1="7.848" x2="7.022" transform="translate(7.259 4.542)" fill="none" stroke="#4a4a4a" stroke-linecap="round" stroke-width="0.3"/>
      <line id="Line_134" data-name="Line 134" y1="8.694" x2="8.025" transform="translate(6.308 3.654)" fill="none" stroke="#4a4a4a" stroke-linecap="round" stroke-width="0.3"/>
      <line id="Line_135" data-name="Line 135" y1="8.833" x2="8.137" transform="translate(5.444 3.427)" fill="none" stroke="#4a4a4a" stroke-linecap="round" stroke-width="0.3"/>
      <line id="Line_136" data-name="Line 136" y1="8.833" x2="8.133" transform="translate(4.222 3.427)" fill="none" stroke="#4a4a4a" stroke-linecap="round" stroke-width="0.3"/>
    </g>
    <rect id="Rectangle_657" data-name="Rectangle 657" width="30" height="30" transform="translate(-17996 19304)" fill="none"/>
  </g>
</svg>
