<svg xmlns="http://www.w3.org/2000/svg" width="30" height="30" viewBox="0 0 30 30">
  <g id="DACHDECKER_icon" transform="translate(17666 -19304)">
    <g id="Icon-12" transform="translate(-17664 19311)">
      <path id="Path_3486" data-name="Path 3486" d="M49.923,35.139a3.645,3.645,0,0,0-2.236-2.06,3.735,3.735,0,0,0-3.3,1.131h.566a3.8,3.8,0,0,0-5.464,0h.566a3.287,3.287,0,0,0-5.523.928l.747.2L35.6,31.03l-.4.4H49l-.4-.4.566,4.311c.069.5.87.507.8,0l-.576-4.311a.406.406,0,0,0-.4-.4H35.2a.411.411,0,0,0-.4.4l-.315,4.311c0,.379.587.566.747.2a2.5,2.5,0,0,1,4.269-.763.406.406,0,0,0,.566,0,2.994,2.994,0,0,1,4.333,0,.406.406,0,0,0,.566,0,2.883,2.883,0,0,1,2.668-.891,3.015,3.015,0,0,1,1.6,1.654C49.448,36.009,50.136,35.63,49.923,35.139Z" transform="translate(-29.631 -30.63)" fill="rgba(0,0,0,0)" stroke="#4a4a4a" stroke-width="0.3"/>
      <path id="Path_3487" data-name="Path 3487" d="M30.786,36.4,26.1,46.358l-.672,1.435c-.149.32.192.806.534.534a7.017,7.017,0,0,1,8.2,0,.4.4,0,0,0,.406,0c1.889-1.345,4.92-1.857,6.729-.064a.406.406,0,0,0,.566,0c2.166-2.081,5.79-1.254,8.122.064a.406.406,0,0,0,.534-.534L47.7,41.732l-1.857-3.943A7.849,7.849,0,0,0,45,36.129c-1.227-1.521-3.6-1.153-4.84.181l.63.085a3.74,3.74,0,0,0-5.528-.085l.63.085a3.231,3.231,0,0,0-5.037-.085c-.336.39.229.96.566.571.939-1.067,2.9-1.355,3.778-.085a.406.406,0,0,0,.63.085,3.047,3.047,0,0,1,1.948-.934,2.738,2.738,0,0,1,1.766.384,2.572,2.572,0,0,1,.427.336c.037.032.229.261.128.128a.406.406,0,0,0,.63.085c.944-1.019,2.951-1.457,3.778-.08a17.756,17.756,0,0,1,.816,1.734l3.549,7.556.993,2.108.534-.534c-2.668-1.5-6.649-2.284-9.071.064h.566c-2.054-2.038-5.512-1.6-7.7-.064h.406a7.8,7.8,0,0,0-9.013,0l.534.534,4.68-9.968.678-1.435C31.7,36.337,31,35.926,30.786,36.4Z" transform="translate(-25.392 -32.73)" fill="rgba(0,0,0,0)" stroke="#4a4a4a" stroke-width="0.3"/>
      <path id="Path_3488" data-name="Path 3488" d="M42.636,37.53l-1.014,9.962-.144,1.435c-.053.534.747.507.8,0l1.014-9.968.144-1.43C43.489,37,42.689,37,42.636,37.53Z" transform="translate(-32.893 -33.662)" fill="rgba(0,0,0,0)" stroke="#4a4a4a" stroke-width="0.3"/>
      <path id="Path_3489" data-name="Path 3489" d="M52.578,37.53l.987,9.477.144,1.366c.053.507.854.534.8,0l-.987-9.482-.144-1.361C53.325,37,52.524,37,52.578,37.53Z" transform="translate(-38.07 -33.662)" fill="rgba(0,0,0,0)" stroke="#4a4a4a" stroke-width="0.3"/>
      <path id="Path_3490" data-name="Path 3490" d="M30.972,47.39a5.251,5.251,0,0,1,1.788-1.067,4.354,4.354,0,0,1,4.3.768.4.4,0,0,0,.48-.064,4.109,4.109,0,0,1,5.16,0,.411.411,0,0,0,.486.064,5.587,5.587,0,0,1,6.43.374c.416.309.816-.384.406-.688a6.346,6.346,0,0,0-7.241-.379l.486.064a4.915,4.915,0,0,0-6.291,0l.486-.064a5.416,5.416,0,0,0-7.07.427c-.379.352.187.918.566.566Z" transform="translate(-27.665 -37.465)" fill="rgba(0,0,0,0)" stroke="#4a4a4a" stroke-width="0.3"/>
    </g>
    <rect id="Rectangle_657" data-name="Rectangle 657" width="30" height="30" transform="translate(-17666 19304)" fill="none"/>
  </g>
</svg>
