<svg xmlns="http://www.w3.org/2000/svg" width="30" height="30" viewBox="0 0 30 30">
  <g id="ELEKTRIKER_icon" transform="translate(17716 -19304)">
    <g id="Icon-11" transform="translate(-17714 19307)">
      <path id="Path_3482" data-name="Path 3482" d="M36.681,41.739l-.088,3.851a.588.588,0,0,0,.583.583H41.7a.578.578,0,0,0,.52-.286l2.566-4.72H43.78l3.3,4.756a.593.593,0,0,0,1.093-.3l-.224-10.991-.031-1.561-.583.583h3.018c.463,0,.833-.671.416-1L39.715,24.093l-1.561-1.249a.6.6,0,0,0-.708-.094l-11.339,8.6L24.494,32.57a.588.588,0,0,0,.3,1.088h3.065l-.583-.583V45.627a.588.588,0,0,0,.583.583h5.417a.588.588,0,0,0,0-1.171H27.855l.588.588V33.075a.6.6,0,0,0-.588-.588H24.79l.3,1.093L36.406,25l1.613-1.218-.713-.094,11.048,8.566,1.587,1.228.411-1H47.334a.6.6,0,0,0-.588.588L46.97,44.06,47,45.622l1.093-.3-3.3-4.756a.6.6,0,0,0-1.015,0l-2.56,4.72L41.74,45H37.212l.588.588.068-3.851a.588.588,0,0,0-1.171,0Z" transform="translate(-24.216 -22.675)" fill="rgba(0,0,0,0)" stroke="#4a4a4a" stroke-width="0.3"/>
      <path id="Path_3483" data-name="Path 3483" d="M41.16,49.318l.052,3.731a.583.583,0,0,0,.286.52,8.846,8.846,0,0,0,3.981,1.213A9.1,9.1,0,0,0,49.4,53.554a.578.578,0,0,0,.291-.52V49.318a.6.6,0,0,0-.588-.588H41.748a.588.588,0,0,0,0,1.171H49.08l-.583-.583v3.716l.286-.52a7.467,7.467,0,0,1-3.3,1.041,7.916,7.916,0,0,1-3.388-1.041l.291.52L42.331,49.3a.588.588,0,0,0-1.171.016Z" transform="translate(-32.342 -35.171)" fill="rgba(0,0,0,0)" stroke="#4a4a4a" stroke-width="0.3"/>
      <path id="Path_3484" data-name="Path 3484" d="M44.62,42.209v3.726a.588.588,0,0,0,1.171,0V42.209a.588.588,0,0,0-1.171,0Z" transform="translate(-34.002 -31.788)" fill="rgba(0,0,0,0)" stroke="#4a4a4a" stroke-width="0.3"/>
      <path id="Path_3485" data-name="Path 3485" d="M51.72,42.209v3.726a.583.583,0,0,0,.583.593.593.593,0,0,0,.6-.593V42.209a.588.588,0,0,0-1.171,0Z" transform="translate(-37.407 -31.788)" fill="rgba(0,0,0,0)" stroke="#4a4a4a" stroke-width="0.3"/>
    </g>
    <rect id="Rectangle_659" data-name="Rectangle 659" width="30" height="30" transform="translate(-17716 19304)" fill="none"/>
  </g>
</svg>
