<svg xmlns="http://www.w3.org/2000/svg" width="30" height="30" viewBox="0 0 30 30">
  <g id="FENSTER_icon" transform="translate(17876 -19304)">
    <g id="Icon-07" transform="translate(-17871 19306)">
      <path id="Path_3441" data-name="Path 3441" d="M45.3,73.3H25.738l.278.278V70.528l-.278.278H45.3l-.285-.278V73.6a.278.278,0,0,0,.556,0V70.528a.285.285,0,0,0-.278-.278H25.738a.282.282,0,0,0-.278.278V73.6a.285.285,0,0,0,.278.278H45.3a.285.285,0,1,0,0-.571Z" transform="translate(-25.46 -47.617)" fill="rgba(0,0,0,0)" stroke="#4a4a4a" stroke-width="0.3"/>
      <path id="Path_3442" data-name="Path 3442" d="M46.3,31.805H30.781l.271.293V18.577a11.292,11.292,0,0,1,.434-3.881A7.484,7.484,0,0,1,44.67,12.928a8.24,8.24,0,0,1,1.349,4.878V32.1a.278.278,0,0,0,.556,0V18.206a9.986,9.986,0,0,0-.786-4.448A8.04,8.04,0,0,0,32.327,12.12,8.388,8.388,0,0,0,30.5,17.557V32.1a.282.282,0,0,0,.278.278H46.3a.285.285,0,1,0,0-.571Z" transform="translate(-28.628 -9.187)" fill="rgba(0,0,0,0)" stroke="#4a4a4a" stroke-width="0.3"/>
      <path id="Path_3443" data-name="Path 3443" d="M49.134,33.588H39.542l.278.278V27.588c0-2.153-.022-4.307,0-6.457a4.407,4.407,0,0,1,3.914-4.344,4.537,4.537,0,0,1,4.889,2.924,8.108,8.108,0,0,1,.234,2.658v4.025c0,2.439-.048,4.885,0,7.328v.145a.278.278,0,0,0,.556,0V22.747a14.532,14.532,0,0,0-.082-2.509,4.967,4.967,0,0,0-4.385-4.007,5.119,5.119,0,0,0-5.056,2.483,6.309,6.309,0,0,0-.634,3.258v3.97c0,2.595-.044,5.189,0,7.784v.156a.285.285,0,0,0,.278.278h9.6a.285.285,0,0,0,0-.571Z" transform="translate(-34.13 -13.594)" fill="rgba(0,0,0,0)" stroke="#4a4a4a" stroke-width="0.3"/>
      <path id="Path_3444" data-name="Path 3444" d="M39.928,41.286h4.014l-.278-.278v8.154a.278.278,0,0,0,.556,0V41.008a.282.282,0,0,0-.278-.278H39.928a.278.278,0,1,0,0,.556Z" transform="translate(-34.39 -29.039)" fill="rgba(0,0,0,0)" stroke="#4a4a4a" stroke-width="0.3"/>
      <path id="Path_3445" data-name="Path 3445" d="M58.264,40.73H54.3a.285.285,0,0,0-.278.278v8.154a.278.278,0,0,0,.556,0V41.008l-.278.278h3.966a.278.278,0,1,0,0-.556Z" transform="translate(-43.434 -29.039)" fill="rgba(0,0,0,0)" stroke="#4a4a4a" stroke-width="0.3"/>
      <path id="Path_3446" data-name="Path 3446" d="M40.3,36.356h9.018a.278.278,0,1,0,0-.556H40.3a.278.278,0,1,0,0,.556Z" transform="translate(-34.623 -25.936)" fill="rgba(0,0,0,0)" stroke="#4a4a4a" stroke-width="0.3"/>
      <path id="Path_3447" data-name="Path 3447" d="M56.787,27.261l1.531-1.568c.5-.511-.285-1.3-.786-.786L56,26.476c-.5.511.285,1.3.79.786Z" transform="translate(-44.578 -18.976)" fill="rgba(0,0,0,0)" stroke="#4a4a4a" stroke-width="0.3"/>
      <path id="Path_3448" data-name="Path 3448" d="M54.387,24.162l.841-.86a.556.556,0,0,0-.786-.786l-.841.856a.557.557,0,0,0,.786.789Z" transform="translate(-43.067 -17.482)" fill="rgba(0,0,0,0)" stroke="#4a4a4a" stroke-width="0.3"/>
    </g>
    <rect id="Rectangle_657" data-name="Rectangle 657" width="30" height="30" transform="translate(-17876 19304)" fill="none"/>
  </g>
</svg>
