<svg xmlns="http://www.w3.org/2000/svg" width="30" height="30" viewBox="0 0 30 30">
  <g id="GÄRTNER_icon" transform="translate(17756 -19304)">
    <g id="Icon-10" transform="translate(-17754 19306)">
      <path id="Path_3469" data-name="Path 3469" d="M27.809,41.47l7.98-7.911,1.145-1.141c.279-.275-.15-.7-.429-.429L28.529,39.9,27.38,41.042a.3.3,0,0,0,.429.429Z" transform="translate(-23.777 -24.188)" fill="rgba(0,0,0,0)" stroke="#4a4a4a" stroke-width="0.3"/>
      <path id="Path_3529" data-name="Path 3529" d="M0,0H3.385V1.67H0Z" transform="translate(12.272 7.505) rotate(-45)" fill="rgba(0,0,0,0)" stroke="#4a4a4a" stroke-width="0.3"/>
      <path id="Path_3470" data-name="Path 3470" d="M54.579,22.919l-5.137-5.137-.728-.728v.433l1.177-1.181h-.445l5.133,5.133.728.732v-.429l-1.173,1.177c-.275.279.154.708.429.429l1.181-1.177a.3.3,0,0,0,0-.429L50.607,16.6l-.732-.732a.3.3,0,0,0-.429,0l-1.177,1.185a.3.3,0,0,0,0,.429l5.137,5.137.728.728a.309.309,0,0,0,.445-.429Z" transform="translate(-36.212 -14.587)" fill="rgba(0,0,0,0)" stroke="#4a4a4a" stroke-width="0.3"/>
      <path id="Path_3471" data-name="Path 3471" d="M21.466,57.918l-2.059-2.063-.3-.3v.429l1.181-1.181H19.86l2.063,2.063.3.3v-.429l-1.181,1.181a.3.3,0,0,0,.429.429l1.181-1.181a.3.3,0,0,0,0-.429l-2.063-2.063-.3-.3a.3.3,0,0,0-.429,0L18.679,55.56a.3.3,0,0,0,0,.429l2.063,2.063.3.3C21.312,58.622,21.745,58.193,21.466,57.918Z" transform="translate(-18.591 -37.522)" fill="rgba(0,0,0,0)" stroke="#4a4a4a" stroke-width="0.3"/>
      <path id="Path_3472" data-name="Path 3472" d="M53.7,13.352,52.424,14.63l-.182.178h.429l-.433-.437V14.8l1.274-1.274.178-.178h-.429l.437.437a.311.311,0,0,0,.429,0,.32.32,0,0,0,0-.433l-.437-.433a.3.3,0,0,0-.429,0l-1.274,1.274-.178.178a.3.3,0,0,0,0,.429l.429.437a.3.3,0,0,0,.429,0l1.274-1.274.182-.178a.32.32,0,0,0,0-.433.311.311,0,0,0-.425,0Z" transform="translate(-38.32 -12.831)" fill="rgba(0,0,0,0)" stroke="#4a4a4a" stroke-width="0.3"/>
      <path id="Path_3473" data-name="Path 3473" d="M57.914,17.572,56.64,18.846l-.178.182h.429l-.433-.437v.429l1.274-1.274.178-.178h-.429l.433.433a.3.3,0,0,0,.433-.429l-.437-.433a.3.3,0,0,0-.429,0l-1.274,1.274-.178.178a.3.3,0,0,0,0,.429l.433.437a.3.3,0,0,0,.429,0l1.274-1.274L58.347,18a.311.311,0,0,0,0-.429A.32.32,0,0,0,57.914,17.572Z" transform="translate(-40.834 -15.344)" fill="rgba(0,0,0,0)" stroke="#4a4a4a" stroke-width="0.3"/>
      <path id="Path_3474" data-name="Path 3474" d="M62.09,21.7,60.8,22.97l-.182.178h.429l-.433-.429v.433l1.274-1.274.178-.182h-.429l.457.429a.307.307,0,0,0,.429,0,.311.311,0,0,0,0-.429l-.437-.437a.3.3,0,0,0-.429,0l-1.274,1.274-.178.178a.311.311,0,0,0,0,.433l.433.433a.3.3,0,0,0,.429,0l1.254-1.262.182-.178a.3.3,0,0,0-.409-.441Z" transform="translate(-43.319 -17.797)" fill="rgba(0,0,0,0)" stroke="#4a4a4a" stroke-width="0.3"/>
      <path id="Path_3475" data-name="Path 3475" d="M66,25.661l-1.274,1.274-.178.178h.429l-.437-.413v.4l1.274-1.274L66,25.653h-.429l.433.433a.306.306,0,1,0,.441-.425L66,25.224a.311.311,0,0,0-.429,0L64.294,26.5l-.182.178a.307.307,0,0,0,0,.429l.437.433a.3.3,0,0,0,.429,0l1.274-1.274.178-.178a.3.3,0,0,0,0-.429.307.307,0,0,0-.429,0Z" transform="translate(-45.648 -20.16)" fill="rgba(0,0,0,0)" stroke="#4a4a4a" stroke-width="0.3"/>
      <path id="Path_3476" data-name="Path 3476" d="M21.685,54.116l2.022,2.1.287.3a.3.3,0,0,0,.429,0,2.386,2.386,0,0,0,.506-1.958,1.962,1.962,0,0,0-1.064-1.266,1.853,1.853,0,0,0-1.4-.036,2.617,2.617,0,0,0-.777.433.3.3,0,0,0,.429.429c.044-.032,0,0-.02,0s.065-.049.1-.073a3.542,3.542,0,0,1,.344-.19h0l.057-.02.113-.04a1.974,1.974,0,0,1,.267-.065h.307a.947.947,0,0,1,.154.036,1.391,1.391,0,0,1,.878.845l.036.138v.077h0a1.8,1.8,0,0,1,0,.3v.093l-.024.109c-.024.085-.049.17-.081.255,0,.024-.02.049-.028.069h0l-.049.105c-.032.061-.065.121-.1.182l-.081.125h.429l-2.022-2.1-.291-.3C21.843,53.4,21.418,53.837,21.685,54.116Z" transform="translate(-20.383 -36.834)" fill="rgba(0,0,0,0)" stroke="#4a4a4a" stroke-width="0.3"/>
      <path id="Path_3477" data-name="Path 3477" d="M58.869,36.4,51,44.279l-1.133,1.1c-.275.279.154.708.429.433l7.879-7.867,1.12-1.12a.3.3,0,0,0-.429-.429Z" transform="translate(-37.165 -26.819)" fill="rgba(0,0,0,0)" stroke="#4a4a4a" stroke-width="0.3"/>
      <path id="Path_3530" data-name="Path 3530" d="M0,0H3.385V1.67H0Z" transform="translate(9.961 20.535) rotate(-45)" fill="rgba(0,0,0,0)" stroke="#4a4a4a" stroke-width="0.3"/>
      <path id="Path_3478" data-name="Path 3478" d="M73.35,28l2.022,2.022.287.287v-.425L74.475,31.07H74.9l-2.022-2.022-.287-.287v.429l1.181-1.181a.3.3,0,0,0-.429-.429l-1.177,1.177a.3.3,0,0,0,0,.429l2.022,2.022.287.287a.3.3,0,0,0,.429,0l1.185-1.173a.311.311,0,0,0,0-.433L74.07,27.866l-.287-.287A.3.3,0,0,0,73.35,28Z" transform="translate(-50.445 -21.557)" fill="rgba(0,0,0,0)" stroke="#4a4a4a" stroke-width="0.3"/>
      <path id="Path_3479" data-name="Path 3479" d="M74.243,32.784l-2.022-2.1-.287-.3a.307.307,0,0,0-.429,0A2.382,2.382,0,0,0,71,32.343a1.95,1.95,0,0,0,1.064,1.266,1.84,1.84,0,0,0,1.391.036,2.52,2.52,0,0,0,.777-.433.3.3,0,0,0-.425-.429c-.04.032,0,0,.024-.02l-.1.073c-.113.073-.227.129-.344.19h0l-.061.024-.109.04a2.136,2.136,0,0,1-.267.065h-.307a1.108,1.108,0,0,1-.158-.036,1.383,1.383,0,0,1-.874-.845.865.865,0,0,1-.036-.138V32.06h0a1.848,1.848,0,0,1,0-.3v-.089l.024-.109a1.7,1.7,0,0,1,.081-.255.54.54,0,0,1,.028-.073h0s.032-.069.053-.1a2.1,2.1,0,0,1,.1-.186l.081-.121c0-.028.081-.105,0,0h-.429l2.022,2.1.287.3C74.085,33.492,74.514,33.063,74.243,32.784Z" transform="translate(-49.776 -23.231)" fill="rgba(0,0,0,0)" stroke="#4a4a4a" stroke-width="0.3"/>
      <path id="Path_3480" data-name="Path 3480" d="M36.063,61.789,34.2,61.9a.7.7,0,0,0-.493.235l-.785.728-.785.732a.51.51,0,0,0-.186.4c0,.663.028,1.331.044,2l.04,1.909a.307.307,0,0,0,.3.3l2.483.036h1.323a.756.756,0,0,0,.6-.3l1.141-1.088c.227-.214.5-.4.522-.712.032-.5.053-1,.081-1.5a2.881,2.881,0,0,0,.024-.4.53.53,0,0,0-.21-.336l-2.022-2.022a.3.3,0,0,0-.429.429l2.144,2.144-.089-.214-.109,2.022.089-.214-1.8,1.695.214-.089L32.338,67.6l.3.3-.085-4-.089.214,1.812-1.695-.214.089,2-.117C36.452,62.376,36.456,61.769,36.063,61.789Z" transform="translate(-26.546 -41.987)" fill="rgba(0,0,0,0)" stroke="#4a4a4a" stroke-width="0.3"/>
      <path id="Path_3481" data-name="Path 3481" d="M41.22,64.34,39.6,65.925l-.227.227a.3.3,0,0,0,.441.421l1.618-1.585.227-.227a.3.3,0,0,0,0-.429.307.307,0,0,0-.429,0Z" transform="translate(-30.919 -43.45)" fill="rgba(0,0,0,0)" stroke="#4a4a4a" stroke-width="0.3"/>
    </g>
    <rect id="Rectangle_658" data-name="Rectangle 658" width="30" height="30" transform="translate(-17756 19304)" fill="none"/>
  </g>
</svg>
