<?xml version="1.0" encoding="UTF-8"?><svg id="Layer_1" xmlns="http://www.w3.org/2000/svg" viewBox="0 0 99.76 90.61"><path d="M20.16,55.42H.9l.9,.9v-20.71l-.9,.9H13.74c.49,0,.9-.4,.9-.9s-.4-.9-.9-.9H.9c-.49,.01-.88,.41-.9,.9v20.71c0,.49,.4,.89,.9,.9H20.16c.49,0,.9-.4,.9-.9s-.4-.9-.9-.9Z"/><path d="M14.64,56.32v-20.71l-.9,.9h12.85c.49,0,.9-.4,.9-.9s-.4-.9-.9-.9H13.74c-.49,0-.89,.4-.9,.9v20.71c0,.49,.4,.9,.9,.9s.9-.4,.9-.9Z"/><path d="M26.59,36.5h12.83c.49,0,.9-.4,.9-.9s-.4-.9-.9-.9h-12.83c-.49,0-.9,.4-.9,.9s.4,.9,.9,.9Z"/><path d="M1.53,36.24c.39-.37,.26-1.04,.3-1.53,.06-.87,.23-1.72,.5-2.54,.44-1.35,1.15-2.6,2.1-3.65,1.75-1.95,4.02-3.35,6.55-4.02,4.19-1.07,8.64,.09,11.76,3.08,1.06,1.07,1.86,2.38,2.32,3.82,.29,.89,.48,1.8,.56,2.73,.06,.61-.14,1.68,.33,2.14,.82,.81,2.09-.45,1.27-1.27h0l.26,.63c.09-3.22-.98-6.36-3.02-8.85-1.72-1.88-3.94-3.23-6.41-3.87-4.82-1.34-9.99-.13-13.72,3.2C1.62,28.53,.06,31.98,.05,35.61l.26-.63H.31c-.82,.81,.44,2.08,1.27,1.27h-.05Z"/><path d="M39.42,36.5c.49,0,.9-.4,.9-.9s-.4-.9-.9-.9-.9,.4-.9,.9,.4,.9,.9,.9Z"/><path d="M13.74,24.07h12.39c3.93,0,7.93-.3,11.49,1.72s5.05,5.67,5.11,9.63c0,.49,.4,.9,.9,.9s.9-.4,.9-.9c.12-3.57-1.25-7.03-3.78-9.55-2.14-1.87-4.79-3.06-7.62-3.4-1.63-.17-3.26-.23-4.89-.18H13.74c-.49,0-.9,.4-.9,.9s.4,.9,.9,.9h0Z"/><path d="M32.99,67.7h-12.82l.9,.9v-20.73l-.9,.9h12.82l-.87-.9v20.73c0,.49,.4,.9,.9,.9s.9-.4,.9-.9v-20.73c-.01-.49-.41-.88-.9-.9h-12.85c-.49,0-.89,.4-.9,.9v20.73c0,.49,.4,.89,.9,.9h12.82c.49,0,.9-.4,.9-.9s-.4-.9-.9-.9Z"/><path d="M45.84,67.7h-12.86l.9,.9v-20.73l-.9,.9h12.86l-.92-.9v20.73c0,.49,.4,.9,.9,.9s.9-.4,.9-.9v-20.73c0-.49-.4-.89-.9-.9h-12.83c-.49,0-.89,.4-.9,.9v20.73c0,.49,.4,.89,.9,.9h12.86c.49,0,.9-.4,.9-.9s-.4-.9-.9-.9Z"/><path d="M58.69,67.7h-12.85l.9,.9v-20.73l-.9,.9h12.85l-.9-.9v20.73c0,.49,.4,.9,.9,.9s.9-.4,.9-.9v-20.73c0-.49-.4-.89-.9-.9h-12.85c-.5,0-.91,.4-.92,.9v20.73c0,.49,.4,.89,.9,.9h12.87c.49,0,.9-.4,.9-.9s-.4-.9-.9-.9Z"/><path d="M71.54,67.7h-12.85l.9,.9v-20.73l-.9,.9h12.85l-.9-.9v20.73c0,.49,.4,.9,.9,.9s.9-.4,.9-.9v-20.73c-.01-.49-.41-.88-.9-.9h-12.85c-.49,0-.89,.4-.9,.9v20.73c0,.49,.4,.89,.9,.9h12.85c.49,0,.9-.4,.9-.9s-.4-.9-.9-.9Z"/><path d="M84.32,67.7h-12.79l.9,.9v-20.73l-.9,.9h12.79l-.85-.9v20.73c0,.49,.4,.9,.9,.9s.9-.4,.9-.9v-20.73c0-.49-.4-.89-.9-.9h-12.83c-.49,0-.89,.4-.9,.9v20.73c0,.49,.4,.89,.9,.9h12.79c.49,0,.9-.4,.9-.9s-.4-.9-.9-.9Z"/><path d="M20.8,48.51c.38-.37,.26-1.04,.3-1.53,.06-.86,.23-1.72,.49-2.54,.45-1.35,1.16-2.59,2.1-3.65,1.75-1.95,4.03-3.35,6.57-4.02,4.18-1.08,8.63,.07,11.76,3.04,1.05,1.09,1.84,2.4,2.32,3.83,.29,.89,.5,1.8,.6,2.73,0,.61-.16,1.67,.32,2.14,.84,.8,2.1-.45,1.27-1.27h0l.26,.63c.08-3.22-1-6.36-3.04-8.85-1.72-1.88-3.95-3.22-6.41-3.87-4.84-1.36-10.03-.14-13.77,3.22-2.71,2.4-4.27,5.85-4.29,9.48l.26-.63h0c-.84,.8,.43,2.07,1.27,1.27h0Z"/><path d="M59.32,47.25h0l.26,.63c.1-3.32-1.05-6.57-3.22-9.09-1.83-1.89-4.17-3.2-6.73-3.77-1.24-.3-2.51-.45-3.78-.47-.49,0-.9,.4-.9,.9s.4,.9,.9,.9c4.5,0,9.34,2.21,11.1,6.69,.32,.81,.55,1.65,.68,2.51,.07,.49,.12,.98,.14,1.47,0,.49-.1,1.13,.29,1.5,.82,.8,2.1-.45,1.27-1.27Z"/><path d="M58.69,36.35c4.5,0,9.34,2.21,11.1,6.69,.31,.81,.53,1.65,.67,2.51,.08,.49,.13,.98,.16,1.47,0,.49-.1,1.13,.29,1.5,.82,.8,2.09-.45,1.27-1.27h0l.21,.62c.1-3.33-1.06-6.57-3.24-9.09-1.82-1.89-4.17-3.2-6.73-3.77-1.24-.3-2.5-.45-3.77-.47-.49,0-.9,.4-.9,.9s.4,.9,.9,.9h.05Z"/><path d="M58.69,48.77c.49,0,.9-.4,.9-.9s-.4-.9-.9-.9-.9,.4-.9,.9,.4,.9,.9,.9Z"/><path d="M32.99,36.35h33.61c2.14-.09,4.28-.06,6.42,.08,2.65,.24,5.16,1.32,7.16,3.08,1.17,1.1,2.06,2.48,2.58,4,.31,.92,.51,1.87,.6,2.83,0,.62-.16,1.7,.33,2.17,.84,.8,2.1-.45,1.27-1.27,.44,.43,.24-.41,.21-.69s-.07-.73-.12-1.07c-.12-.89-.33-1.77-.62-2.63-.47-1.3-1.16-2.51-2.03-3.58-1.62-1.88-3.75-3.25-6.12-3.95-2.5-.65-5.09-.9-7.68-.75H32.99c-.49,0-.9,.4-.9,.9s.4,.9,.9,.9h0Z"/><path d="M84.32,69.49h14.54c.49,0,.9-.4,.9-.9s-.4-.9-.9-.9l-12.7,.06h-1.84c-.49,0-.9,.4-.9,.9s.4,.9,.9,.9v-.06Z"/></svg>