<svg id="Layer_1" data-name="Layer 1" xmlns="http://www.w3.org/2000/svg" viewBox="0 0 99.76 90.61"><defs><style>.cls-1{fill:#0a0a0a;}.cls-2{fill:none;stroke:#0a0a0a;stroke-miterlimit:10;stroke-width:0.25px;}</style></defs><path class="cls-1" d="M17,34.15H40.67a.39.39,0,0,0,.38-.38v-6a.39.39,0,0,0-.38-.38H40l.36.48a6.18,6.18,0,0,0,.74-2.54V12.43a.39.39,0,0,0-.38-.38H17a.39.39,0,0,0-.38.38V33.77a.38.38,0,0,0,.75,0V12.43L17,12.8H40.67l-.37-.37V25.11a5.7,5.7,0,0,1-.71,2.58c-.1.23.14.47.36.47h.72l-.37-.37v6l.37-.37H17A.38.38,0,0,0,17,34.15Z"/><path class="cls-1" d="M63.87,12.43V25.5A5.19,5.19,0,0,0,64.79,28l.32-.57h-.57a.38.38,0,0,0-.38.38v6a.39.39,0,0,0,.38.38H82.85a.38.38,0,0,0,.37-.38V12.43a.38.38,0,0,0-.37-.38H64.25a.38.38,0,0,0,0,.75h18.6l-.38-.37V33.77l.38-.37H64.54l.37.37v-6l-.37.37h.57a.38.38,0,0,0,.33-.56L65,26.77l-.33-.64c0-.09-.11-.33,0,0a5.06,5.06,0,0,1,0-.87V12.43A.38.38,0,0,0,63.87,12.43Z"/><path class="cls-1" d="M40.3,12.43V23.6a.38.38,0,0,0,.37.38H64.25a.38.38,0,0,0,.37-.38V12.43a.38.38,0,0,0-.37-.38H40.67a.38.38,0,0,0,0,.75H64.25l-.38-.37V23.6l.38-.37H40.67l.38.37V12.43A.38.38,0,0,0,40.3,12.43Z"/><path class="cls-1" d="M40,28.16H65.11a.38.38,0,0,0,.33-.56l-.54-1a3,3,0,0,1-.26-.5c-.09-.26,0,.22,0-.1a20.64,20.64,0,0,1,0-2.36.38.38,0,0,0-.37-.37H40.67a.38.38,0,0,0-.37.37,16.61,16.61,0,0,1,0,2.34,12.38,12.38,0,0,1-.71,1.75c-.19.44.54.64.72.2A9.57,9.57,0,0,0,41.05,26a16.29,16.29,0,0,0,0-2.42l-.38.38H64.25l-.38-.38a13.92,13.92,0,0,0,0,2.5A7.8,7.8,0,0,0,64.79,28l.32-.57H40A.38.38,0,0,0,40,28.16Z"/><path class="cls-1" d="M68.43,32.13H78.67a.38.38,0,0,0,0-.75H68.43a.38.38,0,0,0,0,.75Z"/><path class="cls-1" d="M47.28,21.89H57.51a.38.38,0,0,0,0-.75H47.28a.38.38,0,0,0,0,.75Z"/><path class="cls-1" d="M31.7,32.13h5.12a.38.38,0,0,0,0-.75H31.7a.38.38,0,0,0,0,.75Z"/><path class="cls-1" d="M20,32.13H25.1a.38.38,0,0,0,0-.75H20a.38.38,0,0,0,0,.75Z"/><path class="cls-1" d="M16.57,55.4V78.18a.39.39,0,0,0,.38.38H41.34a.38.38,0,0,0,.37-.38V55.4a.38.38,0,0,0-.37-.37H17a.38.38,0,0,0,0,.75H41.34L41,55.4V78.18l.38-.37H17l.37.37V55.4A.38.38,0,0,0,16.57,55.4Z"/><path class="cls-1" d="M63.35,55.4v3.45c0,1.13.77,1.78,1.44,2.67l.32-.56H63.72a.38.38,0,0,0-.37.37V78.18a.38.38,0,0,0,.37.38H82.85a.38.38,0,0,0,.37-.38V55.4a.38.38,0,0,0-.37-.37H63.72a.38.38,0,0,0,0,.75H82.85l-.38-.38V78.18l.38-.37H63.72l.38.37V61.33l-.38.38h1.39a.39.39,0,0,0,.33-.57l-1.07-1.41c-.36-.47-.27-.31-.27-.93V55.4A.38.38,0,0,0,63.35,55.4Z"/><path class="cls-1" d="M41,55.4c0,1.19,0,2.39,0,3.58,0,.63.08.28-.29.85l-1,1.5a.38.38,0,0,0,.33.56h1.33L41,61.52V78.18a.38.38,0,0,0,.38.38H63.72a.38.38,0,0,0,.38-.38V61.33l-.38.38h1.39a.39.39,0,0,0,.33-.57l-1-1.39c-.39-.51-.29-.17-.29-.85V55.4a.38.38,0,0,0-.38-.37H41.34a.38.38,0,0,0,0,.75H63.72l-.37-.38c0,1.24-.05,2.5,0,3.74,0,.93.89,1.65,1.44,2.38l.32-.56H63.72a.38.38,0,0,0-.37.37V78.18l.37-.37H41.34l.37.37V61.52a.38.38,0,0,0-.37-.38H40l.32.57c.5-.76,1.32-1.58,1.38-2.5.09-1.26,0-2.55,0-3.81A.38.38,0,0,0,41,55.4Z"/><path class="cls-1" d="M42.8,62.67V73.16a.38.38,0,0,0,.37.37H61.89a.38.38,0,0,0,.37-.37V62.67a.38.38,0,0,0-.37-.37H43.17a.38.38,0,0,0,0,.75H61.89l-.38-.38V73.16l.38-.38H43.17l.38.38V62.67A.38.38,0,0,0,42.8,62.67Z"/><path class="cls-1" d="M64.74,43.5V53a.38.38,0,0,0,.37.37H82.49a.38.38,0,0,0,.37-.37V43.5a.38.38,0,0,0-.37-.37H65.11a.38.38,0,0,0,0,.75H82.49l-.38-.38V53l.38-.38H65.11l.38.38V43.5A.38.38,0,0,0,64.74,43.5Z"/><path class="cls-1" d="M66.61,45.38v5.69a.38.38,0,0,0,.38.38H77.47a.38.38,0,0,0,.37-.38V45.38a.38.38,0,0,0-.37-.38H67a.38.38,0,0,0,0,.75H77.47l-.38-.37v5.69l.38-.37H67l.37.37V45.38A.38.38,0,0,0,66.61,45.38Z"/><polygon class="cls-1" points="41.12 59.49 63.73 59.49 65.17 61.52 40.01 61.52 41.12 59.49"/><path class="cls-1" d="M68.43,58.41H78.67a.38.38,0,0,0,0-.75H68.43a.38.38,0,0,0,0,.75Z"/><path class="cls-1" d="M41.34,75.24H63.72a.38.38,0,0,0,0-.75H41.34a.38.38,0,0,0,0,.75Z"/><path class="cls-1" d="M16.52,55.05H83.25a.38.38,0,0,0,0-.75H16.52a.38.38,0,0,0,0,.75Z"/><path class="cls-1" d="M31.7,58.41h5.42a.38.38,0,0,0,0-.75H31.7a.38.38,0,0,0,0,.75Z"/><path class="cls-1" d="M20,58.41h5.41a.38.38,0,0,0,0-.75H20a.38.38,0,0,0,0,.75Z"/><path class="cls-1" d="M19.92,54V52.9l-.38.37H38.2l-.37-.37V54a.38.38,0,0,0,.75,0V52.9a.39.39,0,0,0-.38-.38H19.54a.38.38,0,0,0-.37.38V54a.38.38,0,0,0,.75,0Z"/><path class="cls-1" d="M41.71,54V52.9l-.37.37H63.72l-.37-.37V54a.38.38,0,0,0,.75,0V52.9a.38.38,0,0,0-.38-.38H41.34a.38.38,0,0,0-.38.38V54a.38.38,0,0,0,.75,0Z"/><path class="cls-1" d="M78.29,43.5V53A.38.38,0,0,0,79,53V43.5a.38.38,0,0,0-.75,0Z"/><path class="cls-1" d="M56.91,52.9v-1a.38.38,0,1,0-.75,0v1a.38.38,0,0,0,.75,0Z"/><path class="cls-1" d="M58.75,52.9v-1a.39.39,0,0,0-.38-.38.38.38,0,0,0-.37.38v1a.38.38,0,0,0,.37.37.38.38,0,0,0,.38-.37Z"/><path class="cls-1" d="M60.51,52.9v-1a.38.38,0,1,0-.75,0v1a.38.38,0,0,0,.38.37.38.38,0,0,0,.37-.37Z"/><path class="cls-1" d="M66.57,53.91V53a.38.38,0,0,0-.38-.38.38.38,0,0,0-.37.38v.95a.38.38,0,0,0,.37.38.39.39,0,0,0,.38-.38Z"/><path class="cls-1" d="M81.78,53.91V53a.38.38,0,0,0-.37-.38A.39.39,0,0,0,81,53v.95a.38.38,0,1,0,.75,0Z"/><path class="cls-1" d="M29.33,52.9V50.19h1.1l-1.38-.72s.09-.85,2,.74a.51.51,0,0,1,.14.4V52.9Z"/><polygon class="cls-1" points="29.33 52.14 22.94 46.95 22.91 47.68 21.66 47.68 21.66 46.18 23.51 46.18 29.33 51.04 29.33 52.14"/><rect class="cls-1" x="21.46" y="47.33" width="1.59" height="1.1" rx="0.13"/><rect class="cls-1" x="50.41" y="57.18" width="4.15" height="1.1" rx="0.17"/><rect class="cls-1" x="47.3" y="57.18" width="1.99" height="1.1" rx="0.17"/><rect class="cls-1" x="55.54" y="57.18" width="1.99" height="1.1" rx="0.17"/><rect class="cls-1" x="51.61" y="24.6" width="1.99" height="1.1" rx="0.17"/><rect class="cls-1" x="79.79" y="46.21" width="1.62" height="1.07" rx="0.16"/><rect class="cls-1" x="79.79" y="47.79" width="1.62" height="1.9" rx="0.24"/><line class="cls-2" x1="28.81" y1="12.43" x2="28.81" y2="33.77"/><line class="cls-2" x1="28.81" y1="55.4" x2="28.81" y2="78.18"/></svg>