<svg id="Layer_1" data-name="Layer 1" xmlns="http://www.w3.org/2000/svg" viewBox="0 0 99.76 90.61"><defs><style>.cls-1,.cls-2,.cls-4{fill:none;stroke:#0a0a0a;}.cls-1,.cls-4{stroke-linecap:round;stroke-miterlimit:10;}.cls-1{stroke-width:0.75px;}.cls-2{stroke-linejoin:round;}.cls-3{fill:#0a0a0a;}.cls-4{stroke-width:0.5px;}</style></defs><line class="cls-1" x1="61" y1="34.54" x2="68.81" y2="34.54"/><line class="cls-1" x1="61" y1="32.28" x2="68.81" y2="32.28"/><line class="cls-1" x1="61" y1="36.8" x2="68.81" y2="36.8"/><line class="cls-1" x1="61" y1="38.83" x2="68.81" y2="38.83"/><line class="cls-1" x1="61" y1="40.69" x2="68.81" y2="40.69"/><line class="cls-1" x1="61" y1="44.8" x2="68.81" y2="44.8"/><line class="cls-1" x1="61" y1="46.69" x2="68.81" y2="46.69"/><line class="cls-1" x1="61" y1="48.86" x2="68.81" y2="48.86"/><line class="cls-1" x1="61" y1="50.89" x2="68.81" y2="50.89"/><line class="cls-1" x1="61" y1="52.93" x2="68.81" y2="52.93"/><line class="cls-1" x1="61" y1="54.96" x2="68.81" y2="54.96"/><line class="cls-1" x1="61" y1="56.99" x2="68.81" y2="56.99"/><line class="cls-1" x1="61" y1="42.76" x2="68.81" y2="42.76"/><path class="cls-2" d="M53.8,37.13H11V66H64.48s4.33,0,4.33-3.76c0-2.27-2.14-3.59-4-3.9-10.61-1.76-11,3.9-11,3.9V32.29s1.36-3.57,7.5-3.58c6.44,0,7.51,3.58,7.51,3.58v29.9"/><path class="cls-3" d="M64.23,66.33H81a21.25,21.25,0,0,0,4.65-.14A4.35,4.35,0,0,0,89,63.61,4.3,4.3,0,0,0,87.54,59c-1.85-1.44-4.2-1.07-6.38-1.07H76.43a3.25,3.25,0,0,1-1.6-.28c-2-1-2.3-4-2-6,.21-1.6,1.09-3.14,2.82-3.32,2.38-.24,4.85.09,7.25,0,3-.11,4-4.93,1.37-6.34a5.7,5.7,0,0,0-2.75-.31H76.78l.1.73a4.19,4.19,0,0,0,3-2,2.8,2.8,0,0,0-1.71-3.64c-1.51-.59-3.35-.34-4.93-.33l-4.47,0a.38.38,0,0,0,0,.75c2.35,0,4.7-.08,7-.07,1.52,0,3.8.47,3.47,2.53-.18,1.17-1.6,1.74-2.65,1.95-.42.08-.31.74.1.74h3.76a14.55,14.55,0,0,1,2.8,0c2,.41,2.09,4,.41,4.92a4.89,4.89,0,0,1-2.22.2H76.74a7.52,7.52,0,0,0-1.71.09c-3.47.83-3.62,5.77-2.47,8.43a4,4,0,0,0,3.87,2.53c2.73,0,5.53-.18,8.25,0a4.37,4.37,0,0,1,2.58,1.06,3.21,3.21,0,0,1-.79,5.41,10.84,10.84,0,0,1-4.5.44H64.23a.38.38,0,0,0,0,.75Z"/><line class="cls-4" x1="14.55" y1="38.83" x2="13.62" y2="39.76"/><line class="cls-4" x1="17.59" y1="38.31" x2="12.46" y2="43.72"/><line class="cls-4" x1="19.67" y1="38.83" x2="18.75" y2="39.76"/><line class="cls-4" x1="22.58" y1="38.25" x2="17.54" y2="43.86"/><line class="cls-4" x1="18.12" y1="40.46" x2="14.55" y2="44.29"/><line class="cls-4" x1="13.88" y1="45.07" x2="12.95" y2="46"/><line class="cls-4" x1="16.93" y1="44.61" x2="12.46" y2="49.61"/><line class="cls-4" x1="24.79" y1="38.57" x2="11.97" y2="52.46"/><line class="cls-4" x1="27.27" y1="39.01" x2="12.74" y2="54.74"/><line class="cls-4" x1="30.73" y1="38.83" x2="12.7" y2="58.32"/><line class="cls-4" x1="33.34" y1="38.95" x2="12.91" y2="61.03"/><line class="cls-4" x1="35.76" y1="39.2" x2="12.91" y2="63.95"/><line class="cls-4" x1="39.27" y1="39.2" x2="16.42" y2="63.95"/><line class="cls-4" x1="42.47" y1="39.3" x2="19.62" y2="64.06"/><line class="cls-4" x1="49.45" y1="64.04" x2="50.38" y2="63.11"/><line class="cls-4" x1="46.43" y1="64.51" x2="51.56" y2="59.09"/><line class="cls-4" x1="44.32" y1="64.04" x2="45.25" y2="63.11"/><line class="cls-4" x1="41.32" y1="64.52" x2="46.36" y2="58.91"/><line class="cls-4" x1="45.87" y1="62.41" x2="49.45" y2="58.58"/><line class="cls-4" x1="50.12" y1="57.8" x2="51.04" y2="56.88"/><line class="cls-4" x1="46.97" y1="58.17" x2="52.24" y2="52.46"/><line class="cls-4" x1="38.95" y1="64.04" x2="51.93" y2="49.49"/><line class="cls-4" x1="35.19" y1="64.59" x2="52.4" y2="44.98"/><line class="cls-4" x1="31.84" y1="64.28" x2="52" y2="41.75"/><line class="cls-4" x1="29.11" y1="64.16" x2="52.15" y2="39.2"/><line class="cls-4" x1="26.63" y1="63.91" x2="49.99" y2="38.55"/><line class="cls-4" x1="23.12" y1="63.91" x2="46.47" y2="38.55"/></svg>