<svg id="Layer_1" data-name="Layer 1" xmlns="http://www.w3.org/2000/svg" viewBox="0 0 99.76 90.61"><defs><style>.cls-1{fill:#0a0a0a;}</style></defs><path class="cls-1" d="M28.56,55.56,48.29,36l2.83-2.82c.69-.68-.37-1.74-1.06-1.06L30.34,51.68,27.5,54.5a.75.75,0,0,0,1.06,1.06Z"/><rect class="cls-1" x="49.16" y="27.83" width="8.37" height="4.13" transform="translate(-5.51 46.47) rotate(-45)"/><path class="cls-1" d="M64,33.43l-12.7-12.7-1.8-1.8V20l2.91-2.92H51.31L64,29.77l1.8,1.81V30.52L62.9,33.43c-.68.69.38,1.75,1.06,1.06l2.92-2.91a.75.75,0,0,0,0-1.06L54.18,17.81,52.37,16a.75.75,0,0,0-1.06,0L48.4,18.93a.75.75,0,0,0,0,1.06l12.7,12.7,1.8,1.8A.75.75,0,0,0,64,33.43Z"/><path class="cls-1" d="M25.7,63.26l-5.09-5.1-.74-.73v1.06l2.92-2.92H21.73l5.1,5.1.73.73V60.34l-2.92,2.92a.75.75,0,0,0,1.06,1.06l2.92-2.92a.75.75,0,0,0,0-1.06l-5.1-5.1-.73-.73a.75.75,0,0,0-1.06,0l-2.92,2.92a.75.75,0,0,0,0,1.06l5.1,5.1.73.73C25.32,65,26.39,63.94,25.7,63.26Z"/><path class="cls-1" d="M56.61,14.12l-3.15,3.16-.45.44h1.06L53,16.64V17.7l3.15-3.15.44-.44H55.53l1.08,1.08a.77.77,0,0,0,1.06,0,.79.79,0,0,0,0-1.07l-1.08-1.07a.75.75,0,0,0-1.06,0L52.38,16.2l-.44.44a.75.75,0,0,0,0,1.06L53,18.78a.75.75,0,0,0,1.06,0l3.15-3.15.45-.44a.79.79,0,0,0,0-1.07A.77.77,0,0,0,56.61,14.12Z"/><path class="cls-1" d="M60.82,18.34l-3.15,3.15-.44.45h1.06l-1.07-1.08v1.06l3.15-3.15.44-.44H59.75l1.07,1.07a.75.75,0,1,0,1.07-1.06l-1.08-1.07a.75.75,0,0,0-1.06,0L56.6,20.42l-.44.44a.75.75,0,0,0,0,1.06L57.23,23a.75.75,0,0,0,1.06,0l3.15-3.15.45-.45a.77.77,0,0,0,0-1.06A.79.79,0,0,0,60.82,18.34Z"/><path class="cls-1" d="M65,22.47,61.8,25.62l-.45.44h1.06L61.34,25v1.07l3.15-3.15.44-.45H63.87L65,23.53a.76.76,0,0,0,1.06,0,.77.77,0,0,0,0-1.06l-1.08-1.08a.75.75,0,0,0-1.06,0l-3.15,3.15-.44.44a.77.77,0,0,0,0,1.07l1.07,1.07a.75.75,0,0,0,1.06,0L65.56,24l.45-.44A.75.75,0,0,0,65,22.47Z"/><path class="cls-1" d="M68.91,26.43l-3.15,3.15-.44.44h1.06L65.3,29V30l3.15-3.15.45-.44H67.84l1.07,1.07A.75.75,0,1,0,70,26.43L68.9,25.35a.77.77,0,0,0-1.06,0l-3.15,3.16-.45.44a.76.76,0,0,0,0,1.06l1.08,1.07a.75.75,0,0,0,1.06,0l3.15-3.15.44-.44a.75.75,0,0,0,0-1.06A.76.76,0,0,0,68.91,26.43Z"/><path class="cls-1" d="M21.81,55.56l5,5.19.71.74a.75.75,0,0,0,1.06,0,5.9,5.9,0,0,0,1.25-4.84,4.85,4.85,0,0,0-2.63-3.13,4.58,4.58,0,0,0-3.45-.09,6.47,6.47,0,0,0-1.92,1.07.75.75,0,0,0,1.06,1.06c.11-.08,0,0-.05,0s.16-.12.24-.18a8.76,8.76,0,0,1,.85-.47s.13-.06,0,0l.14-.05.28-.1a4.88,4.88,0,0,1,.66-.16c-.13,0,0,0,0,0l.22,0h.48s.19,0,.06,0a2.34,2.34,0,0,1,.38.09,3.44,3.44,0,0,1,2.17,2.09l.09.34,0,.19s0-.12,0,0a4.45,4.45,0,0,1,0,.73s0,.23,0,.12,0,.12,0,.11l-.06.27c-.06.21-.12.42-.2.63,0,.06-.05.12-.07.17l0,0-.12.26c-.08.15-.16.3-.25.45l-.2.31,0,0h1.06l-5-5.19-.72-.74C22.2,53.8,21.15,54.87,21.81,55.56Z"/><path class="cls-1" d="M72.25,36.52,52.8,56,50,58.73c-.68.69.38,1.75,1.06,1.07L70.54,40.35l2.77-2.77a.75.75,0,0,0-1.06-1.06Z"/><rect class="cls-1" x="43.45" y="60.04" width="8.37" height="4.13" transform="translate(-29.96 51.87) rotate(-45)"/><path class="cls-1" d="M75.22,28.77l5,5,.71.71V33.43L78,36.35h1.06l-5-5-.71-.71v1.06l2.92-2.92a.75.75,0,0,0-1.06-1.06L72.3,30.63a.75.75,0,0,0,0,1.06l5,5,.71.71a.75.75,0,0,0,1.06,0L82,34.5a.77.77,0,0,0,0-1.07l-5-5-.71-.71C75.59,27,74.53,28.09,75.22,28.77Z"/><path class="cls-1" d="M79.08,36.45l-5-5.19-.71-.75a.76.76,0,0,0-1.06,0,5.89,5.89,0,0,0-1.25,4.85,4.82,4.82,0,0,0,2.63,3.13,4.55,4.55,0,0,0,3.44.09,6.23,6.23,0,0,0,1.92-1.07A.75.75,0,0,0,78,36.45c-.1.08,0,0,.06-.05l-.24.18c-.28.18-.56.32-.85.47,0,0-.13.05,0,0l-.15.06-.27.1a5.28,5.28,0,0,1-.66.16c.13,0,0,0,0,0l-.22,0h-.48s-.19,0-.06,0a2.74,2.74,0,0,1-.39-.09,3.42,3.42,0,0,1-2.16-2.09,2.14,2.14,0,0,1-.09-.34l0-.19v0a4.57,4.57,0,0,1,0-.74s0-.22,0-.11,0-.12,0-.11l.06-.27a4.21,4.21,0,0,1,.2-.63,1.34,1.34,0,0,1,.07-.18c0,.12,0,0,0,0s.08-.17.13-.25a5.2,5.2,0,0,1,.25-.46l.2-.3c0-.07.2-.26,0,0H72.34l5,5.19.71.75C78.69,38.2,79.75,37.14,79.08,36.45Z"/><path class="cls-1" d="M42.12,61.79l-4.61.27a1.73,1.73,0,0,0-1.22.58l-1.94,1.8-1.94,1.81a1.26,1.26,0,0,0-.46,1c0,1.64.07,3.29.11,4.94l.1,4.72a.76.76,0,0,0,.75.75l6.14.09,3.27,0A1.87,1.87,0,0,0,43.8,77l2.82-2.69c.56-.53,1.23-1,1.29-1.76.08-1.24.13-2.47.2-3.71a7.12,7.12,0,0,0,.06-1,1.31,1.31,0,0,0-.52-.83l-5-5a.75.75,0,0,0-1.06,1.06l5.3,5.3-.22-.53-.27,5,.22-.53L42.18,76.5l.53-.22-9.8-.13.75.75L33.45,67l-.22.53,4.48-4.19-.53.22,4.94-.29C43.08,63.24,43.09,61.74,42.12,61.79Z"/><path class="cls-1" d="M44.06,64.48l-4,3.92-.56.56A.75.75,0,0,0,40.59,70l4-3.92.56-.56a.75.75,0,0,0,0-1.06.76.76,0,0,0-1.06,0Z"/></svg>