<?xml version="1.0" encoding="UTF-8"?><svg id="Layer_1" xmlns="http://www.w3.org/2000/svg" viewBox="0 0 99.76 90.61"><defs><style>.cls-1{stroke-dasharray:0 .5;}.cls-1,.cls-2,.cls-3,.cls-4,.cls-5,.cls-6,.cls-7,.cls-8{fill:none;stroke:#0a0a0a;stroke-miterlimit:10;}.cls-1,.cls-2,.cls-3,.cls-4,.cls-5,.cls-6,.cls-8{stroke-linecap:round;}.cls-2{stroke-dasharray:0 .7;stroke-width:.25px;}.cls-9{fill:#0a0a0a;}.cls-3{stroke-dasharray:0 1;}.cls-3,.cls-4,.cls-6{stroke-width:.5px;}.cls-4{stroke-dasharray:0 0 1.05 1.05;}.cls-8{stroke-width:.75px;}</style></defs><path class="cls-7" d="M.55,13.78l.4,50.58c1.74-4.38,5.89-7.34,10.6-7.55,7.51-.25,10.95,7,10.95,7l-.32-50s-1.05-7.8-10.82-7.8c-9.24-.01-10.81,7.76-10.81,7.76Z"/><circle class="cls-7" cx="11.55" cy="67.84" r="11.16"/><line class="cls-5" x1="8.77" y1="12.45" x2="8.77" y2="49.3"/><path class="cls-5" d="M22.71,13.4h59.25c4.37,0,7.91,3.54,7.91,7.91h0v30.13"/><path class="cls-9" d="M11.36,60.4c-2.55,.54-4.65,2.32-5.61,4.74-.73,2.09-.62,4.38,.31,6.39,.62,1.38,1.71,2.49,3.08,3.13,.88,.42,1.83,.66,2.81,.69,1.08,0,1.95-.87,1.95-1.95s-.87-1.95-1.95-1.95c-.14,0-.61,0-.16,0s0,0-.18,0l-.66-.19c-.09-.05-.18-.08-.27-.1,.53,.1,.34,.14,.12,0s-.43-.26-.64-.39,.36,.34,0,0c-.11-.09-.21-.18-.3-.29,0,0-.36-.43-.13-.14s-.12-.19-.17-.29-.13-.26-.21-.39,.17,.47,0,.08l-.08-.23c0-.16-.1-.32-.14-.49,0-.09,0-.18,0-.27,0-.17-.18-.44,0,0-.08-.43-.08-.87,0-1.3v-.29c0-.42,0,.09,0,.09,0,0,.12-.55,.14-.64s.18-.38,.17-.48c0,.18-.17,.35,0,.14s.09-.17,.13-.26l.25-.38s.19-.29,0,0,0,0,.09-.09,.51-.39,.64-.6c0,0-.42,.29-.17,.13l.16-.12,.39-.25c.23-.13,.48-.23,.71-.35h-.1l.3-.1c.2-.07,.4-.12,.6-.16,1.01-.32,1.59-1.38,1.3-2.4-.33-1-1.38-1.56-2.39-1.3h.03Z"/><line class="cls-3" x1="22.5" y1="76.13" x2="62.56" y2="76.13"/><rect class="cls-7" x="41.43" y="32.83" width="28.73" height="28.73"/><rect class="cls-7" x="48.2" y="21.85" width="28.73" height="28.73"/><line class="cls-1" x1="41.43" y1="32.83" x2="48.2" y2="21.85"/><line class="cls-1" x1="70.16" y1="32.83" x2="76.92" y2="21.85"/><line class="cls-1" x1="70.16" y1="61.55" x2="76.92" y2="50.57"/><line class="cls-1" x1="41.43" y1="61.55" x2="48.2" y2="50.57"/><polygon class="cls-5" points="58.12 83.47 90.38 54.51 90.38 83.47 58.12 83.47"/><polyline class="cls-5" points="70.38 78.9 86.06 78.9 86.06 65.07"/><line class="cls-6" x1="72.03" y1="77.07" x2="72.51" y2="76.64"/><line class="cls-4" x1="73.53" y1="75.71" x2="83.23" y2="67.04"/><line class="cls-6" x1="83.74" y1="66.57" x2="84.22" y2="66.14"/><path class="cls-9" d="M99.29,83.63h-6.63l.49,.48v-31.1c-.11-.92,.19-1.83,.82-2.51,1.17-1.07,2.99-.99,4.06,.18,.5,.55,.77,1.28,.75,2.03,0,.62,1.01,.62,.97,0,0-1.36-.66-2.63-1.77-3.42-1.7-.93-3.82-.56-5.09,.9-.97,1.3-.77,2.98-.77,4.48v29.43c0,.27,.21,.49,.48,.49h6.68c.27-.04,.45-.3,.41-.57-.03-.21-.2-.37-.41-.41h0Z"/><line class="cls-2" x1="99.28" y1="54.51" x2="99.28" y2="82.21"/><circle class="cls-7" cx="95.99" cy="51.89" r=".96"/><line class="cls-8" x1="92.66" y1="56.5" x2="95.03" y2="56.5"/><line class="cls-8" x1="92.66" y1="59.21" x2="95.03" y2="59.21"/><line class="cls-8" x1="92.66" y1="61.93" x2="95.03" y2="61.93"/><line class="cls-8" x1="92.66" y1="64.64" x2="95.03" y2="64.64"/><line class="cls-8" x1="92.66" y1="67.36" x2="95.03" y2="67.36"/><line class="cls-8" x1="92.66" y1="70.08" x2="95.03" y2="70.08"/><line class="cls-8" x1="92.66" y1="72.79" x2="95.03" y2="72.79"/><line class="cls-8" x1="92.66" y1="75.51" x2="95.03" y2="75.51"/><line class="cls-8" x1="92.66" y1="78.22" x2="95.03" y2="78.22"/><line class="cls-8" x1="92.66" y1="80.94" x2="95.03" y2="80.94"/><path class="cls-9" d="M65.35,83.3v-1.81c0-.27-.22-.49-.49-.49-.27,0-.48,.23-.48,.49v1.84c0,.27,.21,.49,.48,.49,.27,0,.49-.22,.49-.49v-.04Z"/><path class="cls-9" d="M69.07,83.3v-1.16c0-.13-.05-.26-.14-.35-.1-.09-.22-.14-.35-.14-.27,0-.48,.23-.48,.49v1.16c0,.13,.05,.26,.14,.35,.09,.09,.21,.14,.34,.14,.27,0,.49-.22,.49-.49Z"/><path class="cls-9" d="M72.62,83.3v-1.81c.04-.27-.14-.52-.41-.57-.27-.04-.52,.14-.57,.41,0,.05,0,.11,0,.16v1.84c-.04,.27,.14,.52,.41,.57,.27,.04,.52-.14,.57-.41,0-.05,0-.11,0-.16v-.04Z"/><path class="cls-9" d="M76.33,83.3v-1.16c0-.13-.05-.26-.14-.35-.09-.09-.21-.14-.34-.14-.27,0-.49,.22-.49,.49v1.16c0,.13,.05,.26,.14,.35,.1,.09,.22,.14,.35,.14,.27,0,.48-.23,.48-.49Z"/><path class="cls-9" d="M79.87,83.3v-1.81c.04-.27-.14-.52-.41-.57-.27-.04-.52,.14-.57,.41,0,.05,0,.11,0,.16v1.84c0,.27,.21,.49,.48,.49,.27,0,.49-.22,.49-.49v-.04Z"/><path class="cls-9" d="M86.78,83.3v-1.81c0-.27-.22-.49-.49-.49-.27,0-.48,.23-.48,.49v1.84c0,.27,.21,.49,.48,.49,.27,0,.49-.22,.49-.49v-.04Z"/><path class="cls-9" d="M83.58,83.3v-1.16c0-.13-.05-.26-.14-.35-.1-.09-.22-.14-.35-.14-.27,0-.48,.23-.48,.49v1.16c0,.13,.05,.26,.14,.35,.09,.09,.21,.14,.34,.14,.27,0,.49-.22,.49-.49Z"/></svg>