<svg id="Layer_1" data-name="Layer 1" xmlns="http://www.w3.org/2000/svg" viewBox="0 0 99.76 90.61"><defs><style>.cls-1{fill:#0a0a0a;}.cls-2,.cls-3,.cls-4,.cls-5{fill:none;stroke:#0a0a0a;stroke-width:0.5px;}.cls-2,.cls-5{stroke-miterlimit:10;}.cls-3,.cls-5{stroke-linecap:round;}.cls-3,.cls-4{stroke-linejoin:round;}</style></defs><path class="cls-1" d="M42.39,21.64H18.29a.38.38,0,0,0-.38.37V43.14a.38.38,0,0,0,.38.37H42a.38.38,0,0,0,0-.75H18.29l.37.38V22l-.37.38h24.1a.38.38,0,0,0,0-.75Z"/><path class="cls-2" d="M42.21,48.87V22h2.32s.77,5.35,5.08,5.12,5-5.12,5-5.12h2.16V48.87"/><path class="cls-3" d="M40.84,48.87H58.23a1,1,0,0,1,1,1V82a1.69,1.69,0,0,1-1.69,1.69H41.57A1.69,1.69,0,0,1,39.88,82V49.83A1,1,0,0,1,40.84,48.87Z"/><rect class="cls-2" x="42.21" y="51.39" width="14.08" height="15.48" rx="1.02"/><rect class="cls-2" x="42.21" y="56.68" width="14.08" height="10.19" rx="1.02"/><rect class="cls-4" x="37.48" y="52.98" width="2.41" height="26.11"/><rect class="cls-4" x="59.18" y="52.98" width="2.41" height="26.11"/><path class="cls-1" d="M56.93,22.39H81.47L81.1,22V43.14l.37-.38H56.93a.38.38,0,0,0,0,.75H81.47a.38.38,0,0,0,.38-.37V22a.38.38,0,0,0-.38-.37H56.93a.38.38,0,0,0,0,.75Z"/><path class="cls-1" d="M41,22V19.5l-.37.37H58.44l-.38-.37L58,22a.38.38,0,0,0,.75,0l0-2.51a.37.37,0,0,0-.37-.38H40.63a.38.38,0,0,0-.38.38V22A.38.38,0,0,0,41,22Z"/><polyline class="cls-5" points="44.45 48.87 44.45 28.36 51.63 28.36"/><line class="cls-5" x1="44.45" y1="30.59" x2="48.04" y2="30.59"/><path class="cls-1" d="M40.63,24.8H35.45a.15.15,0,0,0,0,.3h5.18a.15.15,0,0,0,0-.3Z"/><path class="cls-1" d="M20.85,41.32h6.21a.38.38,0,0,0,0-.75H20.85a.38.38,0,0,0,0,.75Z"/><path class="cls-1" d="M29,41.32h3.82a.38.38,0,0,0,0-.75H29a.38.38,0,0,0,0,.75Z"/><path class="cls-1" d="M63.94,41.32h8.44a.38.38,0,0,0,0-.75H63.94a.38.38,0,0,0,0,.75Z"/><path class="cls-1" d="M73.87,41.32h4.66a.38.38,0,0,0,0-.75H73.87a.38.38,0,0,0,0,.75Z"/><path class="cls-1" d="M78.34,30.55h3.13a.38.38,0,0,0,0-.75H78.34a.38.38,0,0,0,0,.75Z"/><path class="cls-1" d="M57.13,25.33h6.25a.38.38,0,0,0,0-.75H57.13a.38.38,0,0,0,0,.75Z"/><line class="cls-5" x1="44.45" y1="32.92" x2="48.04" y2="32.92"/><line class="cls-5" x1="44.45" y1="35.02" x2="48.04" y2="35.02"/><line class="cls-5" x1="44.45" y1="36.93" x2="48.04" y2="36.93"/><line class="cls-5" x1="44.45" y1="41.18" x2="48.04" y2="41.18"/><line class="cls-5" x1="44.45" y1="43.14" x2="48.04" y2="43.14"/><line class="cls-5" x1="44.45" y1="45.37" x2="48.04" y2="45.37"/><line class="cls-5" x1="44.45" y1="47.47" x2="48.04" y2="47.47"/><line class="cls-5" x1="44.45" y1="39.08" x2="51.63" y2="39.08"/><path class="cls-1" d="M18.29,25.33c2.16,0,4.33-.08,6.48,0a2.64,2.64,0,0,1,1.7.52,2.38,2.38,0,0,1,.5,2.08,2.13,2.13,0,0,1-1.32,1.73,4.59,4.59,0,0,1-1.11.05l-3,0a.38.38,0,0,0,0,.75l3,0a4.79,4.79,0,0,0,1.31-.08,2.67,2.67,0,0,0,1.67-1.66c.55-1.42.19-3.33-1.35-3.9a5.58,5.58,0,0,0-2-.24H18.29a.38.38,0,0,0,0,.75Z"/><path class="cls-1" d="M81.47,24.58H76a7.7,7.7,0,0,0-3.24.39,2.73,2.73,0,0,0-1.57,2.91,2.84,2.84,0,0,0,2.78,2.58.38.38,0,0,0,0-.75,2.16,2.16,0,0,1-.05-4.31,15.43,15.43,0,0,1,2.72-.07h4.87a.38.38,0,0,0,0-.75Z"/><path class="cls-1" d="M39.83,43c-1.69-2.24-2.63-5.6-1.19-8.18a8.34,8.34,0,0,1,3.5-3.13c.43-.23,0-.87-.37-.65-2.35,1.25-4.3,3.22-4.56,6a9.41,9.41,0,0,0,1.29,5.28,8.25,8.25,0,0,0,.68,1.09c.29.38.94,0,.65-.38Z"/><path class="cls-1" d="M60,43.33c1.83-2.54,2.58-6.27.9-9A9.37,9.37,0,0,0,57.12,31c-.42-.22-.8.42-.38.65,2.23,1.19,4.15,3.06,4.31,5.71A9,9,0,0,1,59.87,42a8.55,8.55,0,0,1-.56.91c-.28.39.37.76.65.38Z"/><path class="cls-1" d="M18.36,34.47h4.41c1.2,0,2.43.07,3.63,0a8.66,8.66,0,0,0,3.91-1.34,6,6,0,0,0,2.68-6,9,9,0,0,0-3-5.4c-.37-.32-.9.21-.53.53,3,2.62,4.21,7.91.3,10.3-2.19,1.33-4.39,1.14-6.85,1.14H18.36a.38.38,0,0,0,0,.75Z"/><path class="cls-1" d="M81.47,33.72c-2.71,0-5.46.13-8.17,0-3.2-.17-6.27-2.43-6.21-5.82a8,8,0,0,1,2.68-5.58c.36-.33-.17-.85-.53-.53-3.14,2.79-4.23,8.29-.49,11.05A8.94,8.94,0,0,0,73,34.44a30.46,30.46,0,0,0,3.31,0h5.12a.38.38,0,0,0,0-.75Z"/><path class="cls-1" d="M18.36,39c4.07,0,8.67.57,12.5-1.07a11,11,0,0,0,3.36-2.22A25.31,25.31,0,0,0,37,31.79a7,7,0,0,1,5.1-3.15c.48,0,.48-.77,0-.75A7.14,7.14,0,0,0,38,29.65a15.52,15.52,0,0,0-2.8,3.73,10.5,10.5,0,0,1-3.66,3.41c-3.88,2.15-8.89,1.51-13.16,1.47a.38.38,0,0,0,0,.75Z"/><path class="cls-1" d="M81.47,38.26c-4.4,0-9.55.69-13.57-1.48a10.64,10.64,0,0,1-3.85-3.54,14.09,14.09,0,0,0-2.84-3.62,7.51,7.51,0,0,0-4.28-1.73c-.48,0-.48.73,0,.75a7.2,7.2,0,0,1,4.94,2.66c1.15,1.35,1.82,3,3.09,4.24a11.49,11.49,0,0,0,3.56,2.37c4,1.69,8.74,1.14,13,1.1a.38.38,0,0,0,0-.75Z"/></svg>