<svg id="Layer_1" data-name="Layer 1" xmlns="http://www.w3.org/2000/svg" viewBox="0 0 99.76 90.61"><defs><style>.cls-1{fill:#0a0a0a;}</style></defs><path class="cls-1" d="M39.25,73.37H36.79c-.5,0-1.74.25-2-.33a5.77,5.77,0,0,1,0-1.76V31.62a7.59,7.59,0,0,1,0-2c.18-.54.72-.4,1.2-.4a14,14,0,0,1,3,0c.74.17.53.81.53,1.45V70.07a19.38,19.38,0,0,1,0,2.64c0,.32.15.53-.38.67a.3.3,0,0,0,.16.58c.92-.25.82-1,.82-1.76V31.29a13.22,13.22,0,0,0,0-1.78c-.1-.68-.51-.87-1.13-.91-1-.08-2.1,0-3.14,0s-1.65.16-1.69,1.25,0,1.9,0,2.85V70.33c0,.84-.06,1.7,0,2.54.09,1.33,1.33,1.1,2.36,1.1h2.7A.3.3,0,0,0,39.25,73.37Z"/><path class="cls-1" d="M44.63,73.37H42.28c-.49,0-1.87.27-2.13-.29a5.2,5.2,0,0,1,0-1.67V31.65a7.63,7.63,0,0,1,0-2.08c.17-.5.66-.37,1.12-.37a20.43,20.43,0,0,1,3,0c.81.12.6.64.6,1.34V70.1a17.9,17.9,0,0,1,0,2.64c0,.3.15.51-.35.64a.3.3,0,0,0,.16.58c.9-.25.79-1,.79-1.73v-41a11.1,11.1,0,0,0,0-1.73c-.11-.69-.52-.83-1.13-.87-1.06-.08-2.15,0-3.2,0s-1.59.17-1.62,1.22,0,1.95,0,2.92V70.42c0,.83-.07,1.69,0,2.51.11,1.34,1.48,1,2.49,1h2.59A.3.3,0,0,0,44.63,73.37Z"/><path class="cls-1" d="M49.93,73.37H47.51c-.51,0-1.76.25-2-.36a6.1,6.1,0,0,1,0-1.76V31.65a8,8,0,0,1,0-2c.18-.56.73-.43,1.22-.43a14.23,14.23,0,0,1,3,0c.77.18.55.83.55,1.48V70a19.38,19.38,0,0,1,0,2.64c0,.33.16.54-.41.7A.3.3,0,0,0,50,74c1-.26.85-1,.85-1.79V31.31a13.07,13.07,0,0,0,0-1.77c-.1-.69-.52-.9-1.15-.94-1-.08-2.07,0-3.09,0s-1.68.18-1.72,1.29c0,.94,0,1.89,0,2.84V70.31c0,.83-.06,1.69,0,2.52C45,74.19,46.22,74,47.27,74h2.66A.3.3,0,0,0,49.93,73.37Z"/><path class="cls-1" d="M55.29,73.37H52.87c-.51,0-1.76.25-2-.36a5.77,5.77,0,0,1,0-1.76V31.65a7.59,7.59,0,0,1,0-2c.18-.56.72-.43,1.21-.43a14.32,14.32,0,0,1,3,0c.76.18.54.83.54,1.48V70.05a19.24,19.24,0,0,1,0,2.63c0,.33.17.55-.4.7a.3.3,0,0,0,.16.58c.94-.26.84-1,.84-1.79V31.31a13.07,13.07,0,0,0,0-1.77c-.09-.7-.51-.9-1.14-.94-1-.08-2.08,0-3.1,0s-1.67.18-1.71,1.28,0,1.9,0,2.84V70.31c0,.83-.06,1.69,0,2.53.09,1.35,1.32,1.13,2.37,1.13h2.66A.3.3,0,0,0,55.29,73.37Z"/><path class="cls-1" d="M60.63,73.37h-2.4c-.53,0-1.76.25-2-.38a5.76,5.76,0,0,1,0-1.71V31.68a8.11,8.11,0,0,1,0-2c.19-.58.73-.45,1.23-.45a14,14,0,0,1,3,0c.77.17.56.81.56,1.46V70.08a18.51,18.51,0,0,1,0,2.58c0,.33.17.6-.42.72-.38.08-.22.65.16.58.94-.19.86-1,.86-1.73V31.29a11.23,11.23,0,0,0,0-1.74,1,1,0,0,0-1.1-.95c-1-.09-2.1,0-3.13,0s-1.68.14-1.73,1.25c0,.95,0,1.9,0,2.84V70.34c0,.83,0,1.68,0,2.52C55.7,74.2,57,74,58,74h2.64A.3.3,0,0,0,60.63,73.37Z"/><path class="cls-1" d="M65.93,73.37H63.46c-.55,0-1.64.23-1.89-.44a6.46,6.46,0,0,1,0-1.81V31.73a8.11,8.11,0,0,1,0-2c.19-.63.79-.5,1.32-.5a11.34,11.34,0,0,1,2.91,0c.74.22.53,1,.53,1.6V70a20.19,20.19,0,0,1,0,2.58c0,.35.18.64-.48.77-.38.08-.22.65.16.58,1-.2.92-1,.92-1.79V31.39a13.22,13.22,0,0,0,0-1.78c-.23-1.62-3-1-4.14-1S61,28.75,61,29.91c0,.92,0,1.85,0,2.76V70.22c0,.84,0,1.7,0,2.54.08,1.35,1.2,1.21,2.25,1.21h2.71A.3.3,0,0,0,65.93,73.37Z"/><rect class="cls-1" x="27.19" y="32.51" width="7.04" height="1.98"/><rect class="cls-1" x="28.26" y="32.12" width="3.7" height="3.24"/><rect class="cls-1" x="28.45" y="32" width="3.3" height="2.13"/><rect class="cls-1" x="29.13" y="29.91" width="1.87" height="2.99"/><rect class="cls-1" x="28.26" y="68.18" width="3.7" height="3.24"/><rect class="cls-1" x="27.19" y="68.81" width="7.04" height="1.98"/><polygon class="cls-1" points="29.37 29.94 27.39 28.78 27.39 30.78 29.37 30.78 29.37 29.94"/><polygon class="cls-1" points="30.84 29.94 32.83 28.78 32.83 30.78 30.84 30.78 30.84 29.94"/><rect class="cls-1" x="29.62" y="29.44" width="0.98" height="0.56"/><rect class="cls-1" x="29.13" y="66.1" width="1.87" height="2.99"/><polygon class="cls-1" points="29.37 66.13 27.39 64.96 27.39 66.96 29.37 66.96 29.37 66.13"/><polygon class="cls-1" points="30.84 66.13 32.83 64.96 32.83 66.96 30.84 66.96 30.84 66.13"/><rect class="cls-1" x="29.62" y="65.63" width="0.98" height="0.56"/><path class="cls-1" d="M42.51,25a3.14,3.14,0,0,1-.92-1.86c0-.71.56-1.28,1-1.77a3,3,0,0,0,.84-1.55,3.08,3.08,0,0,0-1-2.24c-.13-.15-.34.07-.21.21A2.4,2.4,0,0,1,43,20.14a6.46,6.46,0,0,1-1.17,1.59,2,2,0,0,0-.5,1.82,4.17,4.17,0,0,0,.94,1.63c.13.14.34-.07.22-.21Z"/><path class="cls-1" d="M58.31,25a3.2,3.2,0,0,1-.92-1.86c0-.71.56-1.28,1-1.77a3,3,0,0,0,.84-1.55,3,3,0,0,0-1-2.24c-.12-.15-.33.07-.21.21a2.43,2.43,0,0,1,.83,2.38,6.77,6.77,0,0,1-1.18,1.59,2,2,0,0,0-.49,1.82,4.05,4.05,0,0,0,.94,1.63c.13.14.34-.07.21-.21Z"/><path class="cls-1" d="M50.87,26.47A3.26,3.26,0,0,1,50,24.61c0-.7.56-1.27,1-1.77a3,3,0,0,0,.84-1.55,3.09,3.09,0,0,0-1-2.24c-.13-.14-.34.07-.22.22a2.43,2.43,0,0,1,.83,2.38,6.77,6.77,0,0,1-1.18,1.59,2,2,0,0,0-.49,1.81,4.21,4.21,0,0,0,.94,1.64c.13.14.34-.07.21-.22Z"/></svg>