<svg id="Layer_1" data-name="Layer 1" xmlns="http://www.w3.org/2000/svg" viewBox="0 0 99.76 90.61"><defs><style>.cls-1{fill:#343436;}</style></defs><path class="cls-1" d="M79,78.49H26.21l.75.75V71l-.75.75H79L78.23,71v8.28a.75.75,0,0,0,1.5,0V71a.77.77,0,0,0-.75-.75H26.21a.76.76,0,0,0-.75.75v8.28a.77.77,0,0,0,.75.75H79A.75.75,0,0,0,79,78.49Z"/><path class="cls-1" d="M73.15,70.21H31.27L32,71V34.52c0-3.57-.05-7,1.17-10.47a20.19,20.19,0,0,1,35.57-4.77c2.77,4,3.64,8.43,3.64,13.16V71a.75.75,0,0,0,1.5,0V33.52c0-4.17-.29-8.17-2.12-12a21.69,21.69,0,0,0-36.32-4.42,22.63,22.63,0,0,0-4.94,14.67V71a.76.76,0,0,0,.75.75H73.15A.75.75,0,0,0,73.15,70.21Z"/><path class="cls-1" d="M65.94,63.13H40.06l.75.75V46.94c0-5.81-.06-11.62,0-17.42A11.89,11.89,0,0,1,51.37,17.8c5.67-.57,11.3,2.29,13.19,7.89.79,2.32.63,4.76.63,7.17V43.72c0,6.58-.13,13.18,0,19.77,0,.13,0,.26,0,.39a.75.75,0,0,0,1.5,0v-30a39.21,39.21,0,0,0-.22-6.77A13.4,13.4,0,0,0,54.64,16.3,13.81,13.81,0,0,0,41,23c-1.57,2.78-1.71,5.71-1.71,8.79V42.5c0,7-.12,14,0,21,0,.14,0,.28,0,.42a.77.77,0,0,0,.75.75H65.94A.75.75,0,0,0,65.94,63.13Z"/><path class="cls-1" d="M40.4,42.23H51.23l-.75-.75v22a.75.75,0,0,0,1.5,0v-22a.76.76,0,0,0-.75-.75H40.4a.75.75,0,0,0,0,1.5Z"/><path class="cls-1" d="M65.47,40.73H54.77a.77.77,0,0,0-.75.75v22a.75.75,0,0,0,1.5,0v-22l-.75.75h10.7a.75.75,0,0,0,0-1.5Z"/><path class="cls-1" d="M40.77,37.3H65.1a.75.75,0,0,0,0-1.5H40.77a.75.75,0,0,0,0,1.5Z"/><path class="cls-1" d="M58.4,31.54l4.13-4.23c1.35-1.38-.77-3.5-2.12-2.12l-4.14,4.23c-1.35,1.38.77,3.51,2.13,2.12Z"/><path class="cls-1" d="M56,27.21l2.27-2.32a1.5,1.5,0,0,0-2.12-2.12l-2.27,2.31A1.5,1.5,0,0,0,56,27.21Z"/></svg>