<?xml version="1.0" encoding="UTF-8"?><svg id="Layer_1" xmlns="http://www.w3.org/2000/svg" viewBox="0 0 99.76 90.61"><defs><style>.cls-1{stroke-linejoin:round;}.cls-1,.cls-2,.cls-3{fill:none;stroke:#0a0a0a;}.cls-4{fill:#0a0a0a;}.cls-2{stroke-width:.5px;}.cls-2,.cls-3{stroke-linecap:round;stroke-miterlimit:10;}.cls-3{stroke-width:.75px;}</style></defs><line class="cls-3" x1="63.98" y1="28.78" x2="73.9" y2="28.78"/><line class="cls-3" x1="63.98" y1="25.91" x2="73.9" y2="25.91"/><line class="cls-3" x1="63.98" y1="31.65" x2="73.9" y2="31.65"/><line class="cls-3" x1="63.98" y1="34.23" x2="73.9" y2="34.23"/><line class="cls-3" x1="63.98" y1="36.59" x2="73.9" y2="36.59"/><line class="cls-3" x1="63.98" y1="41.81" x2="73.9" y2="41.81"/><line class="cls-3" x1="63.98" y1="44.21" x2="73.9" y2="44.21"/><line class="cls-3" x1="63.98" y1="46.96" x2="73.9" y2="46.96"/><line class="cls-3" x1="63.98" y1="49.54" x2="73.9" y2="49.54"/><line class="cls-3" x1="63.98" y1="52.13" x2="73.9" y2="52.13"/><line class="cls-3" x1="63.98" y1="54.71" x2="73.9" y2="54.71"/><line class="cls-3" x1="63.98" y1="57.29" x2="73.9" y2="57.29"/><line class="cls-3" x1="63.98" y1="39.22" x2="73.9" y2="39.22"/><path class="cls-1" d="M54.84,32.07H.49v36.66H68.4s5.5,0,5.5-4.77c0-2.88-2.72-4.56-5.08-4.95-13.47-2.23-13.97,4.95-13.97,4.95V25.92s1.73-4.53,9.52-4.55c8.18,0,9.54,4.55,9.54,4.55V63.89"/><path class="cls-4" d="M68.08,69.15h21.29c1.97,.16,3.95,.1,5.9-.18,1.89-.28,3.5-1.52,4.25-3.28,.64-2.15-.09-4.47-1.85-5.85-2.35-1.83-5.33-1.36-8.1-1.36h-6.01c-.7,.06-1.4-.07-2.03-.36-2.54-1.27-2.92-5.08-2.54-7.62,.27-2.03,1.38-3.99,3.58-4.22,3.02-.3,6.16,.11,9.21,0,3.81-.14,5.08-6.26,1.74-8.05-1.11-.42-2.31-.55-3.49-.39h-6.02l.13,.93c1.59-.23,2.99-1.16,3.81-2.54,.7-1.84-.23-3.89-2.07-4.58-.03-.01-.07-.03-.11-.04-1.92-.75-4.25-.43-6.26-.42h-5.68c-.26,.04-.44,.29-.4,.55,.03,.2,.19,.36,.4,.4,2.98,0,5.97-.1,8.89-.09,1.93,0,4.83,.6,4.41,3.21-.23,1.49-2.03,2.21-3.36,2.48-.53,.1-.39,.94,.13,.94h4.77c1.18-.11,2.37-.11,3.56,0,2.54,.52,2.65,5.08,.52,6.25-.91,.3-1.87,.39-2.82,.25h-5.97c-.73-.04-1.45,0-2.17,.11-4.41,1.05-4.6,7.33-3.14,10.7,.79,2,2.76,3.29,4.91,3.21,3.47,0,7.02-.23,10.48,0,1.21,.08,2.36,.55,3.28,1.35,1.73,1.44,1.95,4.02,.51,5.74-.41,.49-.93,.88-1.51,1.13-1.84,.59-3.79,.78-5.71,.56h-22.53c-.26,.04-.44,.29-.4,.55,.03,.2,.19,.36,.4,.4v.2Z"/><line class="cls-2" x1="5" y1="34.23" x2="3.82" y2="35.41"/><line class="cls-2" x1="8.86" y1="33.57" x2="2.35" y2="40.44"/><line class="cls-2" x1="11.5" y1="34.23" x2="10.33" y2="35.41"/><line class="cls-2" x1="15.19" y1="33.49" x2="8.8" y2="40.62"/><line class="cls-2" x1="9.53" y1="36.3" x2="5" y2="41.16"/><line class="cls-2" x1="4.15" y1="42.15" x2="2.97" y2="43.33"/><line class="cls-2" x1="8.02" y1="41.57" x2="2.35" y2="47.92"/><line class="cls-2" x1="18" y1="33.9" x2="1.72" y2="51.53"/><line class="cls-2" x1="21.15" y1="34.46" x2="2.7" y2="54.43"/><line class="cls-2" x1="25.54" y1="34.23" x2="2.65" y2="58.98"/><line class="cls-2" x1="28.86" y1="34.38" x2="2.92" y2="62.42"/><line class="cls-2" x1="31.93" y1="34.7" x2="2.92" y2="66.12"/><line class="cls-2" x1="36.39" y1="34.7" x2="7.37" y2="66.12"/><line class="cls-2" x1="40.45" y1="34.83" x2="11.44" y2="66.26"/><line class="cls-2" x1="49.31" y1="66.24" x2="50.49" y2="65.06"/><line class="cls-2" x1="45.48" y1="66.84" x2="51.99" y2="59.95"/><line class="cls-2" x1="42.8" y1="66.24" x2="43.98" y2="65.06"/><line class="cls-2" x1="38.99" y1="66.85" x2="45.39" y2="59.72"/><line class="cls-2" x1="44.77" y1="64.17" x2="49.31" y2="59.31"/><line class="cls-2" x1="50.16" y1="58.32" x2="51.33" y2="57.15"/><line class="cls-2" x1="46.16" y1="58.79" x2="52.86" y2="51.53"/><line class="cls-2" x1="35.98" y1="66.24" x2="52.46" y2="47.76"/><line class="cls-2" x1="31.21" y1="66.94" x2="53.06" y2="42.04"/><line class="cls-2" x1="26.95" y1="66.54" x2="52.55" y2="37.94"/><line class="cls-2" x1="23.49" y1="66.39" x2="52.74" y2="34.7"/><line class="cls-2" x1="20.34" y1="66.07" x2="50" y2="33.87"/><line class="cls-2" x1="15.88" y1="66.07" x2="45.53" y2="33.87"/></svg>