<?xml version="1.0" encoding="UTF-8"?><svg id="Layer_1" xmlns="http://www.w3.org/2000/svg" viewBox="0 0 99.76 90.61"><defs><style>.cls-1{fill:#0a0a0a;}.cls-2,.cls-3{stroke-linecap:round;}.cls-2,.cls-3,.cls-4,.cls-5{fill:none;stroke:#0a0a0a;stroke-width:.5px;}.cls-2,.cls-5{stroke-miterlimit:10;}.cls-3,.cls-4{stroke-linejoin:round;}</style></defs><path class="cls-1" d="M39.37,3.55H5.56c-.29,0-.53,.23-.53,.52v29.65c0,.29,.24,.52,.53,.52H38.82c.29-.05,.49-.32,.44-.61-.04-.23-.21-.4-.44-.44H5.56l.52,.53V4.05l-.52,.53H39.37c.29-.05,.49-.32,.44-.61-.04-.23-.21-.4-.44-.44h0Z"/><path class="cls-5" d="M39.12,41.76V4.05h3.26s1.08,7.51,7.13,7.18,7.02-7.18,7.02-7.18h3.03V41.76"/><path class="cls-3" d="M37.2,41.76h24.4c.77,0,1.4,.63,1.4,1.4v45.08c0,1.31-1.06,2.37-2.37,2.37h-22.41c-1.31,0-2.37-1.06-2.37-2.37h0V43.1c.03-.73,.62-1.32,1.35-1.35Z"/><rect class="cls-5" x="39.12" y="45.29" width="19.76" height="21.72" rx="1.43" ry="1.43"/><rect class="cls-5" x="39.12" y="52.71" width="19.76" height="14.3" rx="1.43" ry="1.43"/><rect class="cls-4" x="32.48" y="47.52" width="3.38" height="36.63"/><rect class="cls-4" x="62.93" y="47.52" width="3.38" height="36.63"/><path class="cls-1" d="M59.77,4.6h34.43l-.52-.55v29.66l.52-.53H59.77c-.29,.05-.49,.32-.44,.61,.04,.23,.21,.4,.44,.44h34.43c.29,0,.53-.23,.53-.52V4.05c0-.29-.24-.52-.53-.52H59.77c-.29,.05-.49,.32-.44,.61,.04,.23,.21,.4,.44,.44h0Z"/><path class="cls-1" d="M37.42,4.05V.55l-.52,.52h24.99l-.53-.52-.08,3.51c.05,.29,.32,.49,.61,.44,.23-.04,.4-.21,.44-.44V.53c0-.29-.22-.53-.5-.53,0,0,0,0-.01,0h-24.9C36.61,0,36.37,.24,36.37,.53h0v3.52c.05,.29,.32,.49,.61,.44,.23-.04,.4-.21,.44-.44Z"/><polyline class="cls-2" points="42.26 41.76 42.26 12.98 52.34 12.98"/><line class="cls-2" x1="42.26" y1="16.11" x2="47.3" y2="16.11"/><path class="cls-1" d="M36.9,7.98h-7.27c-.12,0-.21,.09-.21,.21,0,.12,.09,.21,.21,.21h7.27c.12,0,.21-.09,.21-.21,0-.12-.09-.21-.21-.21Z"/><path class="cls-1" d="M9.15,31.16h8.71c.29-.05,.49-.32,.44-.61-.04-.23-.21-.4-.44-.44H9.15c-.29,.05-.49,.32-.44,.61,.04,.23,.21,.4,.44,.44Z"/><path class="cls-1" d="M20.58,31.16h5.36c.29-.05,.49-.32,.44-.61-.04-.23-.21-.4-.44-.44h-5.36c-.29,.05-.49,.32-.44,.61,.04,.23,.21,.4,.44,.44Z"/><path class="cls-1" d="M69.61,31.16h11.84c.29-.05,.49-.32,.44-.61-.04-.23-.21-.4-.44-.44h-11.84c-.29,.05-.49,.32-.44,.61,.04,.23,.21,.4,.44,.44Z"/><path class="cls-1" d="M83.54,31.16h6.54c.29-.05,.49-.32,.44-.61-.04-.23-.21-.4-.44-.44h-6.54c-.29,.05-.49,.32-.44,.61,.04,.23,.21,.4,.44,.44Z"/><path class="cls-1" d="M89.81,16.05h4.39c.29-.05,.49-.32,.44-.61-.04-.23-.21-.4-.44-.44h-4.39c-.29,.05-.49,.32-.44,.61,.04,.23,.21,.4,.44,.44Z"/><path class="cls-1" d="M60.05,8.73h8.77c.29-.05,.49-.32,.44-.61-.04-.23-.21-.4-.44-.44h-8.77c-.29,.05-.49,.32-.44,.61,.04,.23,.21,.4,.44,.44Z"/><line class="cls-2" x1="42.26" y1="19.38" x2="47.3" y2="19.38"/><line class="cls-2" x1="42.26" y1="22.32" x2="47.3" y2="22.32"/><line class="cls-2" x1="42.26" y1="25" x2="47.3" y2="25"/><line class="cls-2" x1="42.26" y1="30.97" x2="47.3" y2="30.97"/><line class="cls-2" x1="42.26" y1="33.72" x2="47.3" y2="33.72"/><line class="cls-2" x1="42.26" y1="36.84" x2="47.3" y2="36.84"/><line class="cls-2" x1="42.26" y1="39.79" x2="47.3" y2="39.79"/><line class="cls-2" x1="42.26" y1="28.02" x2="52.34" y2="28.02"/><path class="cls-1" d="M5.56,8.73c3.03,0,6.08-.11,9.09,0,.86-.04,1.7,.22,2.39,.73,.68,.81,.94,1.89,.7,2.92-.13,1.09-.84,2.02-1.85,2.43-.51,.09-1.04,.11-1.56,.07h-4.21c-.29,.05-.49,.32-.44,.61,.04,.23,.21,.4,.44,.44h4.21c.61,.05,1.23,0,1.84-.11,1.1-.37,1.97-1.23,2.34-2.33,.77-1.99,.27-4.67-1.89-5.47-.91-.28-1.86-.4-2.81-.34H5.56c-.29,.05-.49,.32-.44,.61,.04,.23,.21,.4,.44,.44Z"/><path class="cls-1" d="M94.2,7.67h-7.67c-1.54-.14-3.09,.04-4.55,.55-1.57,.71-2.47,2.38-2.2,4.08,.19,2.03,1.87,3.59,3.9,3.62,.29-.05,.49-.32,.44-.61-.04-.23-.21-.4-.44-.44-1.67-.09-2.95-1.52-2.86-3.19,.08-1.51,1.28-2.73,2.79-2.85,1.27-.15,2.54-.18,3.82-.1h6.83c.29-.05,.49-.32,.44-.61-.04-.23-.21-.4-.44-.44h-.06Z"/><path class="cls-1" d="M35.78,33.52c-2.37-3.14-3.69-7.86-1.67-11.48,1.18-1.9,2.89-3.43,4.91-4.39,.6-.32,0-1.22-.52-.91-3.3,1.75-6.03,4.52-6.4,8.42-.14,2.59,.49,5.17,1.81,7.41,.28,.53,.6,1.05,.95,1.53,.41,.53,1.32,0,.91-.53v-.04Z"/><path class="cls-1" d="M64.08,33.98c2.57-3.56,3.62-8.8,1.26-12.63-1.31-2.01-3.14-3.63-5.3-4.67-.59-.31-1.12,.59-.53,.91,3.13,1.67,5.82,4.29,6.05,8.01,.05,2.28-.53,4.53-1.66,6.51-.24,.44-.5,.87-.79,1.28-.39,.55,.52,1.07,.91,.53l.06,.06Z"/><path class="cls-1" d="M5.66,21.55h6.19c1.68,0,3.41,.1,5.09,0,1.95-.17,3.84-.82,5.49-1.88,2.82-1.81,4.29-5.11,3.76-8.42-.47-2.94-1.96-5.63-4.21-7.58-.52-.45-1.26,.29-.74,.74,4.21,3.68,5.91,11.1,.42,14.45-3.07,1.87-6.16,1.6-9.61,1.6H5.66c-.29,.05-.49,.32-.44,.61,.04,.23,.21,.4,.44,.44v.03Z"/><path class="cls-1" d="M94.2,20.5c-3.8,0-7.66,.18-11.46,0-4.49-.24-8.8-3.41-8.71-8.17,.15-3.01,1.51-5.83,3.76-7.83,.51-.46-.24-1.19-.74-.74-4.41,3.91-5.93,11.63-.69,15.5,1.76,1.25,3.82,2.02,5.96,2.24,1.55,.08,3.1,.08,4.64,0h7.18c.29-.05,.49-.32,.44-.61-.04-.23-.21-.4-.44-.44l.06,.04Z"/><path class="cls-1" d="M5.66,27.91c5.71,0,12.16,.8,17.54-1.5,1.75-.74,3.35-1.8,4.71-3.11,1.47-1.71,2.78-3.55,3.9-5.5,1.6-2.47,4.23-4.09,7.16-4.42,.67,0,.67-1.08,0-1.05-2.13,.19-4.15,1.05-5.75,2.47-1.57,1.54-2.89,3.3-3.93,5.23-1.3,1.99-3.06,3.63-5.14,4.78-5.44,3.02-12.47,2.12-18.46,2.06-.29,.05-.49,.32-.44,.61,.04,.23,.21,.4,.44,.44h-.03Z"/><path class="cls-1" d="M94.2,26.87c-6.17,0-13.4,.97-19.04-2.08-2.19-1.18-4.04-2.89-5.4-4.97-1.04-1.9-2.39-3.62-3.98-5.08-1.7-1.42-3.8-2.27-6.01-2.43-.67,0-.67,1.02,0,1.05,2.72,.26,5.22,1.6,6.93,3.73,1.61,1.89,2.55,4.21,4.34,5.95,1.44,1.41,3.14,2.54,4.99,3.33,5.61,2.37,12.26,1.6,18.24,1.54,.29-.05,.49-.32,.44-.61-.04-.23-.21-.4-.44-.44h-.07Z"/></svg>