<svg id="Layer_1" data-name="Layer 1" xmlns="http://www.w3.org/2000/svg" viewBox="0 0 99.76 90.61"><path d="M28.26,52.33H12.12l.75.75V35.73l-.75.75H22.88a.75.75,0,0,0,0-1.5H12.12a.77.77,0,0,0-.75.75V53.08a.76.76,0,0,0,.75.75H28.26a.75.75,0,0,0,0-1.5Z"/><path d="M23.63,53.08V35.73l-.75.75H33.64a.75.75,0,0,0,0-1.5H22.88a.76.76,0,0,0-.75.75V53.08a.75.75,0,0,0,1.5,0Z"/><path d="M33.64,36.48H44.39a.75.75,0,0,0,0-1.5H33.64a.75.75,0,0,0,0,1.5Z"/><path d="M12.65,36.26c.33-.31.22-.87.25-1.28a8.65,8.65,0,0,1,.42-2.13,8.53,8.53,0,0,1,1.76-3.06,11.28,11.28,0,0,1,5.49-3.37A10.48,10.48,0,0,1,30.42,29a8,8,0,0,1,1.94,3.2,10.47,10.47,0,0,1,.47,2.29c.05.51-.12,1.41.28,1.79.69.68,1.75-.38,1.06-1.06h0l.22.53a11.23,11.23,0,0,0-2.53-7.41,11,11,0,0,0-5.37-3.24A12.3,12.3,0,0,0,15,27.78a10.69,10.69,0,0,0-3.59,7.95l.22-.53h0c-.69.68.37,1.74,1.06,1.06Z"/><path d="M44.39,36.48a.75.75,0,0,0,0-1.5.75.75,0,0,0,0,1.5Z"/><path d="M22.88,26.07H33.26c3.29,0,6.64-.25,9.62,1.44s4.23,4.75,4.28,8.07a.75.75,0,0,0,1.5,0,10.75,10.75,0,0,0-3.17-8,11.85,11.85,0,0,0-6.38-2.85,29.53,29.53,0,0,0-4.1-.15H22.88a.75.75,0,0,0,0,1.5Z"/><path d="M39,62.61H28.26l.75.75V46l-.75.75H39L38.27,46V63.36a.75.75,0,0,0,1.5,0V46a.77.77,0,0,0-.75-.75H28.26a.76.76,0,0,0-.75.75V63.36a.76.76,0,0,0,.75.75H39A.75.75,0,0,0,39,62.61Z"/><path d="M49.77,62.61H39l.75.75V46l-.75.75H49.77L49,46V63.36a.75.75,0,0,0,1.5,0V46a.76.76,0,0,0-.75-.75H39a.76.76,0,0,0-.75.75V63.36a.76.76,0,0,0,.75.75H49.77A.75.75,0,0,0,49.77,62.61Z"/><path d="M60.53,62.61H49.77l.75.75V46l-.75.75H60.53L59.78,46V63.36a.75.75,0,0,0,1.5,0V46a.76.76,0,0,0-.75-.75H49.77A.77.77,0,0,0,49,46V63.36a.76.76,0,0,0,.75.75H60.53A.75.75,0,0,0,60.53,62.61Z"/><path d="M71.29,62.61H60.53l.75.75V46l-.75.75H71.29L70.54,46V63.36a.75.75,0,0,0,1.5,0V46a.77.77,0,0,0-.75-.75H60.53a.76.76,0,0,0-.75.75V63.36a.76.76,0,0,0,.75.75H71.29A.75.75,0,0,0,71.29,62.61Z"/><path d="M82,62.61H71.29l.75.75V46l-.75.75H82L81.29,46V63.36a.75.75,0,0,0,1.5,0V46a.76.76,0,0,0-.75-.75H71.29a.76.76,0,0,0-.75.75V63.36a.76.76,0,0,0,.75.75H82A.75.75,0,0,0,82,62.61Z"/><path d="M28.79,46.54c.32-.31.22-.87.25-1.28a9.12,9.12,0,0,1,.41-2.13,8.83,8.83,0,0,1,1.76-3.06,11.27,11.27,0,0,1,5.5-3.37,10.48,10.48,0,0,1,9.85,2.55,8.39,8.39,0,0,1,1.94,3.21A11.09,11.09,0,0,1,49,44.75c0,.51-.13,1.4.27,1.79.7.67,1.76-.38,1.06-1.06h0l.22.53A11.28,11.28,0,0,0,48,38.6a11.09,11.09,0,0,0-5.37-3.24,12.27,12.27,0,0,0-11.53,2.7A10.66,10.66,0,0,0,27.51,46l.22-.53h0c-.7.67.36,1.73,1.06,1.06Z"/><path d="M61.06,45.48h0l.22.53a11.16,11.16,0,0,0-2.7-7.61,11.27,11.27,0,0,0-5.64-3.16,14.18,14.18,0,0,0-3.17-.39.75.75,0,0,0,0,1.5c3.77,0,7.82,1.85,9.3,5.6a10,10,0,0,1,.57,2.1q.09.62.12,1.23c0,.41-.08.95.24,1.26.69.67,1.76-.38,1.06-1.06Z"/><path d="M60.53,36.35c3.77,0,7.82,1.85,9.3,5.6a10.66,10.66,0,0,1,.56,2.1,10.26,10.26,0,0,1,.13,1.23c0,.41-.08.95.24,1.26.69.67,1.75-.38,1.06-1.06h0L72,46a11.12,11.12,0,0,0-2.71-7.61,11.19,11.19,0,0,0-5.64-3.16,14,14,0,0,0-3.16-.39.75.75,0,0,0,0,1.5Z"/><path d="M60.53,46.76a.75.75,0,0,0,0-1.5.75.75,0,0,0,0,1.5Z"/><path d="M39,36.35H67.15a50.83,50.83,0,0,1,5.38.07,10.49,10.49,0,0,1,6,2.58,8.28,8.28,0,0,1,2.16,3.35,10,10,0,0,1,.5,2.37c0,.52-.13,1.42.28,1.82.7.67,1.76-.38,1.06-1.06.37.36.2-.34.18-.58s-.06-.61-.1-.9a11.74,11.74,0,0,0-.52-2.2,10.3,10.3,0,0,0-1.7-3,10.83,10.83,0,0,0-5.13-3.31,20.78,20.78,0,0,0-6.43-.63H39a.75.75,0,0,0,0,1.5Z"/><path d="M82,64.11l10.65,0h1.53a.75.75,0,0,0,0-1.5l-10.64.05H82a.75.75,0,0,0,0,1.5Z"/></svg>