<?xml version="1.0" encoding="UTF-8"?><svg id="Layer_1" xmlns="http://www.w3.org/2000/svg" viewBox="0 0 99.76 90.61"><defs><style>.cls-1{fill:#0a0a0a;}.cls-2{fill:none;stroke:#0a0a0a;stroke-miterlimit:10;stroke-width:.25px;}</style></defs><path class="cls-1" d="M5.09,30.13H37.33c.28,0,.51-.23,.52-.52v-8.17c0-.28-.23-.51-.52-.52h-.91l.49,.65c.58-1.07,.93-2.25,1.01-3.46V.54c0-.28-.23-.51-.52-.52H5.09c-.28,0-.51,.23-.52,.52V29.61c.05,.28,.31,.47,.59,.43,.22-.04,.39-.21,.43-.43V.54l-.5,.5H37.33l-.5-.5V17.81c-.04,1.23-.37,2.44-.97,3.51-.14,.31,.19,.64,.49,.64h.98l-.5-.5v8.17l.5-.5H5.09c-.27,.08-.43,.37-.35,.64,.05,.17,.18,.3,.35,.35Z"/><path class="cls-1" d="M68.93,.54V18.35c.11,1.22,.55,2.4,1.25,3.4l.44-.78h-.78c-.29,0-.52,.23-.52,.52v8.17c0,.28,.23,.51,.52,.52h24.94c.28,0,.5-.24,.5-.52V.54c0-.28-.22-.51-.5-.52h-25.33c-.28,.05-.47,.31-.43,.59,.04,.22,.21,.39,.43,.43h25.33l-.52-.5V29.61l.52-.5h-24.94l.5,.5v-8.17l-.5,.5h.78c.29,0,.51-.24,.51-.52,0-.08-.02-.17-.06-.24l-.6-1.1-.45-.87c0-.12-.15-.45,0,0-.03-.39-.03-.79,0-1.18V.54c0-.3-.24-.54-.54-.54s-.54,.24-.54,.54Z"/><path class="cls-1" d="M36.83,.54V15.76c0,.28,.22,.51,.5,.52h32.11c.28,0,.5-.24,.5-.52V.54c0-.28-.22-.51-.5-.52H37.33c-.28,.05-.47,.31-.43,.59,.04,.22,.21,.39,.43,.43h32.11l-.52-.5V15.76l.52-.5H37.33l.52,.5V.54c-.05-.28-.31-.47-.59-.43-.22,.04-.39,.21-.43,.43Z"/><path class="cls-1" d="M36.42,21.97h34.2c.29,0,.51-.24,.51-.52,0-.08-.02-.17-.06-.24l-.74-1.36c-.14-.22-.26-.44-.35-.68-.12-.35,0,.3,0-.14-.06-1.07-.06-2.14,0-3.21,0-.28-.23-.5-.5-.5H37.33c-.28,0-.5,.23-.5,.5,.07,1.06,.07,2.13,0,3.19-.26,.82-.58,1.61-.97,2.38-.26,.6,.74,.87,.98,.27,.43-.84,.77-1.72,1.01-2.63,.08-1.1,.08-2.2,0-3.3l-.52,.52h32.11l-.52-.52c-.1,1.13-.1,2.27,0,3.4,.3,.92,.72,1.8,1.25,2.61l.44-.78H36.42c-.27,.08-.43,.37-.35,.64,.05,.17,.18,.3,.35,.35Z"/><path class="cls-1" d="M75.14,27.38h13.95c.28-.05,.47-.31,.43-.59-.04-.22-.21-.39-.43-.43h-13.95c-.28,.05-.47,.31-.43,.59,.04,.22,.21,.39,.43,.43Z"/><path class="cls-1" d="M46.33,13.43h13.93c.28-.05,.47-.31,.43-.59-.04-.22-.21-.39-.43-.43h-13.93c-.28,.05-.47,.31-.43,.59,.04,.22,.21,.39,.43,.43Z"/><path class="cls-1" d="M25.11,27.38h6.97c.28-.05,.47-.31,.43-.59-.04-.22-.21-.39-.43-.43h-6.97c-.28,.05-.47,.31-.43,.59,.04,.22,.21,.39,.43,.43Z"/><path class="cls-1" d="M9.18,27.38h6.95c.28-.05,.47-.31,.43-.59-.04-.22-.21-.39-.43-.43h-6.95c-.28,.05-.47,.31-.43,.59,.04,.22,.21,.39,.43,.43Z"/><path class="cls-1" d="M4.51,59.07v31.03c0,.28,.23,.51,.52,.52H38.24c.28,0,.5-.24,.5-.52v-31.03c0-.28-.23-.5-.5-.5H5.09c-.28,.05-.47,.31-.43,.59,.04,.22,.21,.39,.43,.43H38.24l-.46-.52v31.03l.52-.5H5.09l.5,.5v-31.03c0-.3-.24-.54-.54-.54s-.54,.24-.54,.54Z"/><path class="cls-1" d="M68.22,59.07v4.7c0,1.54,1.05,2.42,1.96,3.64l.44-.76h-1.89c-.28,0-.5,.23-.5,.5v22.95c0,.28,.22,.51,.5,.52h26.05c.28,0,.5-.24,.5-.52v-31.03c0-.28-.23-.5-.5-.5h-26.05c-.28,.05-.47,.31-.43,.59,.04,.22,.21,.39,.43,.43h26.05l-.52-.52v31.03l.52-.5h-26.05l.52,.5v-22.95l-.52,.52h1.89c.29-.01,.52-.26,.51-.55,0-.08-.02-.15-.06-.22l-1.46-1.92c-.49-.64-.37-.42-.37-1.27v-4.63c-.05-.28-.31-.47-.59-.43-.22,.04-.39,.21-.43,.43Z"/><path class="cls-1" d="M37.78,59.07v4.88c0,.86,.11,.38-.39,1.16l-1.36,2.04c-.14,.25-.04,.57,.21,.7,.07,.04,.16,.06,.24,.06h1.81l-.5-.5v22.69c0,.29,.23,.52,.52,.52h30.43c.29,0,.52-.23,.52-.52v-22.95l-.52,.52h1.89c.29-.01,.52-.26,.51-.55,0-.08-.02-.15-.06-.22l-1.36-1.89c-.53-.69-.39-.23-.39-1.16v-4.77c0-.28-.24-.5-.52-.5h-30.55c-.28,.05-.47,.31-.43,.59,.04,.22,.21,.39,.43,.43h30.48l-.5-.52c0,1.69-.07,3.4,0,5.09,0,1.27,1.21,2.25,1.96,3.24l.44-.76h-1.89c-.28,0-.5,.23-.5,.5v22.95l.5-.5h-30.48l.5,.5v-22.69c0-.28-.22-.51-.5-.52h-1.83l.44,.78c.68-1.04,1.8-2.15,1.88-3.4,.12-1.72,0-3.47,0-5.19-.11-.26-.41-.39-.68-.28-.12,.05-.22,.15-.28,.28Z"/><path class="cls-1" d="M40.23,68.97v14.29c0,.28,.23,.5,.5,.5h25.5c.28,0,.5-.23,.5-.5v-14.29c0-.28-.23-.5-.5-.5h-25.5c-.28,.05-.47,.31-.43,.59,.04,.22,.21,.39,.43,.43h25.5l-.52-.52v14.29l.52-.52h-25.5l.52,.52v-14.29c-.05-.28-.31-.47-.59-.43-.22,.04-.39,.21-.43,.43Z"/><path class="cls-1" d="M70.11,42.86v12.94c0,.28,.23,.5,.5,.5h23.67c.28,0,.5-.23,.5-.5v-12.94c0-.28-.23-.5-.5-.5h-23.67c-.28,.05-.47,.31-.43,.59,.04,.22,.21,.39,.43,.43h23.67l-.52-.52v12.94l.52-.52h-23.67l.52,.52v-12.94c-.05-.28-.31-.47-.59-.43-.22,.04-.39,.21-.43,.43Z"/><path class="cls-1" d="M72.66,45.42v7.75c0,.29,.23,.52,.52,.52h14.27c.28,0,.5-.24,.5-.52v-7.75c0-.28-.22-.51-.5-.52h-14.26c-.28,.05-.47,.31-.43,.59,.04,.22,.21,.39,.43,.43h14.26l-.52-.5v7.75l.52-.5h-14.26l.5,.5v-7.75c0-.29-.23-.52-.52-.52s-.52,.23-.52,.52Z"/><polygon class="cls-1" points="37.94 64.64 68.74 64.64 70.7 67.4 36.43 67.4 37.94 64.64"/><path class="cls-1" d="M75.14,63.17h13.95c.28-.05,.47-.31,.43-.59-.04-.22-.21-.39-.43-.43h-13.95c-.28,.05-.47,.31-.43,.59,.04,.22,.21,.39,.43,.43Z"/><path class="cls-1" d="M38.24,86.09h30.48c.28-.05,.47-.31,.43-.59-.04-.22-.21-.39-.43-.43h-30.48c-.28,.05-.47,.31-.43,.59,.04,.22,.21,.39,.43,.43Z"/><path class="cls-1" d="M4.44,58.59H95.32c.28-.05,.47-.31,.43-.59-.04-.22-.21-.39-.43-.43H4.44c-.28,.05-.47,.31-.43,.59,.04,.22,.21,.39,.43,.43Z"/><path class="cls-1" d="M25.11,63.17h7.38c.28-.05,.47-.31,.43-.59-.04-.22-.21-.39-.43-.43h-7.38c-.28,.05-.47,.31-.43,.59,.04,.22,.21,.39,.43,.43Z"/><path class="cls-1" d="M9.18,63.17h7.37c.28-.05,.47-.31,.43-.59-.04-.22-.21-.39-.43-.43h-7.37c-.28,.05-.47,.31-.43,.59,.04,.22,.21,.39,.43,.43Z"/><path class="cls-1" d="M9.07,57.16v-1.5l-.52,.5h25.41l-.5-.5v1.5c.05,.28,.31,.47,.59,.43,.22-.04,.39-.21,.43-.43v-1.5c0-.28-.23-.51-.52-.52H8.55c-.28,0-.5,.24-.5,.52v1.5c.05,.28,.31,.47,.59,.43,.22-.04,.39-.21,.43-.43Z"/><path class="cls-1" d="M38.75,57.16v-1.5l-.5,.5h30.48l-.5-.5v1.5c.05,.28,.31,.47,.59,.43,.22-.04,.39-.21,.43-.43v-1.5c0-.29-.23-.52-.52-.52h-30.48c-.29,0-.52,.23-.52,.52h0v1.5c.05,.28,.31,.47,.59,.43,.22-.04,.39-.21,.43-.43Z"/><path class="cls-1" d="M88.57,42.86v12.94c.1,.27,.4,.4,.67,.3,.14-.05,.25-.16,.3-.3v-12.94c-.05-.28-.31-.47-.59-.43-.22,.04-.39,.21-.43,.43h.05Z"/><path class="cls-1" d="M59.45,55.66v-1.36c.05-.28-.14-.55-.43-.59-.28-.05-.55,.14-.59,.43,0,.06,0,.11,0,.17v1.36c.05,.28,.31,.47,.59,.43,.22-.04,.39-.21,.43-.43Z"/><path class="cls-1" d="M61.95,55.66v-1.36c0-.28-.23-.51-.52-.52-.28,0-.5,.24-.5,.52v1.36c0,.28,.23,.5,.5,.5,.28,0,.51-.22,.52-.5Z"/><path class="cls-1" d="M64.35,55.66v-1.36c.05-.28-.14-.55-.43-.59-.28-.05-.55,.14-.59,.43,0,.06,0,.11,0,.17v1.36c0,.28,.24,.5,.52,.5,.28,0,.5-.23,.5-.5Z"/><path class="cls-1" d="M72.6,57.04v-1.24c0-.29-.23-.52-.52-.52-.28,0-.5,.24-.5,.52v1.29c0,.28,.22,.51,.5,.52,.28,0,.51-.23,.52-.52v-.05Z"/><path class="cls-1" d="M93.32,57.04v-1.24c0-.28-.22-.51-.5-.52-.29-.02-.54,.21-.56,.5,0,0,0,0,0,.01v1.29c-.05,.28,.14,.55,.43,.59,.28,.05,.55-.14,.59-.43,0-.06,0-.11,0-.17l.04-.05Z"/><path class="cls-1" d="M21.89,55.66v-3.69h1.5l-1.88-.98s.12-1.16,2.72,1.01c.14,.15,.21,.34,.19,.54v3.12h-2.53Z"/><polygon class="cls-1" points="21.89 54.63 13.18 47.56 13.14 48.55 11.44 48.55 11.44 46.51 13.96 46.51 21.89 53.13 21.89 54.63"/><rect class="cls-1" x="11.17" y="48.08" width="2.17" height="1.5" rx=".18" ry=".18"/><rect class="cls-1" x="50.6" y="61.49" width="5.65" height="1.5" rx=".23" ry=".23"/><rect class="cls-1" x="46.36" y="61.49" width="2.71" height="1.5" rx=".23" ry=".23"/><rect class="cls-1" x="57.58" y="61.49" width="2.71" height="1.5" rx=".23" ry=".23"/><rect class="cls-1" x="52.23" y="17.12" width="2.71" height="1.5" rx=".23" ry=".23"/><rect class="cls-1" x="90.61" y="46.55" width="2.21" height="1.46" rx=".22" ry=".22"/><rect class="cls-1" x="90.61" y="48.7" width="2.21" height="2.59" rx=".33" ry=".33"/><line class="cls-2" x1="21.18" y1=".54" x2="21.18" y2="29.61"/><line class="cls-2" x1="21.18" y1="59.07" x2="21.18" y2="90.09"/></svg>