<svg id="Layer_1" data-name="Layer 1" xmlns="http://www.w3.org/2000/svg" viewBox="0 0 99.76 90.61"><defs><style>.cls-1{fill:#0a0a0a;}</style></defs><path class="cls-1" d="M63.42,39.08a6.83,6.83,0,0,0-4.19-3.86,7,7,0,0,0-6.18,2.12h1.06a7.13,7.13,0,0,0-10.24,0h1.06c-3-3.62-8.56-2.37-10.35,1.74l1.4.38.59-8.08-.75.75H61.69l-.75-.75L62,39.46c.13.94,1.63.95,1.5,0l-1.08-8.08a.76.76,0,0,0-.75-.75H35.82a.77.77,0,0,0-.75.75l-.59,8.08c0,.71,1.1,1.06,1.4.38,1.41-3.25,5.59-4.37,8-1.43a.76.76,0,0,0,1.06,0,5.61,5.61,0,0,1,8.12,0,.76.76,0,0,0,1.06,0c1.17-1.24,3.32-2.19,5-1.67a5.65,5.65,0,0,1,3,3.1C62.53,40.71,63.82,40,63.42,39.08Z"/><path class="cls-1" d="M35.5,37.5,26.72,56.17l-1.26,2.69c-.28.6.36,1.51,1,1a13.15,13.15,0,0,1,15.37,0,.74.74,0,0,0,.76,0c3.54-2.52,9.22-3.48,12.61-.12a.76.76,0,0,0,1.06,0c4.06-3.9,10.85-2.35,15.22.12a.76.76,0,0,0,1-1L67.2,47.5l-3.48-7.39A14.71,14.71,0,0,0,62.13,37c-2.3-2.85-6.75-2.16-9.07.34l1.18.16c-2.42-3.17-7.77-3.09-10.36-.16l1.18.16c-2.2-3.19-7-3-9.44-.16-.63.73.43,1.8,1.06,1.07,1.76-2,5.44-2.54,7.08-.16a.76.76,0,0,0,1.18.16,5.71,5.71,0,0,1,3.65-1.75,5.13,5.13,0,0,1,3.31.72,4.82,4.82,0,0,1,.8.63c.07.06.43.49.24.24a.76.76,0,0,0,1.18.16c1.77-1.91,5.53-2.73,7.08-.15a33.28,33.28,0,0,1,1.53,3.25l6.65,14.16,1.86,3.95,1-1c-5-2.81-12.46-4.28-17,.12h1.06c-3.85-3.82-10.33-3-14.43-.12h.76a14.62,14.62,0,0,0-16.89,0l1,1,8.77-18.68,1.27-2.69C37.21,37.39,35.91,36.62,35.5,37.5Z"/><path class="cls-1" d="M43.65,37.88l-1.9,18.67-.27,2.69c-.1,1,1.4.95,1.5,0l1.9-18.68.27-2.68c.1-1-1.4-1-1.5,0Z"/><path class="cls-1" d="M52.58,37.88l1.85,17.76.27,2.56c.1.95,1.6,1,1.5,0L54.35,40.43l-.27-2.55c-.1-1-1.6-1-1.5,0Z"/><path class="cls-1" d="M31.59,49.23a9.84,9.84,0,0,1,3.35-2A8.16,8.16,0,0,1,43,48.67a.74.74,0,0,0,.9-.12,7.7,7.7,0,0,1,9.67,0,.77.77,0,0,0,.91.12c3.72-2.53,8.57-1.87,12.05.7.78.58,1.53-.72.76-1.29-3.88-2.87-9.44-3.52-13.57-.71l.91.12a9.21,9.21,0,0,0-11.79,0l.91-.12a10.15,10.15,0,0,0-13.25.8c-.71.66.35,1.72,1.06,1.06Z"/></svg>