<?xml version="1.0" encoding="UTF-8"?><svg id="Layer_1" xmlns="http://www.w3.org/2000/svg" viewBox="0 0 99.76 90.61"><defs><style>.cls-1{fill:#0a0a0a;}</style></defs><path class="cls-1" d="M80.47,32.72c-1.62-3.88-4.86-6.86-8.86-8.16-4.83-.75-9.72,.92-13.07,4.48h2.24c-5.79-5.98-15.34-6.13-21.32-.33-.11,.11-.22,.22-.33,.33h2.24c-6.34-7.65-18.1-5.01-21.88,3.68l2.96,.8,1.25-17.08-1.59,1.59h54.7l-1.59-1.59,2.24,17.08c.27,1.99,3.45,2.01,3.17,0l-2.28-17.08c-.01-.87-.71-1.57-1.59-1.59H22.11c-.87,.02-1.56,.72-1.59,1.59l-1.25,17.08c0,1.5,2.33,2.24,2.96,.8,2.98-6.87,11.82-9.24,16.92-3.02,.62,.61,1.62,.61,2.24,0,4.52-4.74,12.03-4.92,16.77-.4,.14,.13,.27,.26,.4,.4,.62,.61,1.62,.61,2.24,0,2.47-2.62,7.02-4.63,10.57-3.53,2.9,1.26,5.18,3.62,6.34,6.55,.87,1.84,3.59,.34,2.75-1.61Z"/><path class="cls-1" d="M21.44,29.37L2.87,68.85,.21,74.54c-.59,1.27,.76,3.19,2.11,2.11,9.71-6.99,22.79-6.99,32.5,0,.49,.3,1.11,.3,1.61,0,7.48-5.33,19.49-7.36,26.66-.25,.62,.61,1.62,.61,2.24,0,8.58-8.25,22.94-4.97,32.18,.25,.81,.35,1.76-.02,2.11-.83,.18-.41,.18-.87,0-1.28l-11.16-24.02-7.36-15.63c-.86-2.32-1.98-4.53-3.36-6.58-4.86-6.03-14.27-4.57-19.18,.72l2.49,.34c-5.12-6.7-16.43-6.53-21.91-.34l2.49,.34c-4.65-6.74-14.8-6.34-19.96-.34-1.33,1.54,.91,3.81,2.24,2.26,3.72-4.23,11.5-5.37,14.97-.34,.45,.76,1.44,1.01,2.2,.56,.11-.06,.2-.14,.29-.22,2.03-2.13,4.78-3.45,7.72-3.7,2.44-.3,4.91,.24,7,1.52,.61,.38,1.18,.83,1.69,1.33,.15,.13,.91,1.04,.51,.51,.45,.76,1.44,1.01,2.2,.56,.11-.06,.2-.14,.29-.22,3.74-4.04,11.69-5.77,14.97-.32,1.2,2.23,2.28,4.52,3.24,6.87l14.06,29.94,3.93,8.35,2.11-2.11c-10.57-5.94-26.35-9.05-35.94,.25h2.24c-8.14-8.08-21.84-6.34-30.51-.25h1.61c-10.7-7.57-25.01-7.57-35.71,0l2.11,2.11L21.46,36.65l2.69-5.69c.91-1.82-1.84-3.45-2.71-1.59Z"/><path class="cls-1" d="M38.67,30.18l-4.02,39.48-.57,5.69c-.21,2.11,2.96,2.01,3.17,0l4.02-39.5,.57-5.67c.21-2.11-2.96-2.11-3.17,0Z"/><path class="cls-1" d="M57.55,30.18l3.91,37.55,.57,5.41c.21,2.01,3.38,2.11,3.17,0l-3.91-37.57-.57-5.39c-.21-2.11-3.38-2.11-3.17,0Z"/><path class="cls-1" d="M13.17,54.18c2.06-1.87,4.46-3.31,7.08-4.23,5.82-2.11,12.32-.95,17.04,3.04,.62,.36,1.4,.26,1.9-.25,5.97-4.81,14.48-4.81,20.45,0,.52,.5,1.3,.6,1.92,.25,7.87-5.35,18.12-3.95,25.48,1.48,1.65,1.23,3.24-1.52,1.61-2.73-8.2-6.07-19.96-7.44-28.69-1.5l1.92,.25c-7.22-6.02-17.71-6.02-24.93,0l1.92-.25c-8.46-6.47-20.39-5.75-28.02,1.69-1.5,1.4,.74,3.64,2.24,2.24h.06Z"/></svg>