<?xml version="1.0" encoding="UTF-8"?><svg id="Layer_1" xmlns="http://www.w3.org/2000/svg" viewBox="0 0 99.76 90.61"><defs><style>.cls-1{fill:#191919;}.cls-2{fill:none;stroke:#191919;stroke-miterlimit:10;stroke-width:.5px;}</style></defs><path class="cls-1" d="M78.24,86.45l-18.58-18.58-2.07-2.14c-.66-.83-1.42-1.58-2.24-2.24-1.52-.88-.91,.97-.44,.5l5.51-5.51c.81-.81,4.76-4.12,3.14-3.99s.47,1.26,1.26,2.07l4.81,4.8,11.8,11.8c1.14,1.15,2.67,3.38,4.13,4.14,.36,.27,.68,.58,.95,.94-.58-.58,.95-1.42-.5-.95-3.25,1.22-6.94,6.7-9.5,9.17-1.19,1.14,.61,2.95,1.8,1.8l10.19-9.82c.49-.5,.49-1.3,0-1.8l-24.09-24.05c-.51-.48-1.31-.48-1.82,0l-10.01,10.01c-.48,.51-.48,1.31,0,1.82l23.85,23.83c.55,.44,1.35,.36,1.8-.19,.38-.47,.38-1.13,0-1.6Z"/><line class="cls-2" x1="66.78" y1="56.78" x2="56.76" y2="66.79"/><path class="cls-1" d="M59.01,58.03l-10.97-10.83c-.64-.7-1.31-1.36-2.02-1.99-.41-.33-.17-.35,0,.16-.18-.53-.3-1.07-.37-1.62-.26-3.15,2.47-5.15,4.49-7.17l14.39-14.45c1.63-1.63,3.28-3.25,4.88-4.88l.43-.43s-.26,.23,.14-.09c.99-.69,1.72-1.69,2.09-2.84,.61-2.24-.72-4.26-2.17-5.91-1.55-1.74-3.19-3.4-4.93-4.95-2.84-2.44-5.93-1.11-8.25,1.21-.37,.46-.3,1.13,.16,1.5,.39,.32,.95,.31,1.34,0,1.19-1.19,2.7-2.53,4.51-1.7,.7,.42,1.33,.96,1.86,1.59,2.27,2.2,7.82,6.27,4.14,9.37-3.04,2.57-5.68,5.68-8.52,8.52l-13.19,13.19c-2.23,2.12-3.93,4.33-3.52,7.57,.19,1.46,.98,2.78,2.17,3.65l11.78,11.63c.98,.97,2.48-.54,1.5-1.5h.03Z"/><path class="cls-1" d="M59.49,10.37l-6.9-6.91-.98-.98v1.5l2.36-2.34h-1.52l6.91,6.93,.98,.97v-1.52l-2.36,2.36c-.4,.43-.38,1.1,.05,1.5,.41,.38,1.04,.38,1.45,0l2.36-2.36c.41-.42,.41-1.09,0-1.5l-6.91-6.91-.97-.97c-.42-.41-1.1-.41-1.52,0l-2.34,2.34c-.42,.42-.42,1.09,0,1.5l6.91,6.91,.97,.98c1.02,.95,2.44-.47,1.5-1.5Z"/><path class="cls-1" d="M45.45,.89L20.86,25.48l-15.47,15.47-4.26,4.26c-1.15,1.14-1.66,2.38-.38,3.78,2.21,2.4,4.64,4.64,6.97,6.97l3.9,3.9c.54,.64,1.14,1.23,1.8,1.75,1.66,1.12,2.84-.31,3.89-1.42l4.87-4.77L54.63,22.91l5.01-5.01c.94-.94,2.38-1.97,1.89-3.49-.26-.81-1.16-1.42-1.75-2.06l-3.75-3.78c-2.41-2.43-4.81-4.9-7.27-7.28-.91-.88-1.92-1.42-3.09-.61s0,2.61,1.06,1.85c.33-.21,1.33,1.08,1.68,1.42l3.66,3.66,6.93,6.98c.1,.09,.51,.38,.53,.51s0-.2-.1,0-.74,.74-.98,.98l-4.36,4.36-30.75,30.72-5.68,5.68-1.87,1.87c-.26,.26-.64,.82-.98,.98-.07,0-.18,.14-.09,.14s-.34-.4-.41-.47c-.92-1.01-1.93-1.93-2.84-2.84l-7.67-7.67c-.3-.3-1.62-1.25-1.68-1.68,0,.23,.37-.26,.51-.38l3.72-3.72,14.11-14.2C29.08,20.28,37.9,11.7,46.47,2.89l.48-.5c.98-.92-.53-2.47-1.5-1.5Z"/><path class="cls-1" d="M8.36,48.03l30.93-30.95c.46-.53,.41-1.34-.12-1.8-.48-.42-1.2-.42-1.68,0L6.48,46.22c-.45,.55-.36,1.37,.19,1.82,.47,.38,1.15,.38,1.63,0h.06Z"/><circle class="cls-1" cx="41.5" cy="12.92" r="1.18"/><path class="cls-1" d="M5.66,62.6v17.53c-.23,1.91-.03,3.85,.6,5.68,1.58,3.38,7.42,3.7,9.43,.53,1.42-2.23,.84-5.82,.84-8.38,0-3.02-.28-6.19,0-9.2,.14-1.52,1.62-2.84,3.14-1.72,.79,.58,.74,1.56,.74,2.43-.21,2.67-.19,5.34,.07,8.01,.64,2.88,3.49,4.69,6.37,4.05,.75-.17,1.45-.49,2.06-.95,1.77-1.42,1.92-3.35,1.92-5.38v-10.66c-.05-.69-.05-1.39,0-2.09,.26-2,3.36-1.86,3.69,0,.14,1.85,.14,3.71,0,5.56v11.36c0,2.09-.09,4.19,0,6.26,.16,3.68,2.97,5.68,6.56,4.77,2.31-.49,3.98-2.5,4.03-4.85,.1-2.58,0-5.18,0-7.76v-10.93c-.09-1.63-.05-3.26,.13-4.88,.42-2.51,1.8-4.76,3.85-6.27,1.09-.79,0-2.65-1.08-1.83-3.04,2.21-4.88,5.7-4.98,9.45v16.81c0,1.86,.18,3.83,0,5.68-.34,3.25-5.95,3.95-6.32,.2-.09-1.68-.09-3.36,0-5.04,0-6.06,.31-12.22,0-18.27-.13-2.28-2.08-4.02-4.36-3.89-.67,.04-1.31,.24-1.89,.58-2.02,1.18-1.7,3.53-1.7,5.52v10.22c.04,.58,.04,1.16,0,1.75-.27,1.7-1.87,2.86-3.58,2.59-.21-.03-.41-.09-.61-.16-.83-.29-1.48-.94-1.76-1.77-.11-.31-.21-1.04-.18-.65-.09-1.42,0-2.84,0-4.26,0-2.21,.54-5.27-1.22-7-2.67-2.63-6.7-.38-6.91,2.98-.17,2.75,0,5.58,0,8.33v4.1c.19,1.37,.03,2.76-.47,4.05-1.08,1.76-4.76,1.72-5.68-.14-.44-1.08-.59-2.25-.44-3.41,.2-5.68,0-11.36,0-17.03v-1.89c0-.59-.48-1.06-1.06-1.06s-1.06,.48-1.06,1.06h-.1Z"/><path class="cls-1" d="M57.05,50.89c2.45-.78,4.53-2.44,5.83-4.66,.84-1.87,1.22-3.91,1.12-5.96,0-1.04-.07-2.71,.95-3.34,1.42-.87,3.66-.09,5.18-.09,1.22,.03,2.39-.49,3.19-1.42,1.82-2.17,1.76-5.68,1.62-8.28-.13-2.33-.44-4.65-.95-6.93-.3-1.33-2.36-.77-2.06,.57,.37,1.67,.63,3.37,.78,5.08,.21,2.4,.58,5.68-.79,7.86-.67,1.04-1.53,1.05-2.67,.94-1.65-.31-3.35-.22-4.95,.27-2.84,1.19-2.36,4.9-2.5,7.4-.27,3.06-2.37,5.64-5.31,6.53-1.31,.41-.75,2.47,.55,2.06v-.04Z"/></svg>