<svg id="Layer_1" data-name="Layer 1" xmlns="http://www.w3.org/2000/svg" viewBox="0 0 99.76 90.61"><defs><style>.cls-1,.cls-2,.cls-4,.cls-5,.cls-6,.cls-7,.cls-8,.cls-9{fill:none;stroke:#0a0a0a;stroke-miterlimit:10;}.cls-2,.cls-4,.cls-5,.cls-6,.cls-7,.cls-8,.cls-9{stroke-linecap:round;}.cls-3{fill:#0a0a0a;}.cls-4,.cls-6,.cls-7{stroke-width:0.5px;}.cls-4{stroke-dasharray:1;}.cls-5{stroke-dasharray:0.5;}.cls-7{stroke-dasharray:1.05 1.05;}.cls-8{stroke-width:0.25px;stroke-dasharray:0.7;}.cls-9{stroke-width:0.75px;}</style></defs><path class="cls-1" d="M14,23.88l.31,38.93A9.23,9.23,0,0,1,22.47,57c5.78-.19,8.43,5.39,8.43,5.39l-.25-38.48s-.81-6-8.33-6C15.21,17.9,14,23.88,14,23.88Z"/><circle class="cls-1" cx="22.47" cy="65.49" r="8.59"/><line class="cls-2" x1="20.33" y1="22.86" x2="20.33" y2="51.22"/><path class="cls-2" d="M31.06,23.59h45.6a6.09,6.09,0,0,1,6.09,6.09V52.87"/><path class="cls-3" d="M22.32,59.76A6,6,0,0,0,18,63.41a6.55,6.55,0,0,0,.24,4.92,4.84,4.84,0,0,0,2.37,2.41,5.37,5.37,0,0,0,2.16.53,1.5,1.5,0,0,0,0-3c-.11,0-.47,0-.12,0s0,0-.14,0L22,68.12a.9.9,0,0,0-.21-.08c.41.08.26.11.09,0s-.33-.2-.49-.3.28.26,0,0a2.39,2.39,0,0,1-.23-.22s-.28-.33-.1-.11-.09-.15-.13-.22-.1-.2-.16-.3.13.36,0,.06l-.06-.18c0-.12-.08-.25-.11-.38a1.55,1.55,0,0,1,0-.21c0-.13-.14-.34,0,0a2.68,2.68,0,0,1,0-1c0-.07,0-.15,0-.22,0-.32,0,.07,0,.07s.09-.42.11-.49.14-.29.13-.37c0,.14-.13.27,0,.11s.07-.13.1-.2l.19-.29s.15-.22,0,0,0,0,.07-.07.39-.3.49-.46c0,0-.32.22-.13.1l.12-.09.3-.19c.18-.1.37-.18.55-.27l-.08,0,.23-.08a3.45,3.45,0,0,1,.46-.12,1.51,1.51,0,0,0,1-1.85,1.53,1.53,0,0,0-1.84-1Z"/><line class="cls-4" x1="30.9" y1="71.87" x2="61.73" y2="71.87"/><rect class="cls-1" x="45.47" y="38.54" width="22.11" height="22.11"/><rect class="cls-1" x="50.68" y="30.09" width="22.11" height="22.11"/><line class="cls-5" x1="45.47" y1="38.54" x2="50.68" y2="30.09"/><line class="cls-5" x1="67.58" y1="38.54" x2="72.78" y2="30.09"/><line class="cls-5" x1="67.58" y1="60.65" x2="72.78" y2="52.2"/><line class="cls-5" x1="45.47" y1="60.65" x2="50.68" y2="52.2"/><polygon class="cls-2" points="58.31 77.52 83.14 55.23 83.14 77.52 58.31 77.52"/><polyline class="cls-2" points="67.75 74 79.82 74 79.82 63.36"/><line class="cls-6" x1="69.02" y1="72.59" x2="69.39" y2="72.26"/><line class="cls-7" x1="70.17" y1="71.55" x2="77.64" y2="64.87"/><line class="cls-6" x1="78.03" y1="64.51" x2="78.4" y2="64.18"/><path class="cls-3" d="M90,77.64H84.9l.38.37c0-8,0-16,0-23.94a2.42,2.42,0,0,1,.63-1.93,2.21,2.21,0,0,1,3.7,1.7c0,.48.78.48.75,0A3.24,3.24,0,0,0,89,51.21a3.18,3.18,0,0,0-3.92.69c-.75,1-.59,2.29-.59,3.45V78a.38.38,0,0,0,.37.38H90a.38.38,0,0,0,0-.75Z"/><line class="cls-8" x1="89.99" y1="55.23" x2="89.99" y2="76.55"/><circle class="cls-1" cx="87.46" cy="53.21" r="0.74"/><line class="cls-9" x1="84.9" y1="56.76" x2="86.72" y2="56.76"/><line class="cls-9" x1="84.9" y1="58.85" x2="86.72" y2="58.85"/><line class="cls-9" x1="84.9" y1="60.94" x2="86.72" y2="60.94"/><line class="cls-9" x1="84.9" y1="63.03" x2="86.72" y2="63.03"/><line class="cls-9" x1="84.9" y1="65.12" x2="86.72" y2="65.12"/><line class="cls-9" x1="84.9" y1="67.21" x2="86.72" y2="67.21"/><line class="cls-9" x1="84.9" y1="69.3" x2="86.72" y2="69.3"/><line class="cls-9" x1="84.9" y1="71.39" x2="86.72" y2="71.39"/><line class="cls-9" x1="84.9" y1="73.48" x2="86.72" y2="73.48"/><line class="cls-9" x1="84.9" y1="75.57" x2="86.72" y2="75.57"/><path class="cls-3" d="M63.88,77.39V76a.39.39,0,0,0-.38-.38.38.38,0,0,0-.37.38v1.42a.38.38,0,0,0,.37.38.39.39,0,0,0,.38-.38Z"/><path class="cls-3" d="M66.74,77.39V76.5a.39.39,0,0,0-.11-.27.44.44,0,0,0-.27-.11.38.38,0,0,0-.37.38v.89a.39.39,0,0,0,.11.27.41.41,0,0,0,.26.11.39.39,0,0,0,.38-.38Z"/><path class="cls-3" d="M69.47,77.39V76a.38.38,0,1,0-.75,0v1.42a.38.38,0,1,0,.75,0Z"/><path class="cls-3" d="M72.33,77.39V76.5a.39.39,0,0,0-.11-.27.41.41,0,0,0-.26-.11.39.39,0,0,0-.38.38v.89a.39.39,0,0,0,.11.27.44.44,0,0,0,.27.11.38.38,0,0,0,.37-.38Z"/><path class="cls-3" d="M75.05,77.39V76a.38.38,0,1,0-.75,0v1.42a.38.38,0,0,0,.37.38.39.39,0,0,0,.38-.38Z"/><path class="cls-3" d="M80.37,77.39V76a.39.39,0,0,0-.38-.38.38.38,0,0,0-.37.38v1.42a.38.38,0,0,0,.37.38.39.39,0,0,0,.38-.38Z"/><path class="cls-3" d="M77.91,77.39V76.5a.39.39,0,0,0-.11-.27.44.44,0,0,0-.27-.11.38.38,0,0,0-.37.38v.89a.39.39,0,0,0,.11.27.41.41,0,0,0,.26.11.39.39,0,0,0,.38-.38Z"/></svg>