<svg id="Layer_1" data-name="Layer 1" xmlns="http://www.w3.org/2000/svg" viewBox="0 0 99.76 90.61"><defs><style>.cls-1{fill:#0a0a0a;}.cls-2{fill:none;stroke:#0a0a0a;stroke-linecap:round;stroke-linejoin:round;stroke-width:0.5px;stroke-dasharray:1;}</style></defs><path class="cls-1" d="M15.51,54.67a20.31,20.31,0,0,0,2.34,10.9,13.74,13.74,0,0,0,6.68,6.11c3,1.28,6.11,1.29,9.32,1.26,5.72-.06,11.44,0,17.15,0l9.24,0a24.29,24.29,0,0,0,3.62-.1,16.68,16.68,0,0,0,11.43-7,13.13,13.13,0,0,0,2.77-8.1c-.07-1.48-.35-2.92-.35-4.42,0-.91,0-1.82.11-2.73a.76.76,0,0,0-.55-.73c-2.68-.48-5.57,0-8.24.35-4.48.6-8.92,1.4-13.36,2.19-5.48,1-11,1.94-16.45,2.8-5.19.82-10.3,1.41-15.53.61a33.15,33.15,0,0,1-5.13-1.17c-.51-.16-1-.33-1.51-.53L16.64,54c-.87-.4-1.64.89-.76,1.29,5.75,2.63,12.84,2.94,19,2.12C45.49,56,56,53.76,66.59,52.15c2-.31,4.09-.6,6.15-.77a16.31,16.31,0,0,1,4.13,0l-.55-.72a26.59,26.59,0,0,0,.05,5.57,11.24,11.24,0,0,1-1.65,7.84A15.35,15.35,0,0,1,64.29,71.3a16.44,16.44,0,0,1-3.29.2l-8.07,0-17.87,0a36.26,36.26,0,0,1-7-.26,12.59,12.59,0,0,1-8-4.88A18.24,18.24,0,0,1,17,54.67C17.08,53.71,15.58,53.71,15.51,54.67Z"/><path class="cls-1" d="M14.41,51.73a21.94,21.94,0,0,0,5,1.73,51.24,51.24,0,0,0,14.5,1.26c11.86-.53,23.35-4.14,35.05-5.88a26.47,26.47,0,0,1,9.88,0c.94.22,1.35-1.23.4-1.44-7-1.61-14.46.58-21.27,1.94-12,2.39-24.36,5.48-36.57,3a23.51,23.51,0,0,1-6.21-1.93c-.85-.46-1.61.84-.76,1.29Z"/><path d="M71.39,45.6a.24.24,0,0,1-.16-.07.21.21,0,0,1-.09-.18V23.91c0-2.38-2.36-5.74-6.79-5.84h-.26c-6,0-7.29,4.5-7.48,5.3L58.3,25.3a.46.46,0,0,1,.06.5.47.47,0,0,1-.42.26H52.55a.47.47,0,0,1-.34-.78l1.82-2c.17-.83,1.82-7.83,10.33-7.83,6.84,0,9.36,5.18,9.39,8.66,0,6.3,0,20.8,0,21a.25.25,0,0,1-.22.25Z"/><path class="cls-1" d="M64.36,15.74c6.62,0,9.11,5,9.14,8.42,0,6.37,0,21,0,21l-2.11.24V23.91c0-2.37-2.36-6-7-6.09h-.27c-6.74,0-7.75,5.62-7.75,5.62l1.77,2a.22.22,0,0,1-.17.35H52.55a.21.21,0,0,1-.15-.36l1.87-2s1.2-7.7,10.09-7.7m0-.5c-8.48,0-10.31,6.83-10.56,8L52,25.11a.72.72,0,0,0,.52,1.2h5.39a.71.71,0,0,0,.64-.4.72.72,0,0,0-.08-.76l-1.61-1.84c.26-1,1.65-5,7.2-5h.26c4.62.1,6.54,3.69,6.54,5.59V45.35a.53.53,0,0,0,.17.37.51.51,0,0,0,.33.13h.06l2.11-.23a.51.51,0,0,0,.44-.5c0-.15,0-14.65,0-20.95,0-3.58-2.62-8.92-9.64-8.92Z"/><line class="cls-2" x1="52.6" y1="26.86" x2="50.27" y2="32.68"/><line class="cls-2" x1="55.27" y1="27.75" x2="55.27" y2="34.81"/><line class="cls-2" x1="57.97" y1="26.86" x2="59.99" y2="32.68"/><path class="cls-1" d="M30.71,69.53v5.34a1.5,1.5,0,0,0,3,0V69.53a1.5,1.5,0,0,0-3,0Z"/><path class="cls-1" d="M58.49,69.53v5.34a1.5,1.5,0,0,0,3,0V69.53a1.5,1.5,0,0,0-3,0Z"/></svg>