<svg id="Layer_1" data-name="Layer 1" xmlns="http://www.w3.org/2000/svg" viewBox="0 0 99.76 90.61"><defs><style>.cls-1{fill:#191919;}.cls-2{fill:none;stroke:#191919;stroke-miterlimit:10;stroke-width:0.5px;}</style></defs><path class="cls-1" d="M67.55,72.86,54.46,59.77,53,58.26a10.26,10.26,0,0,0-1.58-1.58c-1.07-.62-.64.68-.31.35l3.88-3.88c.57-.57,3.35-2.9,2.21-2.81s.33.89.89,1.46l3.39,3.38,8.31,8.31c.8.81,1.88,2.38,2.91,2.92a3.48,3.48,0,0,1,.67.66c-.41-.41.67-1-.35-.67-2.29.86-4.89,4.72-6.69,6.46-.84.8.43,2.08,1.27,1.27l7.18-6.92a.91.91,0,0,0,0-1.27L57.81,49a.93.93,0,0,0-1.28,0l-7.05,7.05a.93.93,0,0,0,0,1.28l16.8,16.79A.9.9,0,0,0,67.55,72.86Z"/><line class="cls-2" x1="59.48" y1="51.96" x2="52.42" y2="59.01"/><path class="cls-1" d="M54,52.84l-7.73-7.63a18.76,18.76,0,0,0-1.42-1.4c-.29-.23-.12-.25,0,.11a5.7,5.7,0,0,1-.26-1.14c-.18-2.22,1.74-3.63,3.16-5.05L57.89,27.55c1.15-1.15,2.31-2.29,3.44-3.44l.3-.3s-.18.16.1-.06a3.89,3.89,0,0,0,1.47-2c.43-1.58-.51-3-1.53-4.16A43.82,43.82,0,0,0,58.2,14.1c-2-1.72-4.18-.78-5.81.85A.75.75,0,0,0,53.45,16c.84-.84,1.9-1.78,3.18-1.2a5.19,5.19,0,0,1,1.31,1.12c1.6,1.55,5.51,4.42,2.92,6.6-2.14,1.81-4,4-6,6l-9.29,9.29C44,39.3,42.8,40.86,43.09,43.14a3.79,3.79,0,0,0,1.53,2.57l8.3,8.19c.69.68,1.75-.38,1.06-1.06Z"/><path class="cls-1" d="M54.34,19.27,49.48,14.4l-.69-.69v1.06l1.66-1.65H49.38L54.25,18l.69.68V17.61l-1.66,1.66a.75.75,0,0,0,1.06,1.06L56,18.67a.76.76,0,0,0,0-1.06l-4.87-4.87-.68-.68a.77.77,0,0,0-1.07,0l-1.65,1.65a.75.75,0,0,0,0,1.06l4.87,4.87.68.69C54,21,55,20,54.34,19.27Z"/><path class="cls-1" d="M44.45,12.59,27.13,29.91l-10.9,10.9-3,3c-.81.8-1.17,1.68-.27,2.66,1.56,1.69,3.27,3.27,4.91,4.91l2.75,2.75a8.68,8.68,0,0,0,1.27,1.23c1.17.79,2-.22,2.74-1L28.06,51,50.92,28.1l3.53-3.53c.66-.66,1.68-1.39,1.33-2.46-.18-.57-.82-1-1.23-1.45L51.91,18c-1.7-1.71-3.39-3.45-5.12-5.13-.64-.62-1.35-1-2.18-.43s0,1.84.75,1.3c.23-.15.94.76,1.18,1l2.58,2.58L54,22.24c.07.06.36.27.37.36s0-.14-.07,0-.52.52-.69.69l-3.07,3.07L28.88,48l-4,4-1.32,1.32c-.18.18-.45.58-.69.69-.05,0-.13.1-.06.1s-.24-.28-.29-.33c-.65-.71-1.36-1.36-2-2l-5.4-5.4c-.21-.21-1.14-.88-1.18-1.18,0,.16.26-.18.36-.27l2.62-2.62,9.94-10C32.92,26.25,39.13,20.2,45.17,14l.34-.35C46.2,13,45.14,11.91,44.45,12.59Z"/><path class="cls-1" d="M18.32,45.8,40.11,24a.9.9,0,0,0-1.27-1.27L17,44.52a.91.91,0,0,0,1.28,1.28Z"/><circle class="cls-1" cx="41.67" cy="21.06" r="0.83"/><path class="cls-1" d="M16.42,56.06V68.41a9,9,0,0,0,.42,4c1.11,2.38,5.23,2.61,6.64.37,1-1.57.59-4.1.59-5.9,0-2.13-.2-4.36,0-6.48.1-1.07,1.14-2,2.21-1.21.56.41.52,1.1.52,1.71a32.17,32.17,0,0,0,.05,5.64,3.76,3.76,0,0,0,5.94,2.18c1.25-1,1.35-2.36,1.35-3.79V57.42a10.3,10.3,0,0,1,0-1.47c.18-1.41,2.37-1.31,2.6,0a25.65,25.65,0,0,1,0,3.92v8c0,1.47-.06,2.95,0,4.41.11,2.59,2.09,4,4.62,3.36a3.58,3.58,0,0,0,2.84-3.42c.07-1.82,0-3.65,0-5.47V59.05a20.79,20.79,0,0,1,.09-3.44A6.93,6.93,0,0,1,47,51.19c.77-.56,0-1.87-.76-1.29a8.54,8.54,0,0,0-3.51,6.66c0,1.33,0,2.67,0,4v7.84c0,1.31.13,2.7,0,4-.24,2.29-4.19,2.78-4.45.14a35,35,0,0,1,0-3.55c0-4.27.22-8.61,0-12.87a2.91,2.91,0,0,0-4.4-2.33c-1.42.83-1.2,2.49-1.2,3.89v7.2a8.42,8.42,0,0,1,0,1.23,2.2,2.2,0,0,1-2.95,1.71,2,2,0,0,1-1.24-1.25c-.08-.22-.15-.73-.13-.46-.06-1,0-2,0-3,0-1.56.38-3.71-.86-4.93-1.88-1.85-4.72-.27-4.87,2.1-.12,1.94,0,3.93,0,5.87v2.89a5.72,5.72,0,0,1-.33,2.85c-.76,1.24-3.35,1.21-4-.1a4.68,4.68,0,0,1-.31-2.4c.14-4,0-8,0-12V56.06a.75.75,0,0,0-1.5,0Z"/><path class="cls-1" d="M52.62,47.81a7.37,7.37,0,0,0,4.11-3.28,9.15,9.15,0,0,0,.79-4.2c0-.73-.05-1.91.67-2.35,1-.61,2.58-.06,3.65-.06a2.89,2.89,0,0,0,2.25-1c1.28-1.53,1.24-4,1.14-5.83a29.83,29.83,0,0,0-.67-4.88c-.21-.94-1.66-.54-1.45.4a26.91,26.91,0,0,1,.55,3.58c.15,1.69.41,4-.56,5.54-.47.73-1.08.74-1.88.66a7.35,7.35,0,0,0-3.49.19c-2,.84-1.66,3.45-1.76,5.21a5.3,5.3,0,0,1-3.74,4.6c-.92.29-.53,1.74.39,1.45Z"/></svg>