<svg id="Layer_1" data-name="Layer 1" xmlns="http://www.w3.org/2000/svg" viewBox="0 0 99.76 90.61"><defs><style>.cls-1{fill:#0a0a0a;}.cls-2,.cls-3,.cls-4{fill:none;stroke:#0a0a0a;stroke-width:0.75px;}.cls-2{stroke-miterlimit:10;}.cls-3,.cls-4{stroke-linecap:round;stroke-linejoin:round;}.cls-4{stroke-dasharray:3 3;}</style></defs><path class="cls-1" d="M53.35,34.92l13.4,10,.38-1.4H64.27a.76.76,0,0,0-.75.75L63.79,58l.75-.75H43l.75.75V44.24a.77.77,0,0,0-.75-.75H40.06l.38,1.4,13.67-10c.77-.56,0-1.86-.76-1.29l-13.66,10A.75.75,0,0,0,40.06,45H43l-.75-.75V58a.76.76,0,0,0,.75.75H64.54a.76.76,0,0,0,.75-.75L65,44.24l-.75.75h2.86a.75.75,0,0,0,.38-1.39l-13.4-10C53.33,33.05,52.58,34.35,53.35,34.92Z"/><path class="cls-1" d="M58.16,52.4H49l.75.75V44.29L49,45h9.13l-.75-.75v8.86a.75.75,0,0,0,1.5,0V44.29a.76.76,0,0,0-.75-.75H49a.76.76,0,0,0-.75.75v8.86a.76.76,0,0,0,.75.75h9.13A.75.75,0,0,0,58.16,52.4Z"/><path class="cls-1" d="M52.84,44.29v8.86a.75.75,0,0,0,1.5,0V44.29a.75.75,0,0,0-1.5,0Z"/><path class="cls-1" d="M49,49.47h9.13a.75.75,0,0,0,0-1.5H49a.75.75,0,0,0,0,1.5Z"/><circle class="cls-2" cx="39.51" cy="32.16" r="6.52"/><path class="cls-1" d="M35.29,33.78c-.43-.32-.15-.11,0,0s.25.23.37.35l1,1L38,36.53a1.15,1.15,0,0,0,1.77-.23L43,31.43l.45-.69A1.13,1.13,0,0,0,43,29.2a1.15,1.15,0,0,0-1.54.4l-3.18,4.87-.45.69,1.77-.22-1.46-1.46a17.75,17.75,0,0,0-1.72-1.64,1.13,1.13,0,0,0-1.54.4,1.15,1.15,0,0,0,.4,1.54Z"/><path class="cls-3" d="M48,25c.49-.12,1-.23,1.47-.32"/><path class="cls-4" d="M52.4,24.32a22.83,22.83,0,1,1-21.34,19.1"/><path class="cls-3" d="M31.35,42c.11-.49.24-1,.39-1.45"/></svg>