<?xml version="1.0" encoding="UTF-8"?><svg id="Layer_1" xmlns="http://www.w3.org/2000/svg" viewBox="0 0 99.76 90.61"><defs><style>.cls-1{fill:#0a0a0a;}</style></defs><path class="cls-1" d="M6.87,44.65V1.16l-1.05,1.05H93.89l-1.05-1.05V56.29l.52-.91c-2.54,1.19-5.5,1.04-7.91-.38-2.03-1.45-3.91-3.1-5.61-4.92-4.98-4.52-11.43-7.83-18.39-6.52s-12.43,7.01-18.7,10.24c-6.75,3.45-15.22,1.78-21.13-2.68-2.81-2.1-5.01-4.88-7.8-7.01-2.53-1.74-5.84-1.91-8.53-.42-1.21,.6-.15,2.43,1.05,1.81,.97-.47,2.03-.72,3.11-.72,2.16,0,3.51,1.29,4.98,2.68,2.11,2.13,4.36,4.11,6.75,5.92,5.46,3.86,13.56,5.79,19.99,3.39,6.78-2.53,11.84-8.32,18.71-10.63,7.28-2.45,14.03,1.25,19.32,6.13,1.56,1.67,3.3,3.18,5.18,4.49,2.75,1.54,6.02,1.85,9.01,.86,.95-.35,1.4-.69,1.56-1.73s0-1.96,0-2.93V1.05c0-.58-.47-1.04-1.05-1.05H5.82c-.58,0-1.04,.47-1.05,1.05V44.54c-.03,.58,.41,1.08,1,1.11s1.08-.41,1.11-1Z"/><path class="cls-1" d="M19.78,1.16V51.24c0,.58,.47,1.05,1.05,1.05s1.05-.47,1.05-1.05V1.16c0-.58-.47-1.05-1.05-1.05s-1.05,.47-1.05,1.05Z"/><path class="cls-1" d="M40.86,34.45H20.97c-.58,0-1.05,.47-1.05,1.05s.47,1.05,1.05,1.05h19.89c.58,0,1.05-.47,1.05-1.05s-.47-1.05-1.05-1.05Z"/><path class="cls-1" d="M78.27,16.29h-17.59c-.58,0-1.05,.47-1.05,1.05s.47,1.05,1.05,1.05h17.59c.58,0,1.05-.47,1.05-1.05s-.47-1.05-1.05-1.05Z"/><path class="cls-1" d="M77.52,1.16V49.17c0,.58,.47,1.05,1.05,1.05s1.05-.47,1.05-1.05V1.16c0-.58-.47-1.05-1.05-1.05s-1.05,.47-1.05,1.05Z"/><path class="cls-1" d="M59.45,1.16V44.36c0,.58,.47,1.05,1.05,1.05s1.05-.47,1.05-1.05V1.16c0-.58-.47-1.05-1.05-1.05s-1.05,.47-1.05,1.05Z"/><path class="cls-1" d="M39.81,1.16V54.55c0,.58,.47,1.05,1.05,1.05s1.05-.47,1.05-1.05V1.16c0-.58-.47-1.05-1.05-1.05s-1.05,.47-1.05,1.05Z"/><path class="cls-1" d="M4.77,37.62v52c0,.58,.47,1.04,1.05,1.05H93.89c.57-.01,1.04-.48,1.05-1.05V47.39c0-.58-.47-1.05-1.05-1.05s-1.05,.47-1.05,1.05v42.24l1.05-1.05H5.82l1.05,1.05V37.62c0-.58-.47-1.05-1.05-1.05s-1.05,.47-1.05,1.05Z"/><path class="cls-1" d="M14.99,56.43l-4.01,3.72-.56,.53c-.41,.41-.41,1.08,0,1.49,.42,.4,1.07,.4,1.49,0l4-3.73,.58-.52c.4-.41,.4-1.07,0-1.49-.42-.4-1.07-.4-1.49,0Z"/><path class="cls-1" d="M87.84,77.83l-6.07,5.61-.86,.79c-.4,.43-.37,1.09,.05,1.49,.4,.38,1.03,.38,1.43,0l6.07-5.61,.86-.8c.41-.41,.41-1.08,0-1.49-.42-.4-1.07-.4-1.49,0h0Z"/><path class="cls-1" d="M34.38,61.67l-19.01,17.65-2.67,2.48c-1,.93,.49,2.41,1.49,1.5l18.99-17.66,2.68-2.44c1-.93-.49-2.4-1.49-1.49v-.04Z"/><path class="cls-1" d="M77.87,66.96l-14.7,13.65-2.08,1.92c-1,.93,.49,2.41,1.49,1.49l14.7-13.65,2.08-1.92c.97-.93-.43-2.44-1.49-1.49Z"/><path class="cls-1" d="M62.6,56.43l-23.67,21.97-3.32,3.1c-1,.93,.49,2.41,1.49,1.49l23.65-21.97,3.34-3.1c1-.93-.51-2.41-1.49-1.49Z"/></svg>