<?xml version="1.0" encoding="UTF-8"?><svg id="Layer_1" xmlns="http://www.w3.org/2000/svg" viewBox="0 0 99.76 90.61"><defs><style>.cls-1{fill:#0a0a0a;}</style></defs><path class="cls-1" d="M19.87,59.65l27.58-27.34,3.96-3.94c.96-.95-.52-2.43-1.48-1.48l-27.57,27.34-3.97,3.94c-.39,.42-.37,1.09,.05,1.48,.4,.38,1.03,.38,1.43,0Z"/><rect class="cls-1" x="48.67" y="20.87" width="11.7" height="5.77" transform="translate(-.83 45.51) rotate(-45)"/><path class="cls-1" d="M69.41,28.71L51.66,10.96l-2.52-2.52v1.5l4.07-4.08h-1.54l17.74,17.74,2.52,2.53v-1.48l-4.05,4.07c-.95,.96,.53,2.45,1.48,1.48l4.08-4.07c.41-.41,.41-1.07,0-1.48L55.68,6.87l-2.53-2.53c-.41-.41-1.07-.41-1.48,0l-4.07,4.1c-.41,.41-.41,1.07,0,1.48l17.75,17.75,2.52,2.52c.41,.42,1.09,.44,1.51,.03,.42-.41,.44-1.09,.03-1.51Z"/><path class="cls-1" d="M15.87,70.41l-7.12-7.13-1.03-1.02v1.48l4.08-4.08h-1.48l7.13,7.13,1.02,1.02v-1.48l-4.08,4.08c-.39,.42-.37,1.09,.05,1.48,.4,.38,1.03,.38,1.43,0l4.08-4.08c.41-.41,.41-1.07,0-1.48l-7.13-7.13-1.02-1.02c-.41-.41-1.07-.41-1.48,0l-4.08,4.08c-.41,.41-.41,1.07,0,1.48l7.13,7.13,1.02,1.02c.95,.95,2.45-.53,1.48-1.48Z"/><path class="cls-1" d="M59.08,1.71l-4.4,4.42-.63,.62h1.48l-1.5-1.51v1.48l4.4-4.4,.62-.62h-1.48l1.51,1.51c.42,.39,1.07,.39,1.48,0,.39-.42,.39-1.07,0-1.5l-1.51-1.5c-.41-.41-1.07-.41-1.48,0l-4.4,4.4-.62,.62c-.41,.41-.41,1.07,0,1.48l1.48,1.51c.41,.41,1.07,.41,1.48,0l4.4-4.4,.63-.62c.39-.42,.39-1.07,0-1.5-.41-.39-1.05-.39-1.47,0Z"/><path class="cls-1" d="M64.97,7.61l-4.4,4.4-.62,.63h1.48l-1.5-1.51v1.48l4.4-4.4,.62-.62h-1.48l1.5,1.5c.41,.41,1.08,.42,1.49,0,.41-.41,.42-1.08,0-1.49h0l-1.51-1.5c-.41-.41-1.07-.41-1.48,0l-4.4,4.4-.62,.62c-.41,.41-.41,1.07,0,1.48l1.5,1.51c.41,.41,1.07,.41,1.48,0l4.4-4.4,.63-.63c.39-.42,.39-1.07,0-1.48-.42-.39-1.07-.39-1.5,0Z"/><path class="cls-1" d="M70.81,13.39l-4.47,4.4-.63,.62h1.48l-1.5-1.48v1.5l4.4-4.4,.62-.63h-1.48l1.58,1.48c.41,.4,1.07,.4,1.48,0,.39-.42,.39-1.07,0-1.48l-1.51-1.51c-.41-.41-1.07-.41-1.48,0l-4.4,4.4-.62,.62c-.4,.42-.4,1.08,0,1.5l1.5,1.5c.41,.41,1.07,.41,1.48,0l4.33-4.36,.63-.62c.37-.45,.3-1.11-.15-1.48-.36-.3-.88-.32-1.27-.05Z"/><path class="cls-1" d="M76.28,18.92l-4.4,4.4-.62,.62h1.48l-1.51-1.43v1.4l4.4-4.4,.63-.62h-1.48l1.5,1.5c.41,.42,1.08,.43,1.5,.03s.43-1.08,.03-1.5h0l-1.54-1.51c-.42-.39-1.07-.39-1.48,0l-4.4,4.42-.63,.62c-.4,.41-.4,1.07,0,1.48l1.51,1.5c.41,.41,1.07,.41,1.48,0l4.4-4.4,.62-.62c.41-.41,.41-1.07,0-1.48-.41-.4-1.07-.4-1.48,0Z"/><path class="cls-1" d="M10.43,59.65l6.99,7.26,.99,1.03c.41,.41,1.07,.41,1.48,0,1.56-1.89,2.2-4.36,1.75-6.77-.52-1.93-1.87-3.53-3.68-4.38-1.53-.67-3.26-.71-4.82-.13-.97,.34-1.88,.85-2.68,1.5-.39,.42-.37,1.09,.05,1.48,.4,.38,1.03,.38,1.43,0,.15-.11,0,0-.07,0s.22-.17,.34-.25c.38-.24,.78-.46,1.19-.66,0,0,.18-.08,0,0l.2-.07,.39-.14c.3-.1,.61-.17,.92-.22-.18,0,0,0,0,0h.98s.27,0,.08,0c.18,.03,.36,.07,.53,.13,1.41,.46,2.53,1.53,3.03,2.92l.13,.48v.27s0-.17,0,0c.03,.34,.03,.68,0,1.02,0,0,0,.32,0,.17s0,.17,0,.15l-.08,.38c-.08,.29-.17,.59-.28,.88,0,.08-.07,.17-.1,.24h0l-.17,.36c-.11,.21-.22,.42-.35,.63l-.28,.43h1.48l-6.99-7.26-1.01-1.03c-.91-.88-2.38,.62-1.45,1.58Z"/><path class="cls-1" d="M80.94,33.03l-27.19,27.23-3.91,3.82c-.95,.96,.53,2.45,1.48,1.5l27.23-27.19,3.87-3.87c.39-.42,.37-1.09-.05-1.48-.4-.38-1.03-.38-1.43,0Z"/><rect class="cls-1" x="40.69" y="65.91" width="11.7" height="5.77" transform="translate(-35.01 53.06) rotate(-45)"/><path class="cls-1" d="M85.1,22.19l6.99,6.99,.99,.99v-1.47l-4.1,4.08h1.48l-6.99-6.99-.99-.99v1.48l4.08-4.08c.39-.42,.37-1.09-.05-1.48-.4-.38-1.03-.38-1.43,0l-4.07,4.07c-.41,.41-.41,1.07,0,1.48l6.99,6.99,.99,.99c.41,.41,1.07,.41,1.48,0l4.1-4.05c.4-.42,.4-1.08,0-1.5l-6.99-6.99-.99-.99c-.98-1.01-2.46,.52-1.5,1.47Z"/><path class="cls-1" d="M90.49,32.93l-6.99-7.26-.99-1.05c-.41-.4-1.07-.4-1.48,0-1.56,1.89-2.2,4.37-1.75,6.78,.52,1.93,1.86,3.53,3.68,4.38,1.52,.67,3.25,.72,4.81,.13,.98-.34,1.89-.84,2.68-1.5,.37-.45,.3-1.11-.15-1.48-.38-.31-.94-.32-1.32,0-.14,.11,0,0,.08-.07l-.34,.25c-.39,.25-.78,.45-1.19,.66,0,0-.18,.07,0,0l-.21,.08-.38,.14c-.3,.09-.61,.17-.92,.22,.18,0,0,0,0,0h-.98s-.27,0-.08,0c-.18-.03-.37-.07-.55-.13-1.4-.46-2.52-1.53-3.02-2.92-.05-.15-.1-.31-.13-.48v-.27h0c-.03-.34-.03-.69,0-1.03,0,0,0-.31,0-.15s0-.17,0-.15l.08-.38c.07-.3,.16-.59,.28-.88,.03-.09,.06-.17,.1-.25,0,.17,0,0,0,0,0,0,.11-.24,.18-.35,.11-.22,.22-.43,.35-.64l.28-.42c0-.1,.28-.36,0,0h-1.48l6.99,7.26,.99,1.05c.89,.91,2.38-.57,1.44-1.54Z"/><path class="cls-1" d="M38.82,68.36l-6.44,.38c-.65,.03-1.27,.32-1.71,.81l-2.71,2.52-2.71,2.53c-.42,.34-.65,.86-.64,1.4,0,2.29,.1,4.6,.15,6.91l.14,6.6c0,.58,.47,1.04,1.05,1.05l8.58,.13h4.57c.82,0,1.58-.4,2.07-1.05l3.94-3.76c.78-.74,1.72-1.4,1.8-2.46,.11-1.73,.18-3.45,.28-5.19,.06-.46,.09-.93,.08-1.4-.08-.47-.34-.88-.73-1.16l-6.99-6.99c-.42-.39-1.09-.37-1.48,.05-.38,.4-.38,1.03,0,1.43l7.41,7.41-.31-.74-.38,6.99,.31-.74-6.21,5.86,.74-.31-13.7-.18,1.05,1.05-.29-13.84-.31,.74,6.26-5.86-.74,.31,6.91-.41c1.34-.04,1.36-2.14,0-2.07Z"/><path class="cls-1" d="M41.54,72.12l-5.59,5.48-.78,.78c-.4,.42-.39,1.09,.03,1.49,.42,.4,1.09,.39,1.49-.03l5.59-5.48,.78-.78c.41-.41,.41-1.07,0-1.48-.41-.4-1.07-.4-1.48,0l-.04,.03Z"/></svg>