<?xml version="1.0" encoding="UTF-8"?><svg id="Layer_1" xmlns="http://www.w3.org/2000/svg" viewBox="0 0 99.76 90.61"><defs><style>.cls-1{fill:#0a0a0a;}</style></defs><path class="cls-1" d="M34.19,89.58h-3.95c-.8,0-2.79,.4-3.21-.53-.14-.94-.14-1.89,0-2.82V22.6c-.14-1.06-.14-2.14,0-3.21,.29-.87,1.16-.64,1.93-.64,1.6-.17,3.21-.17,4.81,0,1.19,.27,.85,1.3,.85,2.33v63.21c.1,1.41,.1,2.83,0,4.24,0,.51,.24,.85-.61,1.07-.26,.07-.41,.34-.34,.59,.07,.26,.34,.41,.59,.34,1.48-.4,1.32-1.6,1.32-2.82V22.08c.06-.95,.06-1.9,0-2.86-.16-1.09-.82-1.4-1.81-1.46-1.6-.13-3.37,0-5.04,0s-2.65,.26-2.71,2.01,0,3.05,0,4.57v60.37c0,1.35-.1,2.73,0,4.07,.14,2.13,2.13,1.76,3.79,1.76h4.33c.27,.01,.49-.19,.51-.46,.01-.27-.19-.49-.46-.51Z"/><path class="cls-1" d="M42.83,89.58h-3.77c-.79,0-3,.43-3.42-.47-.14-.89-.14-1.79,0-2.68V22.65c-.15-1.11-.15-2.23,0-3.34,.27-.8,1.06-.59,1.8-.59,1.6-.12,3.21-.12,4.81,0,1.3,.19,.96,1.03,.96,2.15v63.46c.1,1.41,.1,2.83,0,4.24,0,.48,.24,.82-.56,1.03-.26,.07-.41,.34-.34,.59,.07,.26,.34,.41,.59,.34,1.44-.4,1.27-1.6,1.27-2.78V21.98c.07-.92,.07-1.85,0-2.78-.18-1.11-.83-1.33-1.81-1.4-1.7-.13-3.45,0-5.13,0s-2.55,.27-2.6,1.96,0,3.13,0,4.68v60.4c0,1.33-.11,2.71,0,4.03,.18,2.15,2.37,1.6,3.99,1.6h4.16c.25-.08,.39-.35,.31-.61-.04-.13-.14-.24-.26-.29Z"/><path class="cls-1" d="M51.33,89.58h-3.88c-.82,0-2.82,.4-3.21-.58-.14-.94-.14-1.89,0-2.82V22.65c-.13-1.07-.13-2.14,0-3.21,.29-.9,1.17-.69,1.96-.69,1.6-.17,3.21-.17,4.81,0,1.24,.29,.88,1.33,.88,2.37v63.05c.1,1.41,.1,2.83,0,4.24,0,.53,.26,.87-.66,1.12-.29,.06-.48,.34-.43,.63,.06,.29,.34,.48,.63,.43,1.6-.42,1.36-1.6,1.36-2.87V22.11c.06-.95,.06-1.89,0-2.84-.16-1.11-.83-1.44-1.84-1.51-1.6-.13-3.32,0-4.96,0s-2.7,.29-2.76,2.07V84.67c0,1.33-.1,2.71,0,4.04,.18,2.18,2.13,1.88,3.82,1.88h4.27c.28,0,.51-.23,.51-.51s-.23-.51-.51-.51h0Z"/><path class="cls-1" d="M59.93,89.58h-3.88c-.82,0-2.82,.4-3.21-.58-.14-.94-.14-1.89,0-2.82V22.65c-.14-1.06-.14-2.14,0-3.21,.29-.9,1.16-.69,1.94-.69,1.6-.17,3.21-.17,4.81,0,1.22,.29,.87,1.33,.87,2.37v63.13c.1,1.4,.1,2.81,0,4.22,0,.53,.27,.88-.64,1.12-.26,.07-.41,.34-.34,.59,.07,.26,.34,.41,.59,.34,1.51-.42,1.35-1.6,1.35-2.87V22.11c.06-.95,.06-1.89,0-2.84-.14-1.12-.82-1.44-1.83-1.51-1.6-.13-3.34,0-4.97,0s-2.68,.29-2.74,2.05,0,3.05,0,4.56v60.3c0,1.33-.1,2.71,0,4.06,.14,2.17,2.12,1.81,3.8,1.81h4.27c.27,0,.48-.22,.47-.49,0-.27-.22-.48-.49-.47Z"/><path class="cls-1" d="M68.49,89.58h-3.85c-.85,0-2.82,.4-3.21-.61-.14-.91-.14-1.83,0-2.74V22.7c-.13-1.07-.13-2.14,0-3.21,.3-.93,1.17-.72,1.97-.72,1.6-.17,3.21-.17,4.81,0,1.24,.27,.9,1.3,.9,2.34v63.19c.1,1.38,.1,2.76,0,4.14,0,.53,.27,.96-.67,1.16-.61,.13-.35,1.04,.26,.93,1.51-.3,1.38-1.6,1.38-2.78V22.08c.07-.93,.07-1.86,0-2.79-.04-.89-.79-1.57-1.67-1.53-.03,0-.06,0-.09,0-1.6-.14-3.37,0-5.02,0s-2.7,.22-2.78,2.01V88.76c.06,2.15,2.15,1.83,3.75,1.83h4.24c.28,0,.5-.23,.5-.51,0-.28-.23-.5-.51-.5Z"/><path class="cls-1" d="M77,89.58h-3.96c-.88,0-2.63,.37-3.03-.71-.14-.96-.14-1.94,0-2.9V22.78c-.13-1.07-.13-2.14,0-3.21,.3-1.01,1.27-.8,2.12-.8,1.55-.2,3.12-.2,4.67,0,1.19,.35,.85,1.6,.85,2.57v62.84c.09,1.38,.09,2.76,0,4.14,0,.56,.29,1.03-.77,1.24-.61,.13-.35,1.04,.26,.93,1.6-.32,1.48-1.6,1.48-2.87V22.24c.06-.95,.06-1.9,0-2.86-.37-2.6-4.81-1.6-6.64-1.6s-2.87,.22-2.87,2.09V88.6c.13,2.17,1.93,1.94,3.61,1.94h4.35c.27-.01,.47-.24,.46-.51-.01-.27-.24-.47-.51-.46h0Z"/><rect class="cls-1" x="14.85" y="24.03" width="11.29" height="3.18"/><rect class="cls-1" x="16.56" y="23.41" width="5.94" height="5.2"/><rect class="cls-1" x="16.87" y="23.21" width="5.29" height="3.42"/><rect class="cls-1" x="17.96" y="19.86" width="3" height="4.8"/><rect class="cls-1" x="16.56" y="81.26" width="5.94" height="5.2"/><rect class="cls-1" x="14.85" y="82.27" width="11.29" height="3.18"/><polygon class="cls-1" points="18.34 19.91 15.17 18.05 15.17 21.26 18.34 21.26 18.34 19.91"/><polygon class="cls-1" points="20.7 19.91 23.89 18.05 23.89 21.26 20.7 21.26 20.7 19.91"/><rect class="cls-1" x="18.75" y="19.11" width="1.57" height=".9"/><rect class="cls-1" x="17.96" y="77.92" width="3" height="4.8"/><polygon class="cls-1" points="18.34 77.97 15.17 76.09 15.17 79.3 18.34 79.3 18.34 77.97"/><polygon class="cls-1" points="20.7 77.97 23.89 76.09 23.89 79.3 20.7 79.3 20.7 77.97"/><rect class="cls-1" x="18.75" y="77.17" width="1.57" height=".9"/><path class="cls-1" d="M39.42,11.98c-.82-.8-1.34-1.85-1.48-2.98,0-1.14,.9-2.05,1.6-2.84,.69-.68,1.16-1.54,1.35-2.49-.01-1.37-.59-2.67-1.6-3.59-.21-.24-.55,.11-.34,.34,1.08,.93,1.56,2.38,1.25,3.77-.49,.94-1.12,1.8-1.88,2.55-.74,.78-1.04,1.87-.8,2.92,.3,.98,.81,1.87,1.51,2.61,.21,.22,.55-.11,.35-.34l.03,.05Z"/><path class="cls-1" d="M64.77,11.98c-.81-.8-1.33-1.85-1.48-2.98,0-1.14,.9-2.05,1.6-2.84,.69-.68,1.16-1.54,1.35-2.49,0-1.37-.58-2.68-1.6-3.59-.19-.24-.53,.11-.34,.34,1.12,.93,1.63,2.4,1.33,3.82-.5,.94-1.14,1.8-1.89,2.55-.73,.78-1.03,1.88-.79,2.92,.29,.98,.81,1.87,1.51,2.61,.21,.22,.55-.11,.34-.34h-.03Z"/><path class="cls-1" d="M52.84,14.34c-.77-.82-1.26-1.86-1.4-2.98,0-1.12,.9-2.04,1.6-2.84,.69-.68,1.16-1.54,1.35-2.49-.02-1.37-.6-2.67-1.6-3.59-.21-.22-.55,.11-.35,.35,1.12,.93,1.63,2.4,1.33,3.82-.5,.94-1.14,1.8-1.89,2.55-.73,.78-1.02,1.87-.79,2.9,.3,.98,.81,1.88,1.51,2.63,.21,.22,.55-.11,.34-.35h-.1Z"/></svg>