<?xml version="1.0" encoding="UTF-8"?><svg id="Layer_1" xmlns="http://www.w3.org/2000/svg" viewBox="0 0 99.76 90.61"><defs><style>.cls-1{fill:#0a0a0a;}.cls-2{fill:none;stroke:#0a0a0a;stroke-dasharray:0 1;stroke-linecap:round;stroke-linejoin:round;stroke-width:.5px;}</style></defs><path class="cls-1" d="M3.47,58.41c-.37,5.59,.83,11.16,3.46,16.11,2.18,4.04,5.65,7.22,9.87,9.03,4.43,1.89,9.03,1.91,13.77,1.86,8.45-.09,16.9,0,25.34,0h13.65c1.78,.08,3.57,.03,5.35-.15,6.83-.93,12.95-4.69,16.89-10.34,2.66-3.42,4.1-7.63,4.09-11.97-.1-2.19-.52-4.31-.52-6.53,0-1.34,0-2.69,.16-4.03,0-.5-.33-.94-.81-1.08-3.96-.71-8.23,0-12.18,.52-6.62,.89-13.18,2.07-19.74,3.24-8.1,1.48-16.25,2.87-24.31,4.14-7.67,1.21-15.22,2.08-22.95,.9-2.57-.37-5.1-.95-7.58-1.73-.75-.24-1.48-.49-2.23-.78l-.61-.16c-1.29-.59-2.42,1.32-1.12,1.91,8.5,3.89,18.97,4.34,28.07,3.13,15.68-2.08,31.21-5.39,46.85-7.77,2.96-.46,6.04-.89,9.09-1.14,2.03-.26,4.08-.26,6.1,0l-.81-1.06c-.26,2.74-.24,5.5,.07,8.23,.64,4.03-.23,8.15-2.44,11.58-3.36,5.62-8.97,9.51-15.41,10.68-1.61,.26-3.24,.36-4.86,.3H32.36c-3.45,.21-6.92,.08-10.34-.38-4.72-.79-8.96-3.38-11.82-7.21-3.43-5.08-5.02-11.17-4.52-17.27,.12-1.42-2.1-1.42-2.2,0Z"/><path class="cls-1" d="M1.84,54.07c2.35,1.15,4.83,2.01,7.39,2.56,7.02,1.64,14.23,2.26,21.43,1.86,17.52-.78,34.5-6.12,51.79-8.69,4.82-.92,9.78-.92,14.6,0,1.39,.33,1.99-1.82,.59-2.13-10.34-2.38-21.37,.86-31.43,2.87-17.73,3.53-35.99,8.1-54.04,4.43-3.18-.52-6.26-1.48-9.18-2.85-1.26-.68-2.38,1.24-1.12,1.91l-.03,.04Z"/><path d="M86.04,45.01c-.09,0-.17-.04-.24-.1-.09-.06-.14-.16-.13-.27V12.96c0-3.52-3.49-8.48-10.03-8.63h-.38c-8.87,0-10.77,6.65-11.05,7.83l2.5,2.85c.17,.21,.21,.5,.09,.74-.12,.24-.36,.38-.62,.38h-7.96c-.38-.01-.69-.33-.67-.71,0-.16,.07-.32,.17-.44l2.69-2.96c.25-1.23,2.69-11.57,15.26-11.57,10.11,0,13.83,7.65,13.87,12.8v31.03c0,.19-.14,.35-.33,.37l-3.16,.35Z"/><path class="cls-1" d="M75.65,.89c9.78,0,13.46,7.39,13.51,12.44v31.03l-3.12,.35V12.96c0-3.5-3.49-8.87-10.34-9h-.4c-9.96,0-11.45,8.3-11.45,8.3l2.62,2.96c.11,.14,.07,.35-.07,.45-.05,.04-.12,.06-.18,.06h-8.01c-.17,0-.31-.13-.31-.31,0-.08,.03-.17,.09-.23l2.76-2.96S62.51,.87,75.65,.87m0-.74c-12.53,0-15.23,10.09-15.6,11.82l-2.66,2.78c-.39,.44-.35,1.11,.08,1.5,.19,.17,.43,.27,.69,.27h7.96c.4,0,.77-.23,.95-.59,.18-.37,.13-.8-.12-1.12l-2.38-2.72c.38-1.48,2.44-7.39,10.64-7.39h.38c6.83,.15,9.66,5.45,9.66,8.26v31.69c0,.21,.1,.41,.25,.55,.13,.12,.31,.19,.49,.19h.09l3.12-.34c.37-.05,.65-.37,.65-.74V13.34c0-5.29-3.87-13.18-14.24-13.18l.04-.03Z"/><line class="cls-2" x1="58.27" y1="17.32" x2="54.83" y2="25.92"/><line class="cls-2" x1="62.22" y1="18.63" x2="62.22" y2="29.07"/><line class="cls-2" x1="66.21" y1="17.32" x2="69.19" y2="25.92"/><path class="cls-1" d="M25.93,80.37v7.89c0,1.22,.99,2.22,2.22,2.22s2.22-.99,2.22-2.22v-7.89c0-1.22-.99-2.22-2.22-2.22s-2.22,.99-2.22,2.22Z"/><path class="cls-1" d="M66.98,80.37v7.89c0,1.22,.99,2.22,2.22,2.22s2.22-.99,2.22-2.22v-7.89c0-1.22-.99-2.22-2.22-2.22s-2.22,.99-2.22,2.22Z"/></svg>