<?xml version="1.0" encoding="UTF-8"?><svg id="Layer_1" xmlns="http://www.w3.org/2000/svg" viewBox="0 0 99.76 90.61"><defs><style>.cls-1{fill:#343436;}</style></defs><path class="cls-1" d="M83.55,88.45H16.18l.96,.96v-10.52l-.96,.96H83.55l-.98-.96v10.57c0,.53,.43,.96,.96,.96s.96-.43,.96-.96v-10.57c-.01-.52-.43-.94-.96-.96H16.18c-.53,0-.95,.43-.96,.96v10.57c.01,.52,.43,.94,.96,.96H83.55c.54,0,.98-.44,.98-.98s-.44-.98-.98-.98Z"/><path class="cls-1" d="M76.09,77.88H22.64l.93,1.01V32.33c0-4.56-.06-8.93,1.49-13.36C29.85,5.57,44.59-1.41,57.99,3.37c5.04,1.8,9.4,5.13,12.47,9.52,3.53,5.1,4.65,10.76,4.65,16.79v49.21c0,.53,.43,.96,.96,.96s.96-.43,.96-.96V31.06c0-5.32-.37-10.43-2.71-15.31C67.72,1.95,51.19-3.88,37.4,2.71c-3.65,1.74-6.87,4.27-9.44,7.39-4.24,5.31-6.47,11.93-6.3,18.72v50.06c0,.53,.43,.95,.96,.96h53.47c.54,0,.98-.44,.98-.98s-.44-.98-.98-.98Z"/><path class="cls-1" d="M66.88,68.84H33.86l.96,.96v-21.62c0-7.41-.08-14.83,0-22.23,.06-7.68,5.85-14.1,13.48-14.96,7.24-.73,14.42,2.92,16.83,10.07,1.01,2.96,.8,6.07,.8,9.15v13.86c0,8.4-.17,16.82,0,25.23v.5c0,.53,.43,.96,.96,.96s.96-.43,.96-.96V31.52c.16-2.88,.06-5.77-.28-8.64-1.43-7.43-7.57-13.04-15.1-13.8-6.99-.89-13.84,2.48-17.41,8.55-2,3.55-2.18,7.29-2.18,11.22v13.67c0,8.93-.15,17.87,0,26.8v.54c.01,.52,.43,.94,.96,.96h33.05c.54,0,.98-.44,.98-.98s-.44-.98-.98-.98Z"/><path class="cls-1" d="M34.29,42.17h13.82l-.96-.96v28.07c0,.53,.43,.96,.96,.96s.96-.43,.96-.96v-28.07c0-.53-.43-.95-.96-.96h-13.82c-.53,0-.96,.43-.96,.96s.43,.96,.96,.96Z"/><path class="cls-1" d="M66.28,40.26h-13.65c-.52,.01-.94,.43-.96,.96v28.07c0,.53,.43,.96,.96,.96s.96-.43,.96-.96v-28.07l-.96,.96h13.65c.53,0,.96-.43,.96-.96s-.43-.96-.96-.96Z"/><path class="cls-1" d="M34.76,35.88h31.05c.53,0,.96-.43,.96-.96s-.43-.96-.96-.96h-31.05c-.53,0-.96,.43-.96,.96s.43,.96,.96,.96Z"/><path class="cls-1" d="M57.26,28.53l5.27-5.4c1.72-1.76-.98-4.47-2.71-2.71l-5.28,5.4c-1.72,1.76,.98,4.48,2.72,2.71Z"/><path class="cls-1" d="M54.2,23.01l2.9-2.96c.72-.77,.68-1.98-.1-2.71-.74-.68-1.87-.68-2.61,0l-2.9,2.95c-.75,.75-.75,1.96,0,2.71,.75,.75,1.96,.75,2.71,0h0Z"/></svg>