<?xml version="1.0" encoding="UTF-8"?><svg id="Layer_1" xmlns="http://www.w3.org/2000/svg" viewBox="0 0 99.76 90.61"><defs><style>.cls-1,.cls-2{stroke-linecap:round;stroke-linejoin:round;}.cls-1,.cls-2,.cls-3{fill:none;stroke:#0a0a0a;stroke-width:.75px;}.cls-2{stroke-dasharray:0 0 3 3;}.cls-4{fill:#0a0a0a;}.cls-3{stroke-miterlimit:10;}</style></defs><path class="cls-4" d="M51.33,21.34l26.36,19.67,.75-2.75h-5.63c-.81,.01-1.46,.66-1.48,1.48l.53,27.01,1.48-1.48H30.97l1.48,1.48v-27.07c-.02-.81-.67-1.45-1.48-1.48h-5.78l.75,2.75,26.89-19.67c1.51-1.1,0-3.66-1.49-2.54l-26.87,19.67c-.71,.41-.95,1.31-.54,2.01,.26,.45,.75,.74,1.27,.74h5.78l-1.48-1.48v27.05c.01,.81,.66,1.46,1.48,1.48h42.37c.81-.01,1.46-.66,1.48-1.48l-.57-27.07-1.48,1.48h5.63c.81-.01,1.47-.68,1.45-1.5,0-.51-.27-.97-.71-1.24l-26.36-19.67c-1.49-1.08-2.97,1.48-1.46,2.6Z"/><path class="cls-4" d="M60.79,55.72h-18.02l1.48,1.48v-17.43l-1.48,1.4h17.96l-1.48-1.48v17.43c0,.81,.66,1.48,1.48,1.48s1.48-.66,1.48-1.48v-17.35c-.01-.81-.66-1.46-1.48-1.48h-17.96c-.81,.01-1.46,.66-1.48,1.48v17.43c.01,.81,.66,1.46,1.48,1.48h17.96c.81,.02,1.49-.63,1.5-1.45s-.63-1.49-1.45-1.5Z"/><path class="cls-4" d="M50.33,39.77v17.43c0,.81,.66,1.48,1.48,1.48s1.48-.66,1.48-1.48v-17.43c0-.81-.66-1.48-1.48-1.48s-1.48,.66-1.48,1.48Z"/><path class="cls-4" d="M42.77,49.95h17.96c.81,0,1.48-.66,1.48-1.48s-.66-1.48-1.48-1.48h-17.96c-.81,0-1.48,.66-1.48,1.48s.66,1.48,1.48,1.48Z"/><circle class="cls-3" cx="24.11" cy="15.91" r="12.82"/><path class="cls-4" d="M15.81,19.09c-.85-.63-.3-.22,0,0s.49,.45,.73,.69l1.97,1.97,2.64,2.75c.91,.86,2.34,.82,3.2-.08,.11-.11,.2-.24,.28-.37l6.35-9.58,.89-1.36c.59-1.07,.2-2.43-.87-3.02,0,0-.01,0-.02,0-1.06-.59-2.39-.24-3.03,.79l-6.25,9.58-.89,1.36,3.48-.43-2.87-2.87c-1.05-1.15-2.18-2.23-3.38-3.23-1.05-.61-2.41-.26-3.03,.79-.59,1.06-.24,2.39,.79,3.03h.02Z"/><path class="cls-1" d="M40.81,1.82c.96-.24,1.97-.45,2.89-.63"/><path class="cls-2" d="M49.46,.49c24.77-1.29,45.89,17.74,47.18,42.51,1.29,24.77-17.74,45.89-42.51,47.18-24.77,1.29-45.89-17.74-47.18-42.51-.17-3.21,.01-6.44,.53-9.61"/><path class="cls-1" d="M8.06,35.26c.22-.96,.47-1.97,.77-2.85"/></svg>