<svg id="Layer_1" data-name="Layer 1" xmlns="http://www.w3.org/2000/svg" viewBox="0 0 99.76 90.61"><defs><style>.cls-1{fill:#0a0a0a;}</style></defs><path class="cls-1" d="M16.64,44.78v-31l-.75.75H78.67l-.75-.75v39.3l.37-.65a6.06,6.06,0,0,1-5.64-.27,27,27,0,0,1-4-3.51C65.1,45.43,60.5,43.07,55.54,44s-8.86,5-13.33,7.3c-4.81,2.46-10.85,1.27-15.06-1.91-2-1.5-3.57-3.48-5.56-5a5.79,5.79,0,0,0-6.08-.3c-.86.43-.11,1.73.75,1.29a5,5,0,0,1,2.22-.51c1.54,0,2.5.92,3.55,1.91A45.73,45.73,0,0,0,26.84,51c3.89,2.75,9.67,4.13,14.25,2.42,4.83-1.8,8.44-5.93,13.34-7.58,5.19-1.75,10,.89,13.77,4.37a23.34,23.34,0,0,0,3.69,3.2,8,8,0,0,0,6.42.61c.68-.25,1-.49,1.11-1.23s0-1.4,0-2.09v-37a.76.76,0,0,0-.75-.75H15.89a.76.76,0,0,0-.75.75v31A.75.75,0,0,0,16.64,44.78Z"/><path class="cls-1" d="M25.84,13.78v35.7a.75.75,0,0,0,1.5,0V13.78a.75.75,0,0,0-1.5,0Z"/><path class="cls-1" d="M40.87,37.51H26.69a.75.75,0,0,0,0,1.5H40.87a.75.75,0,0,0,0-1.5Z"/><path class="cls-1" d="M67.54,24.56H55a.75.75,0,0,0,0,1.5H67.54a.75.75,0,0,0,0-1.5Z"/><path class="cls-1" d="M67,13.78V48a.75.75,0,0,0,1.5,0V13.78a.75.75,0,0,0-1.5,0Z"/><path class="cls-1" d="M54.12,13.78V44.57a.75.75,0,0,0,1.5,0V13.78a.75.75,0,0,0-1.5,0Z"/><path class="cls-1" d="M40.12,13.78V51.84a.75.75,0,0,0,1.5,0V13.78a.75.75,0,0,0-1.5,0Z"/><path class="cls-1" d="M15.14,39.77V76.84a.76.76,0,0,0,.75.75H78.67a.77.77,0,0,0,.75-.75V46.73a.75.75,0,0,0-1.5,0V76.84l.75-.75H15.89l.75.75V39.77a.75.75,0,0,0-1.5,0Z"/><path class="cls-1" d="M22.43,53.18l-2.86,2.65-.4.38a.75.75,0,0,0,0,1.06.77.77,0,0,0,1.06,0l2.85-2.66.41-.37a.76.76,0,0,0,0-1.06.77.77,0,0,0-1.06,0Z"/><path class="cls-1" d="M74.36,68.43l-4.33,4-.61.56a.75.75,0,0,0,1.06,1.06l4.33-4,.61-.57a.75.75,0,0,0,0-1.06.77.77,0,0,0-1.06,0Z"/><path class="cls-1" d="M36.25,56.91,22.7,69.49l-1.9,1.77c-.71.66.35,1.72,1.06,1.07L35.4,59.74,37.31,58c.71-.66-.35-1.71-1.06-1.06Z"/><path class="cls-1" d="M67.25,60.68,56.77,70.41l-1.48,1.37c-.71.66.35,1.72,1.06,1.06l10.48-9.73,1.48-1.37C69,61.08,68,60,67.25,60.68Z"/><path class="cls-1" d="M56.37,53.18,39.5,68.84l-2.37,2.21c-.71.66.35,1.72,1.06,1.06L55.05,56.45l2.38-2.21c.71-.66-.36-1.72-1.06-1.06Z"/></svg>