<?xml version="1.0" encoding="UTF-8"?><svg id="Layer_1" xmlns="http://www.w3.org/2000/svg" viewBox="0 0 99.76 90.61"><defs><style>.cls-1{fill:#0a0a0a;}</style></defs><path class="cls-1" d="M46.42,71.28l-.33,14.4c.01,1.2,.98,2.17,2.18,2.18h16.93c.8,.03,1.54-.38,1.95-1.07l9.59-17.65h-3.77l12.34,17.78c.66,1.03,2.03,1.33,3.06,.68,.61-.39,.99-1.06,1.02-1.78l-.84-41.09-.12-5.84-2.18,2.18h11.28c1.73,0,3.11-2.51,1.56-3.74L57.76,5.3,51.92,.63c-.71-.69-1.78-.83-2.65-.35L6.88,32.42,.85,37c-1.03,.64-1.35,2-.71,3.03,.39,.63,1.08,1.02,1.82,1.04H13.42l-2.18-2.18v46.93c.01,1.2,.98,2.17,2.18,2.18h20.25c1.21-.11,2.1-1.19,1.98-2.4-.1-1.05-.93-1.88-1.98-1.98H13.42l2.2,2.2V38.88c-.02-1.21-.99-2.18-2.2-2.2H1.96l1.11,4.09L45.38,8.71l6.03-4.55-2.67-.35,41.3,32.02,5.93,4.59,1.54-3.74h-11.28c-1.21,.02-2.18,.99-2.2,2.2l.84,41.07,.12,5.84,4.09-1.11-12.34-17.78c-.66-1.05-2.04-1.37-3.08-.71-.29,.18-.53,.42-.71,.71l-9.57,17.65,1.95-1.09h-16.93l2.2,2.2,.25-14.4c-.11-1.21-1.19-2.1-2.4-1.98-1.05,.1-1.88,.93-1.98,1.98l-.06,.02Z"/><path class="cls-1" d="M32.78,52.89l.19,13.95c-.03,.8,.38,1.54,1.07,1.95,4.79,2.33,9.4,4.57,14.88,4.53s9.88-2.32,14.67-4.59c.7-.4,1.12-1.15,1.09-1.95v-13.89c-.02-1.21-.99-2.18-2.2-2.2h-27.51c-1.21,.11-2.1,1.19-1.98,2.4,.1,1.05,.93,1.88,1.98,1.98h27.41l-2.18-2.18v13.89l1.07-1.95c-3.99,1.95-7.78,3.89-12.35,3.89s-8.58-1.95-12.67-3.89l1.09,1.95-.19-13.95c-.13-1.21-1.21-2.08-2.42-1.95-1.05,.11-1.87,.96-1.96,2.01Z"/><path class="cls-1" d="M39.51,38.96v13.93c.11,1.21,1.19,2.1,2.4,1.98,1.05-.1,1.88-.93,1.98-1.98v-13.93c-.11-1.21-1.19-2.1-2.4-1.98-1.05,.1-1.88,.93-1.98,1.98Z"/><path class="cls-1" d="M53.32,38.96v13.93c-.02,1.2,.94,2.2,2.14,2.22,.01,0,.03,0,.04,0,1.22,.02,2.24-.95,2.26-2.18,0-.01,0-.03,0-.04v-13.93c-.11-1.21-1.19-2.1-2.4-1.98-1.05,.1-1.88,.93-1.98,1.98h-.06Z"/></svg>