<svg xmlns="http://www.w3.org/2000/svg" width="30" height="30" viewBox="0 0 30 30">
  <g id="kitchen_icon" transform="translate(18076 -19304)">
    <rect id="Rectangle_655" data-name="Rectangle 655" width="30" height="30" transform="translate(-18076 19304)" fill="none"/>
    <g id="Icon-02" transform="translate(-18074.293 19305.871)">
      <path id="Path_3369" data-name="Path 3369" d="M16.77,20.772h9.342a.154.154,0,0,0,.15-.15V18.254a.154.154,0,0,0-.15-.15h-.264l.142.189a2.439,2.439,0,0,0,.292-1V12.2a.154.154,0,0,0-.15-.15H16.77a.154.154,0,0,0-.15.15v8.422a.15.15,0,0,0,.3,0V12.2l-.146.146h9.342l-.146-.146v5a2.25,2.25,0,0,1-.28,1.018c-.039.091.055.185.142.185h.284l-.146-.146V20.63l.146-.146H16.77a.15.15,0,0,0,0,.288Z" transform="translate(-16.455 -12.042)" fill="rgba(0,0,0,0)" stroke="#4a4a4a" stroke-width="0.3"/>
      <path id="Path_3370" data-name="Path 3370" d="M63.87,12.188v5.158a2.048,2.048,0,0,0,.363.987l.126-.225h-.225a.15.15,0,0,0-.15.15v2.368a.154.154,0,0,0,.15.15h7.227a.15.15,0,0,0,.146-.15V12.188a.15.15,0,0,0-.146-.15H64.02a.15.15,0,0,0,0,.3h7.341l-.15-.146V20.61l.15-.146H64.134l.146.146V18.242l-.146.146h.225a.15.15,0,0,0,.13-.221l-.174-.32-.13-.253c0-.036-.043-.13,0,0a2,2,0,0,1,0-.343V12.188a.158.158,0,0,0-.316,0Z" transform="translate(-45.056 -12.03)" fill="rgba(0,0,0,0)" stroke="#4a4a4a" stroke-width="0.3"/>
      <path id="Path_3371" data-name="Path 3371" d="M40.3,12.2v4.409a.15.15,0,0,0,.146.15h9.307a.15.15,0,0,0,.146-.15V12.2a.15.15,0,0,0-.146-.15H40.446a.15.15,0,0,0,0,.3h9.307L49.6,12.2v4.409l.15-.146H40.446l.15.146V12.2a.15.15,0,0,0-.3,0Z" transform="translate(-30.789 -12.042)" fill="rgba(0,0,0,0)" stroke="#4a4a4a" stroke-width="0.3"/>
      <path id="Path_3372" data-name="Path 3372" d="M39.733,25.2h9.911a.15.15,0,0,0,.13-.221l-.213-.395a1.185,1.185,0,0,1-.1-.2c-.036-.1,0,.087,0-.039a8.149,8.149,0,0,1,0-.931.15.15,0,0,0-.146-.146H40a.15.15,0,0,0-.146.146,6.557,6.557,0,0,1,0,.924,4.886,4.886,0,0,1-.28.691c-.075.174.213.253.284.079a3.777,3.777,0,0,0,.292-.762,6.429,6.429,0,0,0,0-.955l-.15.15H49.3l-.15-.15a5.494,5.494,0,0,0,0,.987,3.079,3.079,0,0,0,.363.758l.126-.225H39.733a.15.15,0,0,0,0,.288Z" transform="translate(-30.34 -18.834)" fill="rgba(0,0,0,0)" stroke="#4a4a4a" stroke-width="0.3"/>
      <path id="Path_3373" data-name="Path 3373" d="M68.237,31.676h4.042a.15.15,0,0,0,0-.3H68.237a.15.15,0,0,0,0,.3Z" transform="translate(-47.623 -23.743)" fill="rgba(0,0,0,0)" stroke="#4a4a4a" stroke-width="0.3"/>
      <path id="Path_3374" data-name="Path 3374" d="M47.087,21.436h4.038a.15.15,0,0,0,0-.3H47.087a.15.15,0,0,0,0,.3Z" transform="translate(-34.821 -17.545)" fill="rgba(0,0,0,0)" stroke="#4a4a4a" stroke-width="0.3"/>
      <path id="Path_3375" data-name="Path 3375" d="M31.507,31.676h2.021a.15.15,0,0,0,0-.3H31.507a.15.15,0,0,0,0,.3Z" transform="translate(-25.39 -23.743)" fill="rgba(0,0,0,0)" stroke="#4a4a4a" stroke-width="0.3"/>
      <path id="Path_3376" data-name="Path 3376" d="M19.807,31.676H21.82a.15.15,0,0,0,0-.3H19.807a.15.15,0,0,0,0,.3Z" transform="translate(-18.308 -23.743)" fill="rgba(0,0,0,0)" stroke="#4a4a4a" stroke-width="0.3"/>
      <path id="Path_3377" data-name="Path 3377" d="M16.57,55.158v8.991a.154.154,0,0,0,.15.15h9.626a.15.15,0,0,0,.146-.15V55.158a.15.15,0,0,0-.146-.146H16.74a.15.15,0,0,0,0,.3h9.607l-.134-.15v8.991l.15-.146H16.74l.146.146V55.158a.158.158,0,0,0-.316,0Z" transform="translate(-16.425 -38.041)" fill="rgba(0,0,0,0)" stroke="#4a4a4a" stroke-width="0.3"/>
      <path id="Path_3378" data-name="Path 3378" d="M63.35,55.176v1.362c0,.446.3.7.568,1.054l.126-.221H63.5a.15.15,0,0,0-.146.146v6.65a.15.15,0,0,0,.146.15h7.55a.15.15,0,0,0,.146-.15V55.176a.15.15,0,0,0-.146-.146H63.5a.15.15,0,0,0,0,.3h7.55l-.15-.15v8.991l.15-.146H63.5l.15.146v-6.65l-.15.15h.549a.154.154,0,0,0,.13-.225l-.422-.556c-.142-.185-.107-.122-.107-.367V55.176a.15.15,0,0,0-.3,0Z" transform="translate(-44.741 -38.059)" fill="rgba(0,0,0,0)" stroke="#4a4a4a" stroke-width="0.3"/>
      <path id="Path_3379" data-name="Path 3379" d="M40.192,55.176v1.413c0,.249.032.111-.114.335l-.395.592a.15.15,0,0,0,.13.221h.525l-.146-.146v6.575a.15.15,0,0,0,.15.15h8.817a.15.15,0,0,0,.15-.15v-6.65l-.15.15h.549a.154.154,0,0,0,.13-.225l-.395-.549c-.154-.2-.114-.067-.114-.335V55.176a.15.15,0,0,0-.15-.146H40.326a.15.15,0,0,0,0,.3h8.833l-.146-.15c0,.489-.02.987,0,1.476,0,.367.351.651.568.939l.126-.221h-.549a.15.15,0,0,0-.146.146v6.65l.146-.146H40.326l.146.146V57.591a.15.15,0,0,0-.146-.15H39.8l.126.225c.2-.3.521-.624.545-.987.036-.5,0-1.006,0-1.5a.15.15,0,0,0-.276,0Z" transform="translate(-30.404 -38.059)" fill="rgba(0,0,0,0)" stroke="#4a4a4a" stroke-width="0.3"/>
      <path id="Path_3380" data-name="Path 3380" d="M42.8,62.446v4.14a.15.15,0,0,0,.146.146h7.388a.15.15,0,0,0,.146-.146v-4.14a.15.15,0,0,0-.146-.146H42.946a.15.15,0,0,0,0,.3h7.388l-.15-.15v4.14l.15-.15H42.946l.15.15v-4.14a.15.15,0,0,0-.3,0Z" transform="translate(-32.302 -42.46)" fill="rgba(0,0,0,0)" stroke="#4a4a4a" stroke-width="0.3"/>
      <path id="Path_3381" data-name="Path 3381" d="M64.74,43.276v3.749a.15.15,0,0,0,.146.146h6.86a.15.15,0,0,0,.146-.146V43.276a.15.15,0,0,0-.146-.146h-6.86a.15.15,0,0,0,0,.3h6.86l-.15-.15v3.749l.15-.15h-6.86l.15.15V43.276a.15.15,0,0,0-.3,0Z" transform="translate(-45.583 -30.856)" fill="rgba(0,0,0,0)" stroke="#4a4a4a" stroke-width="0.3"/>
      <path id="Path_3382" data-name="Path 3382" d="M66.61,45.15V47.4a.15.15,0,0,0,.15.15H70.9a.15.15,0,0,0,.146-.15V45.15A.15.15,0,0,0,70.9,45H66.764a.15.15,0,0,0,0,.3H70.9l-.15-.146V47.4l.15-.146H66.764l.146.146V45.15a.15.15,0,1,0-.3,0Z" transform="translate(-46.715 -31.988)" fill="rgba(0,0,0,0)" stroke="#4a4a4a" stroke-width="0.3"/>
      <path id="Path_3383" data-name="Path 3383" d="M40.448,59.49h8.924l.568.8H40.01Z" transform="translate(-30.613 -40.759)" fill="rgba(0,0,0,0)" stroke="#4a4a4a" stroke-width="0.3"/>
      <path id="Path_3384" data-name="Path 3384" d="M68.237,57.956h4.042a.15.15,0,0,0,0-.3H68.237a.15.15,0,0,0,0,.3Z" transform="translate(-47.623 -39.651)" fill="rgba(0,0,0,0)" stroke="#4a4a4a" stroke-width="0.3"/>
      <path id="Path_3385" data-name="Path 3385" d="M41.147,74.786H49.98a.15.15,0,0,0,0-.3H41.147a.15.15,0,0,0,0,.3Z" transform="translate(-31.225 -49.839)" fill="rgba(0,0,0,0)" stroke="#4a4a4a" stroke-width="0.3"/>
      <path id="Path_3386" data-name="Path 3386" d="M16.327,54.6H42.664a.15.15,0,0,0,0-.3H16.327a.15.15,0,0,0,0,.3Z" transform="translate(-16.201 -37.617)" fill="rgba(0,0,0,0)" stroke="#4a4a4a" stroke-width="0.3"/>
      <path id="Path_3387" data-name="Path 3387" d="M31.507,57.956h2.139a.15.15,0,0,0,0-.3H31.507a.15.15,0,0,0,0,.3Z" transform="translate(-25.39 -39.651)" fill="rgba(0,0,0,0)" stroke="#4a4a4a" stroke-width="0.3"/>
      <path id="Path_3388" data-name="Path 3388" d="M19.807,57.956h2.135a.15.15,0,0,0,0-.3H19.807a.15.15,0,0,0,0,.3Z" transform="translate(-18.308 -39.651)" fill="rgba(0,0,0,0)" stroke="#4a4a4a" stroke-width="0.3"/>
      <path id="Path_3389" data-name="Path 3389" d="M19.466,53.1V52.67l-.15.146h7.365l-.146-.146V53.1a.15.15,0,0,0,.3,0V52.67a.154.154,0,0,0-.15-.15H19.316a.15.15,0,0,0-.146.15V53.1a.15.15,0,0,0,.3,0Z" transform="translate(-17.998 -36.54)" fill="rgba(0,0,0,0)" stroke="#4a4a4a" stroke-width="0.3"/>
      <path id="Path_3390" data-name="Path 3390" d="M41.256,53.1V52.67l-.146.146h8.833L49.8,52.67V53.1a.15.15,0,0,0,.3,0V52.67a.15.15,0,0,0-.15-.15H41.11a.15.15,0,0,0-.15.15V53.1a.15.15,0,0,0,.3,0Z" transform="translate(-31.188 -36.54)" fill="rgba(0,0,0,0)" stroke="#4a4a4a" stroke-width="0.3"/>
      <path id="Path_3391" data-name="Path 3391" d="M78.266,43.307v3.749a.15.15,0,0,0,.28,0V43.307a.15.15,0,0,0-.3,0Z" transform="translate(-53.76 -30.887)" fill="rgba(0,0,0,0)" stroke="#4a4a4a" stroke-width="0.3"/>
      <path id="Path_3392" data-name="Path 3392" d="M56.453,52.027v-.395a.15.15,0,1,0-.3,0v.395a.15.15,0,0,0,.3,0Z" transform="translate(-40.386 -35.897)" fill="rgba(0,0,0,0)" stroke="#4a4a4a" stroke-width="0.3"/>
      <path id="Path_3393" data-name="Path 3393" d="M58.3,52.065V51.67a.154.154,0,0,0-.15-.15.15.15,0,0,0-.146.15v.395a.148.148,0,0,0,.3,0Z" transform="translate(-41.503 -35.934)" fill="rgba(0,0,0,0)" stroke="#4a4a4a" stroke-width="0.3"/>
      <path id="Path_3394" data-name="Path 3394" d="M60.053,52.027v-.395a.15.15,0,1,0-.3,0v.395a.148.148,0,0,0,.3,0Z" transform="translate(-42.565 -35.897)" fill="rgba(0,0,0,0)" stroke="#4a4a4a" stroke-width="0.3"/>
      <path id="Path_3395" data-name="Path 3395" d="M66.116,53.129V52.77a.148.148,0,1,0-.3,0v.375a.15.15,0,0,0,.146.15.154.154,0,0,0,.15-.15Z" transform="translate(-46.236 -36.6)" fill="rgba(0,0,0,0)" stroke="#4a4a4a" stroke-width="0.3"/>
      <path id="Path_3396" data-name="Path 3396" d="M81.3,53.129V52.77a.15.15,0,0,0-.146-.15.154.154,0,0,0-.162.15v.375a.15.15,0,1,0,.3,0Z" transform="translate(-55.422 -36.6)" fill="rgba(0,0,0,0)" stroke="#4a4a4a" stroke-width="0.3"/>
      <path id="Path_3397" data-name="Path 3397" d="M29.16,50.686v-1.07h.434l-.545-.284s.036-.335.789.292a.2.2,0,0,1,.055.158v.9Z" transform="translate(-23.979 -34.556)" fill="rgba(0,0,0,0)" stroke="#4a4a4a" stroke-width="0.3"/>
      <path id="Path_3398" data-name="Path 3398" d="M24.687,48.532l-2.522-2.048-.012.288H21.66V46.18h.73l2.3,1.918Z" transform="translate(-19.506 -32.702)" fill="rgba(0,0,0,0)" stroke="#4a4a4a" stroke-width="0.3"/>
      <rect id="Rectangle_607" data-name="Rectangle 607" width="0.628" height="0.434" rx="0.13" transform="translate(2.075 13.932)" fill="rgba(0,0,0,0)" stroke="#4a4a4a" stroke-width="0.3"/>
      <rect id="Rectangle_608" data-name="Rectangle 608" width="1.638" height="0.434" rx="0.17" transform="translate(13.502 17.82)" fill="rgba(0,0,0,0)" stroke="#4a4a4a" stroke-width="0.3"/>
      <rect id="Rectangle_609" data-name="Rectangle 609" width="0.785" height="0.434" rx="0.17" transform="translate(12.274 17.82)" fill="rgba(0,0,0,0)" stroke="#4a4a4a" stroke-width="0.3"/>
      <rect id="Rectangle_610" data-name="Rectangle 610" width="0.785" height="0.434" rx="0.17" transform="translate(15.526 17.82)" fill="rgba(0,0,0,0)" stroke="#4a4a4a" stroke-width="0.3"/>
      <rect id="Rectangle_611" data-name="Rectangle 611" width="0.785" height="0.434" rx="0.17" transform="translate(13.975 4.961)" fill="rgba(0,0,0,0)" stroke="#4a4a4a" stroke-width="0.3"/>
      <rect id="Rectangle_612" data-name="Rectangle 612" width="0.639" height="0.422" rx="0.16" transform="translate(25.097 13.49)" fill="rgba(0,0,0,0)" stroke="#4a4a4a" stroke-width="0.3"/>
      <rect id="Rectangle_613" data-name="Rectangle 613" width="0.639" height="0.75" rx="0.24" transform="translate(25.097 14.114)" fill="rgba(0,0,0,0)" stroke="#4a4a4a" stroke-width="0.3"/>
      <line id="Line_92" data-name="Line 92" y2="8.422" transform="translate(4.976 0.158)" fill="none" stroke="#4a4a4a" stroke-width="0.3"/>
      <line id="Line_93" data-name="Line 93" y2="8.991" transform="translate(4.976 17.117)" fill="none" stroke="#4a4a4a" stroke-width="0.3"/>
    </g>
  </g>
</svg>
