<svg id="Layer_1" data-name="Layer 1" xmlns="http://www.w3.org/2000/svg" viewBox="0 0 841.89 595.28"><defs><style>.cls-1,.cls-2{fill:#4f4f4f;}.cls-1{opacity:0.2;}.cls-3,.cls-4{fill:#80bb4d;}.cls-4{stroke:#80bb4d;stroke-miterlimit:10;stroke-width:0.25px;}</style></defs><path class="cls-1" d="M415.48,278.89l64.67-46.23a2.59,2.59,0,0,1,3.27,0l65.24,46.14c2.17,1.72,1.16,5.52-1.51,5.66l-10.79.53a3,3,0,0,0-2.68,3.11v72a3,3,0,0,1-2.81,3.12h-96.4a3,3,0,0,1-2.8-3.12V288.13A3,3,0,0,0,429,285L417,284.53C414.35,284.43,413.31,280.62,415.48,278.89Z"/><path class="cls-2" d="M571.6,291.19H561.45a4.56,4.56,0,0,0-4.5,4.5v55.63l4.5-4.5H480.24c-3.73,0-7.53-.19-11.26,0h-.16l4.5,4.5V295.69a4.57,4.57,0,0,0-4.5-4.5H457l2.27,8.38,19.31-13.4,30.78-21.38,7.09-4.92H512l18.73,12.84,2.67,1.83a4.53,4.53,0,0,0,6.16-1.61,4.62,4.62,0,0,0-1.61-6.16l-18.73-12.84-2.68-1.84a4.38,4.38,0,0,0-4.54,0l-19.3,13.41-30.79,21.38-7.09,4.92a4.5,4.5,0,0,0,2.27,8.39h11.78l-4.5-4.5v55.63a4.57,4.57,0,0,0,4.5,4.5H550c3.75,0,7.52.11,11.26,0h.17a4.57,4.57,0,0,0,4.5-4.5V295.69l-4.5,4.5H571.6a4.5,4.5,0,0,0,0-9Z"/><path class="cls-3" d="M493.05,311.72l15.23,20.5,2.16,2.89c2.1,2.84,5.67,2.91,7.77,0l12-16.7,19.13-26.6,4.37-6.07c1.38-1.92.4-5.1-1.61-6.16A4.63,4.63,0,0,0,546,281.2l-12,16.7-19.13,26.6-4.37,6.07h7.77L503,310.08l-2.16-2.9c-1.4-1.88-3.95-3-6.15-1.61-1.87,1.2-3.12,4.13-1.62,6.15Z"/><circle class="cls-3" cx="562.25" cy="269.95" r="6.76"/><path class="cls-2" d="M202.83,331.06a11.34,11.34,0,0,1-1.8,6.29,11.94,11.94,0,0,1-5.28,4.37,19.78,19.78,0,0,1-8.23,1.58,18.5,18.5,0,0,1-9.42-2.16,12.62,12.62,0,0,1-4.27-4.14,9.4,9.4,0,0,1-1.65-5,3.42,3.42,0,0,1,3.5-3.45,2.94,2.94,0,0,1,2.09.79,6.23,6.23,0,0,1,1.46,2.34,15.42,15.42,0,0,0,1.59,3.08,6.59,6.59,0,0,0,2.41,2,9,9,0,0,0,4.08.8,9.18,9.18,0,0,0,5.64-1.62,4.86,4.86,0,0,0,2.17-4,4.27,4.27,0,0,0-1.17-3.11,7.54,7.54,0,0,0-3-1.83q-1.86-.63-5-1.34a36.4,36.4,0,0,1-7-2.28,11.28,11.28,0,0,1-4.45-3.55,9.25,9.25,0,0,1-1.64-5.59,9.61,9.61,0,0,1,1.74-5.66,10.92,10.92,0,0,1,5-3.8,20.67,20.67,0,0,1,7.73-1.33,19.39,19.39,0,0,1,6.15.88,12.89,12.89,0,0,1,4.3,2.35,9.78,9.78,0,0,1,2.5,3.06,7.14,7.14,0,0,1,.79,3.13,3.68,3.68,0,0,1-1,2.51,3.14,3.14,0,0,1-2.46,1.12,2.84,2.84,0,0,1-2-.67,9.11,9.11,0,0,1-1.51-2.2,9.82,9.82,0,0,0-2.53-3.4c-1-.82-2.56-1.23-4.73-1.23a8.22,8.22,0,0,0-4.88,1.33,3.87,3.87,0,0,0-1.86,3.2,3.19,3.19,0,0,0,.64,2,5.31,5.31,0,0,0,1.73,1.44,11.4,11.4,0,0,0,2.24.95c.75.23,2,.56,3.73,1a56.85,56.85,0,0,1,5.91,1.69,18.16,18.16,0,0,1,4.5,2.23,9.27,9.27,0,0,1,2.89,3.33A10.57,10.57,0,0,1,202.83,331.06Z"/><path class="cls-2" d="M234.14,338.27l-1.84-4.84H216.62l-1.84,4.95a17,17,0,0,1-1.85,3.9,2.92,2.92,0,0,1-2.5,1,3.65,3.65,0,0,1-2.6-1.08,3.33,3.33,0,0,1-1.13-2.45,5.65,5.65,0,0,1,.26-1.63q.27-.84.87-2.34l9.87-25.05c.28-.72.61-1.58,1-2.59a12.72,12.72,0,0,1,1.26-2.51,5.17,5.17,0,0,1,1.76-1.62,6.23,6.23,0,0,1,5.42,0,5.23,5.23,0,0,1,1.77,1.59,12,12,0,0,1,1.13,2.09c.3.75.69,1.75,1.17,3l10.07,24.89a12.51,12.51,0,0,1,1.19,4.13,3.42,3.42,0,0,1-1.12,2.46,3.68,3.68,0,0,1-2.7,1.12,3.44,3.44,0,0,1-1.57-.33,3.24,3.24,0,0,1-1.11-.9,7.83,7.83,0,0,1-1-1.73C234.68,339.56,234.38,338.87,234.14,338.27Zm-15.47-10.71h11.52l-5.81-15.91Z"/><path class="cls-2" d="M258.4,308.1l15,22.73V307.89a5,5,0,0,1,1-3.36,3.25,3.25,0,0,1,2.59-1.12,3.37,3.37,0,0,1,2.66,1.12,5,5,0,0,1,1,3.36v30.33c0,3.38-1.4,5.08-4.21,5.08a5.35,5.35,0,0,1-1.89-.31,4.76,4.76,0,0,1-1.58-1,9,9,0,0,1-1.37-1.54q-.63-.87-1.26-1.8l-14.66-22.47v22.6a4.86,4.86,0,0,1-1,3.35A3.41,3.41,0,0,1,252,343.3a3.34,3.34,0,0,1-2.66-1.15,4.89,4.89,0,0,1-1-3.33V309.07a8.44,8.44,0,0,1,.42-3,4.25,4.25,0,0,1,1.66-1.94,4.5,4.5,0,0,1,2.5-.75,4.45,4.45,0,0,1,1.8.34,4.22,4.22,0,0,1,1.31.93,8.6,8.6,0,0,1,1.16,1.5C257.57,306.79,258,307.43,258.4,308.1Z"/><path class="cls-2" d="M289.47,338.53V308.15a5.16,5.16,0,0,1,1.07-3.55,3.61,3.61,0,0,1,2.79-1.19,3.73,3.73,0,0,1,2.86,1.17,5.07,5.07,0,0,1,1.09,3.57v30.38a5.11,5.11,0,0,1-1.09,3.58,3.71,3.71,0,0,1-2.86,1.19,3.58,3.58,0,0,1-2.77-1.2A5.14,5.14,0,0,1,289.47,338.53Z"/><path class="cls-2" d="M331.43,310.1h-17.6v9.47H330a3.8,3.8,0,0,1,2.66.8,2.72,2.72,0,0,1,.89,2.12,2.83,2.83,0,0,1-.87,2.14,3.79,3.79,0,0,1-2.68.83H313.83v11H332a4,4,0,0,1,2.78.86,2.93,2.93,0,0,1,.93,2.27,2.88,2.88,0,0,1-.93,2.22,4,4,0,0,1-2.78.86H310.8a5,5,0,0,1-3.67-1.13,5.1,5.1,0,0,1-1.12-3.66v-29a6.56,6.56,0,0,1,.5-2.75,3.12,3.12,0,0,1,1.57-1.55,6.49,6.49,0,0,1,2.72-.49h20.63a4,4,0,0,1,2.77.83,2.79,2.79,0,0,1,.91,2.17,2.84,2.84,0,0,1-.91,2.2A4,4,0,0,1,331.43,310.1Z"/><path class="cls-2" d="M352.45,326.14h-2.74v12.39a5.14,5.14,0,0,1-1.08,3.61,3.65,3.65,0,0,1-2.81,1.16,3.59,3.59,0,0,1-2.89-1.21,5.34,5.34,0,0,1-1-3.56V308.86a4.1,4.1,0,0,1,4.79-4.79H359.4a38.3,38.3,0,0,1,4.49.22,11.5,11.5,0,0,1,3.37.91,9.75,9.75,0,0,1,3.21,2.19,9.4,9.4,0,0,1,2.12,3.3,11,11,0,0,1,.72,4,9.65,9.65,0,0,1-2.43,6.9,14,14,0,0,1-7.38,3.65,14.51,14.51,0,0,1,4,3.26,32.18,32.18,0,0,1,3.38,4.6,33.53,33.53,0,0,1,2.32,4.39,8.81,8.81,0,0,1,.83,2.7,2.79,2.79,0,0,1-.49,1.51,3.39,3.39,0,0,1-1.33,1.18,4.18,4.18,0,0,1-1.95.44,3.83,3.83,0,0,1-2.21-.62,5.87,5.87,0,0,1-1.53-1.57c-.43-.63-1-1.56-1.75-2.79l-3.13-5.2a28.49,28.49,0,0,0-3-4.37,7.29,7.29,0,0,0-2.69-2.05A9.29,9.29,0,0,0,352.45,326.14Zm4.47-16.2h-7.21v10.6h7a19.33,19.33,0,0,0,4.74-.49,5.53,5.53,0,0,0,2.93-1.65,4.75,4.75,0,0,0,1-3.23,4.84,4.84,0,0,0-3.07-4.65A16.21,16.21,0,0,0,356.92,309.94Z"/><path class="cls-2" d="M406.12,310.1h-17.6v9.47h16.21a3.84,3.84,0,0,1,2.67.8,2.74,2.74,0,0,1,.88,2.12,2.83,2.83,0,0,1-.87,2.14,3.77,3.77,0,0,1-2.68.83H388.52v11h18.2a4,4,0,0,1,2.78.86,2.93,2.93,0,0,1,.93,2.27,2.88,2.88,0,0,1-.93,2.22,4,4,0,0,1-2.78.86H385.49a5,5,0,0,1-3.67-1.13,5.1,5.1,0,0,1-1.12-3.66v-29a6.56,6.56,0,0,1,.5-2.75,3.12,3.12,0,0,1,1.57-1.55,6.49,6.49,0,0,1,2.72-.49h20.63a4,4,0,0,1,2.78.83,2.81,2.81,0,0,1,.9,2.17,2.86,2.86,0,0,1-.9,2.2A4,4,0,0,1,406.12,310.1Z"/><path class="cls-2" d="M426.83,308.1l15,22.73V307.89a5,5,0,0,1,1-3.36,3.25,3.25,0,0,1,2.59-1.12,3.37,3.37,0,0,1,2.66,1.12,5,5,0,0,1,1,3.36v30.33c0,3.38-1.4,5.08-4.21,5.08a5.35,5.35,0,0,1-1.89-.31,4.76,4.76,0,0,1-1.58-1,9,9,0,0,1-1.37-1.54q-.63-.87-1.26-1.8l-14.66-22.47v22.6a4.86,4.86,0,0,1-1,3.35,3.41,3.41,0,0,1-2.63,1.13,3.33,3.33,0,0,1-2.66-1.15,4.89,4.89,0,0,1-1-3.33V309.07a8.44,8.44,0,0,1,.42-3,4.25,4.25,0,0,1,1.66-1.94,4.5,4.5,0,0,1,2.5-.75,4.45,4.45,0,0,1,1.8.34,4.22,4.22,0,0,1,1.31.93,8.6,8.6,0,0,1,1.16,1.5C426,306.79,426.4,307.43,426.83,308.1Z"/><path class="cls-4" d="M587.11,318.78a6.84,6.84,0,0,0,4.38-1.46,5.39,5.39,0,0,0,.38-7.75,5.29,5.29,0,0,0-4-1.5,7.18,7.18,0,0,0-2.78.46,4.59,4.59,0,0,0-1.73,1.21,9.55,9.55,0,0,0-1.2,1.94c-.38.8-.72,1.54-1,2.24a1.86,1.86,0,0,1-1,.89,4,4,0,0,1-1.66.33,2.94,2.94,0,0,1-2-.88,3.07,3.07,0,0,1-.92-2.33,6.08,6.08,0,0,1,.87-3,11,11,0,0,1,2.54-3,13.13,13.13,0,0,1,4.17-2.25,17,17,0,0,1,5.56-.85,15.74,15.74,0,0,1,4.89.72,11.38,11.38,0,0,1,3.85,2.06,9.09,9.09,0,0,1,2.46,3.13,9,9,0,0,1,.83,3.83,8.51,8.51,0,0,1-1.21,4.62,15.61,15.61,0,0,1-3.44,3.76,15.45,15.45,0,0,1,3.64,2.59,10,10,0,0,1,2.22,3.22,9.68,9.68,0,0,1,.75,3.82,11.67,11.67,0,0,1-1,4.74,12.1,12.1,0,0,1-3,4.09,14.17,14.17,0,0,1-4.66,2.8,16.76,16.76,0,0,1-6,1,14.62,14.62,0,0,1-6-1.15,13.92,13.92,0,0,1-4.33-2.9,13.27,13.27,0,0,1-2.57-3.6,7.68,7.68,0,0,1-.87-3.08,3.27,3.27,0,0,1,1-2.52,3.69,3.69,0,0,1,2.59-1,2.76,2.76,0,0,1,1.49.45,2.09,2.09,0,0,1,.94,1.06,17.94,17.94,0,0,0,3.09,5.57,5.9,5.9,0,0,0,4.63,1.82,7.08,7.08,0,0,0,3.31-.82,6.89,6.89,0,0,0,2.63-2.44,7.6,7.6,0,0,0-.74-8.7,6.62,6.62,0,0,0-4.92-1.79c-.37,0-.94,0-1.72.11s-1.27.11-1.49.11a3.38,3.38,0,0,1-2.35-.75,2.62,2.62,0,0,1-.83-2.06,2.55,2.55,0,0,1,1-2.09,4.69,4.69,0,0,1,3-.79Z"/><path class="cls-4" d="M615.51,321.26a12.54,12.54,0,0,1,4.1-3.24,11.37,11.37,0,0,1,4.95-1,12.1,12.1,0,0,1,4.85,1,11.54,11.54,0,0,1,3.9,2.72,12.39,12.39,0,0,1,2.59,4.17,13.94,13.94,0,0,1,.91,5,13.6,13.6,0,0,1-1.78,6.91,12.6,12.6,0,0,1-5,4.84,14.86,14.86,0,0,1-7.23,1.73,14.28,14.28,0,0,1-8-2.21,13.86,13.86,0,0,1-5.15-6.54A27.75,27.75,0,0,1,607.85,324a35.13,35.13,0,0,1,1.08-9.11,18.87,18.87,0,0,1,3.1-6.66,12.93,12.93,0,0,1,4.89-4,15.29,15.29,0,0,1,6.56-1.35,13.78,13.78,0,0,1,6.24,1.35,10.31,10.31,0,0,1,4.06,3.34,6.77,6.77,0,0,1,1.37,3.83,2.82,2.82,0,0,1-.86,2,2.88,2.88,0,0,1-2.18.9,3.7,3.7,0,0,1-2.16-.71,4.14,4.14,0,0,1-1.46-2,5.73,5.73,0,0,0-2-2.6,5.45,5.45,0,0,0-3.21-1,5.85,5.85,0,0,0-2.92.82,7.63,7.63,0,0,0-2.45,2.22Q615.88,313.93,615.51,321.26ZM623,338a5.74,5.74,0,0,0,4.62-2.22,8.89,8.89,0,0,0,1.83-5.84,9.6,9.6,0,0,0-.86-4.22,6.36,6.36,0,0,0-2.35-2.7,6.11,6.11,0,0,0-3.29-.93,6.55,6.55,0,0,0-3.28.89,6.72,6.72,0,0,0-2.52,2.58,7.94,7.94,0,0,0-1,3.95,9.43,9.43,0,0,0,1.93,6.07A6,6,0,0,0,623,338Z"/><path class="cls-4" d="M665.13,309.77H652l-1.58,8.74a15.78,15.78,0,0,1,7.25-2.05,12.61,12.61,0,0,1,5,1,12.83,12.83,0,0,1,4,2.68,12.28,12.28,0,0,1,2.74,4.06,12.63,12.63,0,0,1,1,5,14.3,14.3,0,0,1-1.8,7.12,13.13,13.13,0,0,1-5.19,5.1,15.76,15.76,0,0,1-7.81,1.88,16.07,16.07,0,0,1-8-1.77,11.31,11.31,0,0,1-4.37-4.09,8.64,8.64,0,0,1-1.28-4,2.88,2.88,0,0,1,.9-2,3,3,0,0,1,2.25-.94q2.32,0,3.46,2.62a9.11,9.11,0,0,0,3,3.73,7.07,7.07,0,0,0,4.2,1.33,6.56,6.56,0,0,0,3.73-1.07,7,7,0,0,0,2.48-3,10.15,10.15,0,0,0,.87-4.29,9.55,9.55,0,0,0-.94-4.42,6.46,6.46,0,0,0-2.52-2.74,7,7,0,0,0-3.51-.9,7.43,7.43,0,0,0-3.4.57,28.83,28.83,0,0,0-3,2,5.87,5.87,0,0,1-3.16,1.41,3.5,3.5,0,0,1-2.41-1,2.89,2.89,0,0,1-1-2.17c0-.09.1-.71.3-1.84l2.33-12.91a6,6,0,0,1,1.44-3.38,4.71,4.71,0,0,1,3.43-1.05H665c2.88,0,4.31,1.07,4.31,3.21a2.8,2.8,0,0,1-1,2.27A4.81,4.81,0,0,1,665.13,309.77Z"/></svg>