<?xml version="1.0" encoding="UTF-8"?><svg id="Layer_1" xmlns="http://www.w3.org/2000/svg" viewBox="0 0 616.3 165.51"><defs><style>.cls-1{fill:#fff;}.cls-2,.cls-3{fill:#80bb4d;}.cls-3{stroke:#80bb4d;stroke-miterlimit:10;stroke-width:.25px;}.cls-4{fill:#c4c3c2;opacity:.2;}</style></defs><g><path class="cls-4" d="M301.46,62.26L380.65,5.66c1.19-.95,2.8-.96,4-.01l79.89,56.51c2.66,2.11,1.42,6.76-1.84,6.92l-13.22,.66c-1.84,.09-3.28,1.77-3.28,3.81v88.14c0,2.11-1.54,3.82-3.44,3.82h-118.05c-1.9,0-3.44-1.71-3.44-3.82V73.58c0-2.05-1.46-3.74-3.31-3.81l-14.63-.59c-3.27-.13-4.54-4.79-1.88-6.91Z"/><g><g><path class="cls-1" d="M492.65,76.84h-12.44c-3.24,0-6,2.75-6,6v68.13l6-6h-99.52c-4.56,0-9.16-.17-13.72,0-.07,0-.13,0-.2,0l6,6c0-7.71,0-15.41,0-23.12,0-12.19,0-24.37,0-36.56,0-2.81,0-5.63,0-8.44,0-3.24-2.75-6-6-6h-14.42l3.03,11.18c7.9-5.49,15.8-10.98,23.71-16.46,12.58-8.73,25.15-17.47,37.73-26.2,2.86-1.99,5.72-3.98,8.59-5.96h-6.06c7.65,5.25,15.31,10.5,22.96,15.75,1.08,.74,2.16,1.48,3.24,2.23,2.6,1.78,6.77,.57,8.21-2.15,1.61-3.05,.62-6.31-2.15-8.21-7.65-5.25-15.31-10.5-22.96-15.75-1.08-.74-2.16-1.48-3.24-2.23-1.63-1.12-4.42-1.13-6.06,0-7.9,5.49-15.8,10.98-23.71,16.46-12.58,8.73-25.15,17.47-37.73,26.2-2.86,1.99-5.72,3.98-8.59,5.96-2.12,1.47-3.61,4.13-2.76,6.78s3.06,4.4,5.79,4.4h14.42l-6-6c0,7.71,0,15.41,0,23.12,0,12.19,0,24.37,0,36.56,0,2.81,0,5.63,0,8.44,0,3.24,2.75,6,6,6h99.52c4.57,0,9.15,.11,13.72,0,.07,0,.13,0,.2,0,3.24,0,6-2.75,6-6V82.84l-6,6h12.44c3.14,0,6.15-2.76,6-6s-2.64-6-6-6h0Z"/><path class="cls-2" d="M397.33,101.96c6.23,8.38,12.45,16.76,18.68,25.14,.87,1.17,1.74,2.34,2.61,3.51,2.11,2.83,5.68,2.91,7.77,0,4.93-6.85,9.85-13.7,14.78-20.55,7.79-10.83,15.57-21.65,23.36-32.48,1.79-2.48,3.57-4.96,5.36-7.44,1.38-1.92,.4-5.09-1.61-6.16-2.33-1.23-4.68-.43-6.16,1.61-4.93,6.85-9.85,13.7-14.78,20.55-7.79,10.83-15.57,21.65-23.36,32.48-1.79,2.48-3.57,4.96-5.36,7.44h7.77c-6.23-8.38-12.45-16.76-18.68-25.14-.87-1.17-1.74-2.34-2.61-3.51-1.4-1.88-3.96-3.03-6.16-1.61-1.86,1.2-3.12,4.14-1.61,6.16h0Z"/></g><circle class="cls-2" cx="481.2" cy="51.31" r="8.28"/></g></g><g><path class="cls-1" d="M43.67,125.25c0,3.04-.78,5.77-2.35,8.19-1.57,2.42-3.86,4.32-6.87,5.69-3.02,1.37-6.59,2.06-10.73,2.06-4.96,0-9.05-.94-12.27-2.81-2.29-1.35-4.14-3.15-5.57-5.4-1.43-2.25-2.14-4.44-2.14-6.56,0-1.23,.43-2.29,1.29-3.17,.86-.88,1.95-1.32,3.27-1.32,1.07,0,1.98,.34,2.72,1.03,.74,.69,1.38,1.7,1.9,3.05,.64,1.6,1.33,2.94,2.07,4.01,.74,1.08,1.79,1.96,3.14,2.66,1.35,.7,3.12,1.04,5.31,1.04,3.02,0,5.47-.7,7.35-2.11,1.88-1.41,2.83-3.16,2.83-5.26,0-1.67-.51-3.02-1.53-4.06-1.02-1.04-2.33-1.83-3.94-2.38-1.61-.55-3.77-1.13-6.46-1.75-3.61-.84-6.63-1.83-9.07-2.96s-4.37-2.67-5.79-4.63c-1.43-1.95-2.14-4.38-2.14-7.28s.75-5.22,2.26-7.37c1.51-2.15,3.69-3.8,6.55-4.95,2.86-1.15,6.22-1.73,10.08-1.73,3.08,0,5.75,.38,8,1.15s4.12,1.78,5.6,3.05c1.49,1.27,2.57,2.6,3.26,3.99,.69,1.39,1.03,2.75,1.03,4.08,0,1.21-.43,2.3-1.29,3.27-.86,.97-1.92,1.46-3.21,1.46-1.17,0-2.05-.29-2.66-.87s-1.26-1.54-1.97-2.86c-.91-1.9-2.01-3.38-3.29-4.44-1.28-1.06-3.34-1.59-6.17-1.59-2.63,0-4.75,.58-6.36,1.73-1.61,1.15-2.42,2.54-2.42,4.17,0,1.01,.27,1.87,.82,2.6,.55,.73,1.3,1.36,2.26,1.89s1.93,.94,2.91,1.23c.98,.3,2.6,.73,4.87,1.3,2.83,.66,5.4,1.39,7.7,2.19s4.25,1.77,5.86,2.91c1.61,1.14,2.87,2.59,3.77,4.34,.9,1.75,1.35,3.89,1.35,6.43Z"/><path class="cls-1" d="M84.46,134.64l-2.4-6.31h-20.43l-2.4,6.45c-.94,2.51-1.74,4.21-2.4,5.09-.66,.88-1.75,1.32-3.26,1.32-1.28,0-2.41-.47-3.39-1.41-.98-.94-1.47-2-1.47-3.19,0-.69,.11-1.39,.34-2.12,.23-.73,.6-1.75,1.13-3.05l12.85-32.63c.37-.94,.81-2.06,1.32-3.38,.51-1.31,1.06-2.41,1.65-3.27,.58-.87,1.35-1.57,2.3-2.11s2.12-.81,3.51-.81,2.6,.27,3.55,.81,1.71,1.23,2.3,2.07c.58,.85,1.07,1.75,1.47,2.73,.4,.97,.91,2.27,1.53,3.89l13.13,32.43c1.03,2.47,1.54,4.26,1.54,5.38s-.49,2.23-1.46,3.21c-.97,.97-2.14,1.46-3.51,1.46-.8,0-1.49-.14-2.06-.43-.57-.29-1.05-.67-1.44-1.17-.39-.49-.81-1.25-1.25-2.26-.45-1.02-.83-1.91-1.15-2.69Zm-20.16-13.95h15.01l-7.58-20.74-7.44,20.74Z"/><path class="cls-1" d="M116.07,95.32l19.57,29.62v-29.89c0-1.94,.42-3.4,1.25-4.37,.83-.97,1.96-1.46,3.38-1.46s2.62,.49,3.46,1.46c.85,.97,1.27,2.43,1.27,4.37v39.52c0,4.41-1.83,6.62-5.48,6.62-.91,0-1.74-.13-2.47-.39-.73-.26-1.42-.68-2.06-1.25-.64-.57-1.23-1.24-1.78-2.01-.55-.77-1.1-1.55-1.65-2.35l-19.09-29.27v29.45c0,1.92-.45,3.37-1.34,4.35s-2.03,1.47-3.43,1.47-2.59-.5-3.46-1.49c-.87-.99-1.3-2.44-1.3-4.34v-38.77c0-1.65,.18-2.94,.55-3.87,.43-1.03,1.15-1.87,2.16-2.52,1-.65,2.09-.98,3.26-.98,.91,0,1.7,.15,2.35,.45s1.22,.7,1.71,1.2c.49,.5,.99,1.15,1.51,1.95,.51,.8,1.05,1.63,1.59,2.5Z"/><path class="cls-1" d="M156.55,134.98v-39.59c0-2.06,.47-3.6,1.41-4.63,.94-1.03,2.15-1.54,3.63-1.54s2.77,.51,3.72,1.53,1.42,2.57,1.42,4.64v39.59c0,2.08-.47,3.63-1.42,4.66s-2.19,1.54-3.72,1.54-2.67-.52-3.62-1.56c-.95-1.04-1.42-2.59-1.42-4.64Z"/><path class="cls-1" d="M211.22,97.93h-22.93v12.34h21.12c1.55,0,2.71,.35,3.48,1.05,.76,.7,1.15,1.62,1.15,2.76s-.38,2.07-1.13,2.79-1.92,1.08-3.5,1.08h-21.12v14.29h23.72c1.6,0,2.8,.37,3.62,1.11,.81,.74,1.22,1.73,1.22,2.96s-.41,2.15-1.22,2.9c-.81,.74-2.02,1.11-3.62,1.11h-27.66c-2.22,0-3.81-.49-4.78-1.47-.97-.98-1.46-2.57-1.46-4.76v-37.78c0-1.46,.22-2.66,.65-3.58,.43-.93,1.11-1.6,2.04-2.02,.92-.42,2.11-.63,3.55-.63h26.87c1.62,0,2.83,.36,3.62,1.08,.79,.72,1.18,1.66,1.18,2.83s-.39,2.14-1.18,2.86c-.79,.72-1.99,1.08-3.62,1.08Z"/><path class="cls-1" d="M238.61,118.84h-3.57v16.15c0,2.12-.47,3.69-1.41,4.7-.94,1.01-2.16,1.51-3.67,1.51-1.62,0-2.88-.53-3.77-1.58s-1.34-2.59-1.34-4.63v-38.67c0-2.19,.49-3.78,1.47-4.76s2.57-1.47,4.76-1.47h16.56c2.28,0,4.24,.1,5.86,.29,1.62,.19,3.08,.59,4.39,1.18,1.58,.66,2.97,1.61,4.18,2.84s2.13,2.67,2.76,4.3c.63,1.63,.94,3.37,.94,5.19,0,3.75-1.06,6.74-3.17,8.98-2.11,2.24-5.32,3.83-9.62,4.76,1.81,.96,3.53,2.38,5.18,4.25,1.65,1.87,3.11,3.87,4.4,5.98,1.29,2.11,2.3,4.02,3.02,5.72s1.08,2.87,1.08,3.51-.21,1.32-.63,1.97-1,1.17-1.73,1.54c-.73,.38-1.58,.57-2.54,.57-1.14,0-2.1-.27-2.88-.81-.78-.54-1.45-1.22-2.01-2.04-.56-.82-1.32-2.03-2.28-3.63l-4.08-6.79c-1.46-2.49-2.77-4.39-3.92-5.69-1.15-1.3-2.33-2.19-3.51-2.67-1.19-.48-2.69-.72-4.49-.72Zm5.83-21.12h-9.39v13.81h9.12c2.45,0,4.5-.21,6.17-.63,1.67-.42,2.94-1.14,3.82-2.16,.88-1.02,1.32-2.42,1.32-4.2,0-1.39-.35-2.62-1.06-3.68-.71-1.06-1.69-1.86-2.95-2.38-1.19-.5-3.53-.75-7.03-.75Z"/><path class="cls-1" d="M308.54,97.93h-22.93v12.34h21.12c1.55,0,2.71,.35,3.48,1.05,.76,.7,1.15,1.62,1.15,2.76s-.38,2.07-1.13,2.79-1.92,1.08-3.5,1.08h-21.12v14.29h23.72c1.6,0,2.8,.37,3.62,1.11,.81,.74,1.22,1.73,1.22,2.96s-.41,2.15-1.22,2.9c-.81,.74-2.02,1.11-3.62,1.11h-27.66c-2.22,0-3.81-.49-4.78-1.47-.97-.98-1.46-2.57-1.46-4.76v-37.78c0-1.46,.22-2.66,.65-3.58,.43-.93,1.11-1.6,2.04-2.02,.92-.42,2.11-.63,3.55-.63h26.87c1.62,0,2.83,.36,3.62,1.08,.79,.72,1.18,1.66,1.18,2.83s-.39,2.14-1.18,2.86c-.79,.72-1.99,1.08-3.62,1.08Z"/><path class="cls-1" d="M335.52,95.32l19.57,29.62v-29.89c0-1.94,.42-3.4,1.25-4.37,.83-.97,1.96-1.46,3.38-1.46s2.62,.49,3.46,1.46c.85,.97,1.27,2.43,1.27,4.37v39.52c0,4.41-1.83,6.62-5.48,6.62-.91,0-1.74-.13-2.47-.39-.73-.26-1.42-.68-2.06-1.25-.64-.57-1.23-1.24-1.78-2.01-.55-.77-1.1-1.55-1.65-2.35l-19.09-29.27v29.45c0,1.92-.45,3.37-1.34,4.35s-2.03,1.47-3.43,1.47-2.59-.5-3.46-1.49c-.87-.99-1.3-2.44-1.3-4.34v-38.77c0-1.65,.18-2.94,.55-3.87,.43-1.03,1.15-1.87,2.16-2.52,1-.65,2.09-.98,3.26-.98,.91,0,1.7,.15,2.35,.45s1.22,.7,1.71,1.2c.49,.5,.99,1.15,1.51,1.95,.51,.8,1.05,1.63,1.59,2.5Z"/></g><g><path class="cls-3" d="M511.64,111.11c2.08,0,3.87-.59,5.37-1.78,1.5-1.19,2.25-2.89,2.25-5.12,0-1.7-.6-3.15-1.79-4.38-1.2-1.22-2.81-1.83-4.84-1.83-1.38,0-2.51,.19-3.4,.56-.89,.38-1.6,.87-2.12,1.49s-1.01,1.41-1.47,2.38c-.46,.97-.89,1.88-1.27,2.74-.23,.46-.63,.83-1.22,1.09-.59,.26-1.26,.4-2.03,.4-.9,0-1.73-.36-2.49-1.07-.76-.71-1.13-1.67-1.13-2.86s.36-2.35,1.07-3.62c.71-1.27,1.75-2.47,3.12-3.62,1.37-1.14,3.07-2.06,5.1-2.76s4.3-1.04,6.81-1.04c2.19,0,4.19,.29,6,.88,1.81,.58,3.38,1.43,4.71,2.53,1.33,1.1,2.34,2.38,3.01,3.83,.68,1.45,1.02,3.02,1.02,4.69,0,2.2-.49,4.09-1.47,5.66-.98,1.57-2.39,3.11-4.22,4.61,1.76,.92,3.25,1.98,4.45,3.17,1.21,1.19,2.12,2.5,2.73,3.95,.61,1.44,.92,3,.92,4.67,0,2-.41,3.94-1.24,5.81s-2.04,3.54-3.64,5-3.51,2.61-5.71,3.43c-2.2,.83-4.64,1.24-7.3,1.24s-5.14-.47-7.28-1.42c-2.15-.95-3.91-2.13-5.3-3.55s-2.44-2.89-3.15-4.41c-.71-1.52-1.07-2.77-1.07-3.76,0-1.28,.42-2.31,1.27-3.09,.85-.78,1.9-1.17,3.17-1.17,.63,0,1.24,.18,1.83,.54s.97,.8,1.15,1.3c1.17,3.06,2.43,5.33,3.78,6.82,1.34,1.49,3.23,2.23,5.67,2.23,1.4,0,2.75-.34,4.05-1.01,1.3-.67,2.37-1.67,3.22-2.99,.85-1.32,1.27-2.85,1.27-4.59,0-2.58-.72-4.6-2.17-6.06s-3.46-2.2-6.03-2.2c-.45,0-1.15,.04-2.1,.13s-1.56,.13-1.83,.13c-1.24,0-2.2-.3-2.88-.91-.68-.61-1.02-1.45-1.02-2.53s.41-1.91,1.22-2.56c.81-.65,2.02-.97,3.62-.97h1.39Z"/><path class="cls-3" d="M546.42,114.15c1.54-1.78,3.21-3.1,5.01-3.96s3.83-1.29,6.06-1.29,4.13,.39,5.94,1.17,3.41,1.89,4.78,3.33c1.37,1.44,2.42,3.14,3.17,5.1,.75,1.96,1.12,4.01,1.12,6.14,0,3.1-.73,5.92-2.19,8.45-1.46,2.53-3.49,4.51-6.1,5.93s-5.56,2.13-8.86,2.13c-3.79,0-7.07-.9-9.82-2.71-2.75-1.81-4.86-4.47-6.32-8.01-1.46-3.53-2.19-7.85-2.19-12.96,0-4.16,.44-7.88,1.32-11.16s2.15-6,3.79-8.16c1.65-2.16,3.65-3.79,6-4.89s5.02-1.65,8.03-1.65,5.44,.55,7.64,1.65c2.2,1.1,3.86,2.47,4.98,4.09,1.12,1.63,1.68,3.19,1.68,4.69,0,.9-.35,1.72-1.05,2.46s-1.59,1.11-2.68,1.11c-.95,0-1.83-.29-2.64-.88-.81-.58-1.41-1.39-1.8-2.43-.52-1.32-1.34-2.38-2.47-3.19s-2.44-1.21-3.93-1.21c-1.2,0-2.39,.34-3.57,1.01-1.19,.67-2.19,1.58-3,2.72-1.65,2.33-2.62,6.49-2.91,12.48Zm9.15,20.51c2.28,0,4.17-.91,5.66-2.72,1.49-1.82,2.24-4.2,2.24-7.15,0-2-.35-3.73-1.05-5.17-.7-1.44-1.66-2.54-2.88-3.3-1.22-.76-2.56-1.14-4.03-1.14s-2.74,.36-4.01,1.09c-1.28,.73-2.3,1.78-3.08,3.15-.78,1.38-1.17,2.99-1.17,4.84,0,2.97,.79,5.45,2.37,7.43,1.58,1.98,3.57,2.97,5.96,2.97Z"/><path class="cls-3" d="M607.19,100.08h-16.09l-1.93,10.7c3.21-1.67,6.17-2.51,8.87-2.51,2.17,0,4.19,.4,6.08,1.19,1.89,.79,3.54,1.89,4.96,3.29,1.42,1.4,2.54,3.05,3.35,4.97,.81,1.92,1.22,3.97,1.22,6.17,0,3.19-.73,6.1-2.2,8.72-1.47,2.62-3.59,4.7-6.35,6.24-2.77,1.54-5.96,2.31-9.57,2.31-4.04,0-7.32-.73-9.84-2.18-2.52-1.45-4.3-3.12-5.35-5-1.05-1.88-1.58-3.53-1.58-4.94,0-.86,.37-1.67,1.1-2.44,.73-.77,1.65-1.16,2.76-1.16,1.9,0,3.31,1.07,4.23,3.2,.9,1.96,2.12,3.48,3.66,4.57,1.54,1.09,3.25,1.63,5.15,1.63,1.74,0,3.26-.44,4.57-1.32,1.31-.88,2.32-2.09,3.03-3.63,.71-1.54,1.07-3.29,1.07-5.25,0-2.11-.38-3.92-1.15-5.42-.77-1.5-1.79-2.61-3.08-3.35-1.29-.74-2.72-1.11-4.3-1.11-1.94,0-3.33,.23-4.17,.69-.84,.46-2.04,1.27-3.61,2.43-1.57,1.16-2.86,1.73-3.88,1.73-1.11,0-2.09-.39-2.95-1.17-.86-.78-1.29-1.67-1.29-2.66,0-.11,.12-.86,.37-2.25l2.85-15.82c.32-1.89,.9-3.27,1.76-4.13,.86-.86,2.26-1.29,4.2-1.29h17.88c3.52,0,5.28,1.31,5.28,3.93,0,1.15-.43,2.07-1.29,2.77-.86,.7-2.12,1.06-3.79,1.06Z"/></g></svg>