<svg xmlns="http://www.w3.org/2000/svg" viewBox="0 0 154.38 40.29" width="150" height="150" style="height:40px"><defs><style>.prefix__cls-2{fill-rule:evenodd;fill:#173f5f}</style></defs><g id="prefix__Layer_2" data-name="Layer 2"><g id="prefix__Layer_1-2" data-name="Layer 1"><path d="M26.94 2.71L14.94 0a1.22 1.22 0 00-.86.33h-.05L2 13.14.54 14.73a1.77 1.77 0 00-.39.6 6.24 6.24 0 00-.13 2v17.52H0v.68c0 .51.44.75 1 .54l13.89-5.82L28 24.77a1.67 1.67 0 001-1.35V5.26a5 5 0 00-.13-1.93.55.55 0 00-.39-.28z" fill-rule="evenodd" fill="#f6d55c"></path><path class="prefix__cls-2" d="M49 21.91a8.48 8.48 0 01-4.17-1 .86.86 0 01-.39-.75.9.9 0 01.26-.64.8.8 0 01.64-.28 1 1 0 01.41.09 8.46 8.46 0 001.46.51 7 7 0 001.65.18c1.69 0 2.54-.54 2.54-1.62a.87.87 0 00-.59-.8 10.89 10.89 0 00-1.9-.6 18.71 18.71 0 01-2.23-.67 3.73 3.73 0 01-1.5-1 2.62 2.62 0 01-.63-1.84 3.29 3.29 0 011.15-2.6 4.84 4.84 0 013.31-1 9.51 9.51 0 013.31.57.84.84 0 01.49.34.91.91 0 01.18.53.89.89 0 01-.27.64.86.86 0 01-.65.27 1.37 1.37 0 01-.3 0 8.54 8.54 0 00-2.6-.41 3.67 3.67 0 00-1.94.44 1.35 1.35 0 00-.69 1.16 1 1 0 00.64 1 8.74 8.74 0 002 .62 19 19 0 012.19.68 3.57 3.57 0 011.45 1 2.78 2.78 0 01.61 1.9A3 3 0 0152.27 21a5 5 0 01-3.26 1zm9.2 0a4.29 4.29 0 01-1.86-.41A3.17 3.17 0 0155 20.3a3.27 3.27 0 01-.5-1.82 3.2 3.2 0 011.33-2.7 6.49 6.49 0 013.93-1h2.76v-.19a2.77 2.77 0 00-.74-2.17 3.42 3.42 0 00-2.32-.66 7.9 7.9 0 00-1.54.13 11.64 11.64 0 00-1.5.42 1.24 1.24 0 01-.3 0 .78.78 0 01-.59-.25.84.84 0 01-.26-.62.89.89 0 01.6-.87 10 10 0 014-.82 5.11 5.11 0 012.66.64 4 4 0 011.6 1.66 4.85 4.85 0 01.52 2.2v6.48a1 1 0 01-.31.73 1.05 1.05 0 01-.75.3 1 1 0 01-1-1v-.6a5.73 5.73 0 01-4.3 1.74zm.8-1.83a4.15 4.15 0 001.95-.49 5.51 5.51 0 001.57-1.22v-1.92H60q-3.45 0-3.45 1.8a1.69 1.69 0 00.56 1.33 2.78 2.78 0 001.86.5zm9.16 1.72a1 1 0 01-1-1V11a1.05 1.05 0 01.3-.75 1 1 0 01.73-.31A1.06 1.06 0 0169.21 11v.93a7.58 7.58 0 011.87-1.53 4.76 4.76 0 012.38-.57 4 4 0 012.19.59A3.86 3.86 0 0177.06 12a5.13 5.13 0 01.5 2.26v6.5a1 1 0 01-.31.73 1.05 1.05 0 01-.75.3 1 1 0 01-1-1V14.5c0-1.86-.83-2.79-2.51-2.79a3.63 3.63 0 00-2 .6 7.25 7.25 0 00-1.7 1.6v6.86a1 1 0 01-.31.73 1.05 1.05 0 01-.75.3zM81.07 7.64a1.16 1.16 0 01-1.17-1.17v-.09a1.18 1.18 0 011.17-1.17h.13a1.14 1.14 0 01.83.35 1.11 1.11 0 01.34.82v.09a1.13 1.13 0 01-.37.83 1.17 1.17 0 01-.83.34zm0 14.16a1 1 0 01-1-1V11a1.05 1.05 0 01.3-.75 1 1 0 01.73-.31A1 1 0 0182.17 11v9.81a1 1 0 01-.31.73 1.05 1.05 0 01-.75.3zm8.91.11a5.82 5.82 0 01-4.35-1.59 6.08 6.08 0 01-1.57-4.47 7.61 7.61 0 01.59-3 5.12 5.12 0 011.83-2.21 5.85 5.85 0 016-.06 5.08 5.08 0 011.88 2.1 6.46 6.46 0 01.64 2.87 1 1 0 01-.29.73 1 1 0 01-.76.3H86.2a3.83 3.83 0 001.19 2.5 4.13 4.13 0 002.82.89 6.48 6.48 0 001.68-.19 6.57 6.57 0 001.4-.52 1 1 0 01.42-.09.92.92 0 01.64.25.84.84 0 01.27.64 1 1 0 01-.59.85 8.77 8.77 0 01-1.76.75 8.22 8.22 0 01-2.25.25zm2.93-7a3.67 3.67 0 00-.54-1.91 3.2 3.2 0 00-1.27-1.1 3.67 3.67 0 00-1.53-.35 3.71 3.71 0 00-1.57.35 3.09 3.09 0 00-1.22 1.1 3.76 3.76 0 00-.58 1.88zm4.86 6.91a1 1 0 01-1-1V11a1.05 1.05 0 01.3-.75 1 1 0 01.73-.31A1.06 1.06 0 0198.87 11v1a4.5 4.5 0 013.59-2.15h.11a1 1 0 01.72.3 1 1 0 01.29.73.93.93 0 01-.3.71 1.08 1.08 0 01-.75.27h-.12a3.88 3.88 0 00-2 .54 4.66 4.66 0 00-1.53 1.47v7a1 1 0 01-.31.73 1.05 1.05 0 01-.75.3zm11.64.11a8.19 8.19 0 002.24-.25 8.77 8.77 0 001.76-.75 1 1 0 00.59-.85.84.84 0 00-.27-.64 1 1 0 00-1-.16 6.86 6.86 0 01-1.41.52 6.48 6.48 0 01-1.68.19 4.1 4.1 0 01-2.81-.89 3.74 3.74 0 01-1.19-2.5h7.75a1 1 0 00.77-.3 1 1 0 00.28-.73 6.46 6.46 0 00-.64-2.87 5.06 5.06 0 00-1.87-2.1 5.31 5.31 0 00-2.93-.81 5.19 5.19 0 00-3 .85 5 5 0 00-1.83 2.21 7.44 7.44 0 00-.6 3 6.08 6.08 0 001.57 4.47 5.84 5.84 0 004.36 1.59zm2.92-7h-6.74a3.66 3.66 0 01.61-1.93 3.05 3.05 0 011.26-1.11 3.52 3.52 0 013.06 0 3.2 3.2 0 011.27 1.11 3.67 3.67 0 01.58 1.88zm4.87 6.91a1 1 0 01-1-1V11a1.08 1.08 0 01.29-.75 1 1 0 01.74-.31 1 1 0 01.74.31 1 1 0 01.31.75v.93a7.58 7.58 0 011.87-1.53 4.76 4.76 0 012.38-.57 4 4 0 012.19.59 4 4 0 011.43 1.58 5.27 5.27 0 01.49 2.26v6.5a1 1 0 01-.31.73 1.05 1.05 0 01-.75.3 1 1 0 01-1-1V14.5q0-2.79-2.52-2.79a3.63 3.63 0 00-2.05.6 7.25 7.25 0 00-1.7 1.6v6.86a1 1 0 01-.31.73 1 1 0 01-.74.3zm12.82-.12a1.21 1.21 0 01-.87-.33 1.14 1.14 0 01-.34-.86 3.79 3.79 0 01.69-2.19 7.92 7.92 0 011.7-1.77c.66-.52 1.53-1.12 2.61-1.82s1.67-1.1 2.22-1.51a6.82 6.82 0 001.38-1.35 2.59 2.59 0 00.54-1.56 2.63 2.63 0 00-.85-2.07 4.08 4.08 0 00-2.76-.76 9.49 9.49 0 00-3.91.82.92.92 0 01-.44.11.81.81 0 01-.61-.25.86.86 0 01-.25-.64.88.88 0 01.5-.84 11.16 11.16 0 015.08-1.17 6 6 0 012.66.58 4.75 4.75 0 011.9 1.64 4.24 4.24 0 01.7 2.42 4.41 4.41 0 01-.79 2.51 9.3 9.3 0 01-1.89 2c-.73.58-1.68 1.25-2.86 2s-1.87 1.3-2.41 1.73a3.89 3.89 0 00-1.13 1.34h8a1 1 0 011 1 .88.88 0 01-.29.69 1 1 0 01-.69.27zm20.6.12a1 1 0 01-1-1v-3.18h-7a1.31 1.31 0 01-.94-.38 1.24 1.24 0 01-.39-.93v-.2a1.32 1.32 0 01.28-.83l7.18-9.17a1.29 1.29 0 01.49-.4 1.51 1.51 0 01.65-.15h.46a1.27 1.27 0 011 .38 1.29 1.29 0 01.37.95v8.87h1.74a.91.91 0 01.66.28.9.9 0 01.27.66.86.86 0 01-.27.65.9.9 0 01-.66.27h-1.74v3.11a1 1 0 01-.31.73 1 1 0 01-.74.3zm-7.12-6h6.09V8zM26.69 8.46l4.87 1.1 1.3.29a11.37 11.37 0 010 1.44v.1a1 1 0 002.07 0v-.73a3.51 3.51 0 00-.38-2.19 1.46 1.46 0 00-.85-.56c-.46-.11-.92-.2-1.38-.3L26.7 6.34 21.24 5.1a2.09 2.09 0 00-1.46.42 1.74 1.74 0 00-.14.12L8.43 17.55 7.06 19a2.4 2.4 0 00-.49.83A5.89 5.89 0 006.39 22v16.84a1.58 1.58 0 002.05 1.38l12.88-5.37 12.09-5.07a2.6 2.6 0 001.5-1.86v-12a3.41 3.41 0 00-.38-2.18 1.49 1.49 0 00-.84-.57l-1.38-.29-5.69-1.29c-1.82-.41-2.62-.72-4.44-1.13a2 2 0 00-1.45.42.74.74 0 00-.13.12l-8.5 9a.93.93 0 00-.22.64 1.13 1.13 0 001 1 .88.88 0 00.56-.16h.08l.08-.09.06-.07c2.75-2.9 5.52-5.78 8.27-8.69l.11-.1c1.88.42 2.75.75 4.63 1.17l4.87 1.1 1.31.29c.05.47 0 1.19 0 1.57v10.63c0 .44-.12.54-.56.7L20.71 32.7 8.48 38V22a5.9 5.9 0 01.1-1.57 2.26 2.26 0 01.29-.32c.44-.47.86-.94 1.3-1.4 3.59-3.82 7.19-7.62 10.78-11.44l.11-.1z"></path></g></g></svg>