<svg xmlns="http://www.w3.org/2000/svg" width="30" height="30" viewBox="0 0 30 30">
  <g id="MALER_icon" transform="translate(17796 -19304)">
    <g id="Icon-09" transform="translate(-17794 19306)">
      <path id="Path_3462" data-name="Path 3462" d="M56.749,58.647l-5.375-5.375-.6-.62A4.212,4.212,0,0,0,50.126,52c-.439-.255-.263.279-.127.144l1.593-1.593c.234-.234,1.376-1.191.907-1.154s.136.365.365.6l1.392,1.388L57.669,54.8A6.607,6.607,0,0,0,58.864,56a1.429,1.429,0,0,1,.275.271c-.168-.168.275-.411-.144-.275-.94.353-2.008,1.938-2.747,2.652-.345.328.177.854.521.521l2.948-2.841a.374.374,0,0,0,0-.521L52.75,48.85a.382.382,0,0,0-.526,0L49.33,51.744a.382.382,0,0,0,0,.526l6.9,6.894a.37.37,0,0,0,.521-.517Z" transform="translate(-34.117 -33.593)" fill="rgba(0,0,0,0)" stroke="#4a4a4a" stroke-width="0.3"/>
      <line id="Line_166" data-name="Line 166" x1="2.899" y2="2.895" transform="translate(16.419 16.472)" fill="none" stroke="#4a4a4a" stroke-width="0.3"/>
      <path id="Path_3463" data-name="Path 3463" d="M47.544,29.466,44.37,26.334a7.7,7.7,0,0,0-.583-.575c-.119-.094-.049-.1,0,.045a2.34,2.34,0,0,1-.107-.468c-.074-.912.714-1.49,1.3-2.074l4.164-4.18c.472-.472.949-.94,1.413-1.412l.123-.123s-.074.066.041-.025a1.6,1.6,0,0,0,.6-.821,1.9,1.9,0,0,0-.628-1.708,17.992,17.992,0,0,0-1.425-1.433,1.66,1.66,0,0,0-2.386.349.308.308,0,0,0,.435.431c.345-.345.78-.731,1.306-.493a2.131,2.131,0,0,1,.538.46c.657.636,2.262,1.815,1.2,2.71-.879.743-1.642,1.642-2.464,2.464L44.083,23.3a2.5,2.5,0,0,0-1.018,2.189,1.556,1.556,0,0,0,.628,1.055L47.1,29.9c.283.279.719-.156.435-.435Z" transform="translate(-30.476 -12.633)" fill="rgba(0,0,0,0)" stroke="#4a4a4a" stroke-width="0.3"/>
      <path id="Path_3464" data-name="Path 3464" d="M50.315,14.893l-2-2-.283-.283v.435l.682-.677h-.439l2,2,.283.279v-.439l-.682.682a.308.308,0,0,0,.435.435L51,14.647a.312.312,0,0,0,0-.435l-2-2-.279-.279a.316.316,0,0,0-.439,0l-.678.677a.308.308,0,0,0,0,.435l2,2,.279.283A.308.308,0,0,0,50.315,14.893Z" transform="translate(-33.107 -11.844)" fill="rgba(0,0,0,0)" stroke="#4a4a4a" stroke-width="0.3"/>
      <path id="Path_3465" data-name="Path 3465" d="M25.579,12.337l-7.112,7.112-4.476,4.476L12.76,25.156c-.333.328-.48.69-.111,1.092.641.694,1.343,1.343,2.016,2.016l1.129,1.129a3.564,3.564,0,0,0,.521.505c.48.324.821-.09,1.125-.411l1.408-1.38,9.387-9.4,1.449-1.449c.271-.271.69-.571.546-1.01-.074-.234-.337-.411-.505-.6l-1.084-1.092c-.7-.7-1.392-1.417-2.1-2.106-.263-.255-.554-.411-.9-.177s0,.756.308.534c.094-.062.386.312.485.411L27.5,14.279l2,2.02c.029.025.148.111.152.148s0-.057-.029,0a2.624,2.624,0,0,1-.283.283L28.08,17.991l-8.894,8.885-1.642,1.642L17,29.06c-.074.074-.185.238-.283.283-.021,0-.053.041-.025.041s-.1-.115-.119-.135c-.267-.292-.558-.558-.821-.821l-2.217-2.217c-.086-.086-.468-.361-.485-.485,0,.066.107-.074.148-.111l1.076-1.076,4.081-4.106c2.488-2.488,5.038-4.972,7.518-7.518l.14-.144C26.3,12.5,25.863,12.057,25.579,12.337Z" transform="translate(-12.433 -12.03)" fill="rgba(0,0,0,0)" stroke="#4a4a4a" stroke-width="0.3"/>
      <path id="Path_3466" data-name="Path 3466" d="M17.422,32.071l8.947-8.951a.37.37,0,0,0-.521-.521L16.88,31.546a.374.374,0,0,0,.526.526Z" transform="translate(-15.005 -18.129)" fill="rgba(0,0,0,0)" stroke="#4a4a4a" stroke-width="0.3"/>
      <ellipse id="Ellipse_72" data-name="Ellipse 72" cx="0.341" cy="0.341" rx="0.341" ry="0.341" transform="translate(11.664 3.443)" fill="rgba(0,0,0,0)" stroke="#4a4a4a" stroke-width="0.3"/>
      <path id="Path_3467" data-name="Path 3467" d="M16.381,52.344v5.071a3.7,3.7,0,0,0,.172,1.642,1.664,1.664,0,0,0,2.726.152,4.8,4.8,0,0,0,.242-2.423c0-.875-.082-1.79,0-2.661.041-.439.468-.821.907-.5.23.168.214.452.214.7a13.209,13.209,0,0,0,.021,2.316,1.544,1.544,0,0,0,2.439.9,1.778,1.778,0,0,0,.554-1.556V52.9a4.228,4.228,0,0,1,0-.6c.074-.579.973-.538,1.068,0a10.531,10.531,0,0,1,0,1.61v3.285c0,.6-.025,1.211,0,1.811a1.417,1.417,0,0,0,1.9,1.38,1.47,1.47,0,0,0,1.166-1.4c.029-.747,0-1.5,0-2.246V53.572a8.536,8.536,0,0,1,.037-1.412,2.845,2.845,0,0,1,1.113-1.815c.316-.23,0-.768-.312-.53a3.507,3.507,0,0,0-1.441,2.735v4.862c0,.538.053,1.109,0,1.642-.1.94-1.72,1.141-1.827.057a14.37,14.37,0,0,1,0-1.458c0-1.753.09-3.535,0-5.284a1.195,1.195,0,0,0-1.807-.957c-.583.341-.493,1.022-.493,1.6v2.956a3.457,3.457,0,0,1,0,.505.9.9,0,0,1-1.211.7.821.821,0,0,1-.509-.513c-.033-.09-.062-.3-.053-.189-.025-.411,0-.821,0-1.232,0-.641.156-1.523-.353-2.024a1.2,1.2,0,0,0-2,.862c-.049.8,0,1.614,0,2.41v1.187a2.349,2.349,0,0,1-.136,1.17,1.055,1.055,0,0,1-1.642-.041,1.922,1.922,0,0,1-.127-.985c.057-1.642,0-3.285,0-4.927v-.546a.308.308,0,0,0-.616,0Z" transform="translate(-14.744 -34.189)" fill="rgba(0,0,0,0)" stroke="#4a4a4a" stroke-width="0.3"/>
      <path id="Path_3468" data-name="Path 3468" d="M52.081,34.763a3.026,3.026,0,0,0,1.688-1.347,3.757,3.757,0,0,0,.324-1.725c0-.3-.021-.784.275-.965.411-.25,1.059-.025,1.5-.025a1.187,1.187,0,0,0,.924-.411,3.529,3.529,0,0,0,.468-2.394,12.248,12.248,0,0,0-.275-2c-.086-.386-.682-.222-.6.164a11.049,11.049,0,0,1,.226,1.47,3.844,3.844,0,0,1-.23,2.275c-.193.3-.443.3-.772.271a3.018,3.018,0,0,0-1.433.078c-.821.345-.682,1.417-.723,2.139A2.176,2.176,0,0,1,51.92,34.18c-.378.119-.218.714.16.6Z" transform="translate(-35.579 -19.995)" fill="rgba(0,0,0,0)" stroke="#4a4a4a" stroke-width="0.3"/>
    </g>
    <rect id="Rectangle_657" data-name="Rectangle 657" width="30" height="30" transform="translate(-17796 19304)" fill="none"/>
  </g>
</svg>
