<svg xmlns="http://www.w3.org/2000/svg" width="30" height="30" viewBox="0 0 30 30">
  <g id="PLATTENLEGER_icon" transform="translate(17916 -19304)">
    <g id="Icon-06" transform="translate(-17914 19306)">
      <path id="Path_3428" data-name="Path 3428" d="M15.743,25.88V13.287l-.3.3h25.5l-.3-.3V29.251l.15-.264a2.462,2.462,0,0,1-2.291-.11,10.968,10.968,0,0,1-1.625-1.426,6.312,6.312,0,0,0-5.326-1.889c-2.015.378-3.6,2.031-5.415,2.965a5.935,5.935,0,0,1-6.118-.776c-.812-.609-1.45-1.414-2.259-2.031a2.352,2.352,0,0,0-2.47-.122c-.349.175-.045.7.3.524a2.031,2.031,0,0,1,.9-.207,2.077,2.077,0,0,1,1.442.776,18.576,18.576,0,0,0,1.954,1.714,6.613,6.613,0,0,0,5.789.983c1.962-.731,3.429-2.409,5.419-3.079,2.108-.711,4.062.362,5.594,1.775a9.482,9.482,0,0,0,1.5,1.3,3.25,3.25,0,0,0,2.608.248c.276-.1.406-.2.451-.5a5.384,5.384,0,0,0,0-.849V13.255a.309.309,0,0,0-.3-.3h-25.5a.309.309,0,0,0-.3.3V25.847a.305.305,0,0,0,.609.032Z" transform="translate(-15.13 -12.95)" fill="rgba(0,0,0,0)" stroke="#4a4a4a" stroke-width="0.3"/>
      <path id="Path_3429" data-name="Path 3429" d="M25.84,13.335v14.5a.3.3,0,0,0,.609,0v-14.5a.3.3,0,0,0-.609,0Z" transform="translate(-21.489 -12.998)" fill="rgba(0,0,0,0)" stroke="#4a4a4a" stroke-width="0.3"/>
      <path id="Path_3430" data-name="Path 3430" d="M32,37.51h-5.76a.3.3,0,1,0,0,.609H32a.3.3,0,1,0,0-.609Z" transform="translate(-21.549 -27.533)" fill="rgba(0,0,0,0)" stroke="#4a4a4a" stroke-width="0.3"/>
      <path id="Path_3431" data-name="Path 3431" d="M59.649,24.56H54.555a.3.3,0,1,0,0,.609h5.094a.3.3,0,1,0,0-.609Z" transform="translate(-38.358 -19.844)" fill="rgba(0,0,0,0)" stroke="#4a4a4a" stroke-width="0.3"/>
      <path id="Path_3432" data-name="Path 3432" d="M67,13.335v13.9a.3.3,0,1,0,.609,0v-13.9a.3.3,0,0,0-.609,0Z" transform="translate(-45.929 -12.998)" fill="rgba(0,0,0,0)" stroke="#4a4a4a" stroke-width="0.3"/>
      <path id="Path_3433" data-name="Path 3433" d="M54.12,13.335V25.842a.3.3,0,0,0,.609,0V13.335a.3.3,0,0,0-.609,0Z" transform="translate(-38.281 -12.998)" fill="rgba(0,0,0,0)" stroke="#4a4a4a" stroke-width="0.3"/>
      <path id="Path_3434" data-name="Path 3434" d="M40.12,13.335V28.8a.3.3,0,0,0,.609,0V13.335a.3.3,0,0,0-.609,0Z" transform="translate(-29.968 -12.998)" fill="rgba(0,0,0,0)" stroke="#4a4a4a" stroke-width="0.3"/>
      <path id="Path_3435" data-name="Path 3435" d="M15.14,39.325V54.383a.309.309,0,0,0,.3.3h25.5a.313.313,0,0,0,.3-.3V42.152a.3.3,0,1,0-.609,0V54.383l.3-.3h-25.5l.3.3V39.325a.3.3,0,0,0-.609,0Z" transform="translate(-15.136 -28.43)" fill="rgba(0,0,0,0)" stroke="#4a4a4a" stroke-width="0.3"/>
      <path id="Path_3436" data-name="Path 3436" d="M20.364,53.054,19.2,54.131l-.162.154a.3.3,0,0,0,0,.431.313.313,0,0,0,.431,0l1.158-1.081.167-.15a.309.309,0,0,0,0-.431.313.313,0,0,0-.431,0Z" transform="translate(-17.398 -36.712)" fill="rgba(0,0,0,0)" stroke="#4a4a4a" stroke-width="0.3"/>
      <path id="Path_3437" data-name="Path 3437" d="M71.307,68.3l-1.759,1.625-.248.227a.3.3,0,0,0,.431.431l1.759-1.625.248-.232a.3.3,0,0,0,0-.431.313.313,0,0,0-.431,0Z" transform="translate(-47.246 -45.762)" fill="rgba(0,0,0,0)" stroke="#4a4a4a" stroke-width="0.3"/>
      <path id="Path_3438" data-name="Path 3438" d="M26.937,56.806l-5.5,5.11-.772.719c-.288.268.142.7.431.435l5.5-5.114.776-.707c.288-.268-.142-.695-.431-.431Z" transform="translate(-18.357 -38.949)" fill="rgba(0,0,0,0)" stroke="#4a4a4a" stroke-width="0.3"/>
      <path id="Path_3439" data-name="Path 3439" d="M60.009,60.551,55.752,64.5l-.6.557c-.288.268.142.7.431.431l4.257-3.952.6-.557A.3.3,0,0,0,60.009,60.551Z" transform="translate(-38.836 -41.163)" fill="rgba(0,0,0,0)" stroke="#4a4a4a" stroke-width="0.3"/>
      <path id="Path_3440" data-name="Path 3440" d="M44.806,53.056l-6.853,6.361-.963.9c-.288.268.142.7.431.431l6.849-6.361.967-.9C45.525,53.219,45.091,52.788,44.806,53.056Z" transform="translate(-28.053 -36.714)" fill="rgba(0,0,0,0)" stroke="#4a4a4a" stroke-width="0.3"/>
    </g>
    <rect id="Rectangle_657" data-name="Rectangle 657" width="30" height="30" transform="translate(-17916 19304)" fill="none"/>
  </g>
</svg>
