<svg xmlns="http://www.w3.org/2000/svg" width="30" height="30" viewBox="0 0 30 30">
  <g id="SCHREINER_icon" transform="translate(17956 -19304)">
    <g id="Icon-05" transform="translate(-17954 19306)">
      <path id="Path_3407" data-name="Path 3407" d="M27.864,21.634h-9.8a.155.155,0,0,0-.155.15v8.591a.155.155,0,0,0,.155.15h9.641a.155.155,0,0,0,0-.3H18.064l.15.155v-8.6l-.15.155h9.8a.155.155,0,0,0,0-.3Z" transform="translate(-17.91 -20.605)" fill="rgba(0,0,0,0)" stroke="#4a4a4a" stroke-width="0.2"/>
      <path id="Path_3408" data-name="Path 3408" d="M42.21,32.925V22h.943s.313,2.175,2.066,2.082S47.252,22,47.252,22h.878V32.925" transform="translate(-32.33 -20.825)" fill="rgba(0,0,0,0)" stroke="#4a4a4a" stroke-width="0.3"/>
      <path id="Path_3409" data-name="Path 3409" d="M40.27,48.87h7.071a.407.407,0,0,1,.407.407V62.34a.687.687,0,0,1-.687.687H40.567a.687.687,0,0,1-.687-.687V49.26A.407.407,0,0,1,40.27,48.87Z" transform="translate(-30.947 -36.77)" fill="rgba(0,0,0,0)" stroke="#4a4a4a" stroke-linecap="round" stroke-linejoin="round" stroke-width="0.3"/>
      <rect id="Rectangle_614" data-name="Rectangle 614" width="5.725" height="6.294" rx="1.02" transform="translate(9.88 13.125)" fill="rgba(0,0,0,0)" stroke="#4a4a4a" stroke-width="0.3"/>
      <rect id="Rectangle_615" data-name="Rectangle 615" width="5.725" height="4.143" rx="1.02" transform="translate(9.88 15.276)" fill="rgba(0,0,0,0)" stroke="#4a4a4a" stroke-width="0.3"/>
      <rect id="Rectangle_616" data-name="Rectangle 616" width="0.98" height="10.616" transform="translate(7.957 13.771)" fill="rgba(0,0,0,0)" stroke="#4a4a4a" stroke-linejoin="round" stroke-width="0.3"/>
      <rect id="Rectangle_617" data-name="Rectangle 617" width="0.98" height="10.616" transform="translate(16.781 13.771)" fill="rgba(0,0,0,0)" stroke="#4a4a4a" stroke-linejoin="round" stroke-width="0.3"/>
      <path id="Path_3410" data-name="Path 3410" d="M56.741,21.939h9.978l-.15-.159v8.6l.15-.155H56.741a.155.155,0,0,0,0,.3h9.978a.155.155,0,0,0,.155-.15v-8.6a.155.155,0,0,0-.155-.15H56.741a.155.155,0,0,0,0,.3Z" transform="translate(-40.875 -20.605)" fill="rgba(0,0,0,0)" stroke="#4a4a4a" stroke-width="0.2"/>
      <path id="Path_3411" data-name="Path 3411" d="M40.555,20.285V19.269l-.15.15h7.242l-.155-.15-.024,1.016a.155.155,0,0,0,.3,0V19.265a.15.15,0,0,0-.15-.155H40.4a.155.155,0,0,0-.155.155v1.021a.155.155,0,0,0,.3,0Z" transform="translate(-31.166 -19.11)" fill="rgba(0,0,0,0)" stroke="#4a4a4a" stroke-width="0.2"/>
      <path id="Path_3412" data-name="Path 3412" d="M44.45,36.7V28.36h2.919" transform="translate(-33.659 -24.599)" fill="rgba(0,0,0,0)" stroke="#4a4a4a" stroke-linecap="round" stroke-width="0.3"/>
      <line id="Line_137" data-name="Line 137" x2="1.46" transform="translate(10.791 4.668)" fill="none" stroke="#4a4a4a" stroke-linecap="round" stroke-width="0.3"/>
      <path id="Path_3413" data-name="Path 3413" d="M37.467,24.8H35.361a.061.061,0,1,0,0,.122h2.106a.061.061,0,1,0,0-.122Z" transform="translate(-28.229 -22.486)" fill="rgba(0,0,0,0)" stroke="#4a4a4a" stroke-width="0.2"/>
      <path id="Path_3414" data-name="Path 3414" d="M20.661,40.875h2.525a.155.155,0,0,0,0-.3H20.661a.155.155,0,0,0,0,.3Z" transform="translate(-19.466 -31.845)" fill="rgba(0,0,0,0)" stroke="#4a4a4a" stroke-width="0.2"/>
      <path id="Path_3415" data-name="Path 3415" d="M28.811,40.875h1.553a.155.155,0,0,0,0-.3H28.811a.155.155,0,0,0,0,.3Z" transform="translate(-24.302 -31.845)" fill="rgba(0,0,0,0)" stroke="#4a4a4a" stroke-width="0.2"/>
      <path id="Path_3416" data-name="Path 3416" d="M63.751,40.875h3.432a.155.155,0,0,0,0-.3H63.751a.155.155,0,0,0,0,.3Z" transform="translate(-45.035 -31.845)" fill="rgba(0,0,0,0)" stroke="#4a4a4a" stroke-width="0.2"/>
      <path id="Path_3417" data-name="Path 3417" d="M73.681,40.875h1.895a.155.155,0,0,0,0-.3H73.681a.155.155,0,0,0,0,.3Z" transform="translate(-50.927 -31.845)" fill="rgba(0,0,0,0)" stroke="#4a4a4a" stroke-width="0.2"/>
      <path id="Path_3418" data-name="Path 3418" d="M78.151,30.1h1.273a.155.155,0,0,0,0-.3H78.151a.155.155,0,0,0,0,.3Z" transform="translate(-53.58 -25.454)" fill="rgba(0,0,0,0)" stroke="#4a4a4a" stroke-width="0.2"/>
      <path id="Path_3419" data-name="Path 3419" d="M56.941,24.885h2.541a.155.155,0,0,0,0-.3H56.941a.155.155,0,0,0,0,.3Z" transform="translate(-40.994 -22.356)" fill="rgba(0,0,0,0)" stroke="#4a4a4a" stroke-width="0.2"/>
      <line id="Line_138" data-name="Line 138" x2="1.46" transform="translate(10.791 5.615)" fill="none" stroke="#4a4a4a" stroke-linecap="round" stroke-width="0.3"/>
      <line id="Line_139" data-name="Line 139" x2="1.46" transform="translate(10.791 6.469)" fill="none" stroke="#4a4a4a" stroke-linecap="round" stroke-width="0.3"/>
      <line id="Line_140" data-name="Line 140" x2="1.46" transform="translate(10.791 7.245)" fill="none" stroke="#4a4a4a" stroke-linecap="round" stroke-width="0.3"/>
      <line id="Line_141" data-name="Line 141" x2="1.46" transform="translate(10.791 8.974)" fill="none" stroke="#4a4a4a" stroke-linecap="round" stroke-width="0.3"/>
      <line id="Line_142" data-name="Line 142" x2="1.46" transform="translate(10.791 9.77)" fill="none" stroke="#4a4a4a" stroke-linecap="round" stroke-width="0.3"/>
      <line id="Line_143" data-name="Line 143" x2="1.46" transform="translate(10.791 10.677)" fill="none" stroke="#4a4a4a" stroke-linecap="round" stroke-width="0.3"/>
      <line id="Line_144" data-name="Line 144" x2="1.46" transform="translate(10.791 11.531)" fill="none" stroke="#4a4a4a" stroke-linecap="round" stroke-width="0.3"/>
      <line id="Line_145" data-name="Line 145" x2="2.919" transform="translate(10.791 8.12)" fill="none" stroke="#4a4a4a" stroke-linecap="round" stroke-width="0.3"/>
      <path id="Path_3420" data-name="Path 3420" d="M18.1,24.879c.878,0,1.761-.033,2.635,0a1.073,1.073,0,0,1,.691.211.968.968,0,0,1,.2.846.866.866,0,0,1-.537.7,1.866,1.866,0,0,1-.451.02h-1.22a.155.155,0,0,0,0,.3h1.22a1.948,1.948,0,0,0,.533-.033,1.086,1.086,0,0,0,.679-.675,1.2,1.2,0,0,0-.549-1.586,2.269,2.269,0,0,0-.813-.1H18.1a.155.155,0,0,0,0,.3Z" transform="translate(-17.946 -22.35)" fill="rgba(0,0,0,0)" stroke="#4a4a4a" stroke-width="0.2"/>
      <path id="Path_3421" data-name="Path 3421" d="M75.35,24.56H73.126a3.131,3.131,0,0,0-1.317.159A1.11,1.11,0,0,0,71.17,25.9a1.155,1.155,0,0,0,1.13,1.049.155.155,0,0,0,0-.3.878.878,0,0,1-.02-1.752,6.274,6.274,0,0,1,1.106-.028h1.98a.155.155,0,0,0,0-.3Z" transform="translate(-49.506 -22.336)" fill="rgba(0,0,0,0)" stroke="#4a4a4a" stroke-width="0.2"/>
      <path id="Path_3422" data-name="Path 3422" d="M38.267,35.876a3.183,3.183,0,0,1-.484-3.326,3.391,3.391,0,0,1,1.423-1.273c.175-.094,0-.354-.15-.264a3.17,3.17,0,0,0-1.854,2.44,3.826,3.826,0,0,0,.525,2.147,3.354,3.354,0,0,0,.276.443c.118.155.382,0,.264-.155Z" transform="translate(-29.355 -26.162)" fill="rgba(0,0,0,0)" stroke="#4a4a4a" stroke-width="0.2"/>
      <path id="Path_3423" data-name="Path 3423" d="M57.957,35.986a3.425,3.425,0,0,0,.366-3.659,3.81,3.81,0,0,0-1.537-1.354c-.171-.089-.325.171-.155.264a2.933,2.933,0,0,1,1.752,2.322,3.659,3.659,0,0,1-.48,1.887,3.475,3.475,0,0,1-.228.37c-.114.159.15.309.264.155Z" transform="translate(-40.843 -26.139)" fill="rgba(0,0,0,0)" stroke="#4a4a4a" stroke-width="0.2"/>
      <path id="Path_3424" data-name="Path 3424" d="M18.171,26.851h1.793c.488,0,.988.028,1.476,0a3.521,3.521,0,0,0,1.59-.545,2.44,2.44,0,0,0,1.09-2.44,3.659,3.659,0,0,0-1.22-2.2c-.15-.13-.366.085-.215.215,1.22,1.065,1.712,3.216.122,4.188a4.922,4.922,0,0,1-2.785.464h-1.85a.155.155,0,0,0,0,.3Z" transform="translate(-17.988 -20.606)" fill="rgba(0,0,0,0)" stroke="#4a4a4a" stroke-width="0.2"/>
      <path id="Path_3425" data-name="Path 3425" d="M72.517,26.581c-1.1,0-2.22.053-3.322,0a2.493,2.493,0,0,1-2.525-2.366,3.253,3.253,0,0,1,1.09-2.269c.146-.134-.069-.346-.215-.215-1.277,1.134-1.72,3.371-.2,4.493a3.635,3.635,0,0,0,1.728.651,12.386,12.386,0,0,0,1.346,0H72.5a.155.155,0,0,0,0-.3Z" transform="translate(-46.673 -20.641)" fill="rgba(0,0,0,0)" stroke="#4a4a4a" stroke-width="0.2"/>
      <path id="Path_3426" data-name="Path 3426" d="M18.183,32.407c1.655,0,3.525.232,5.083-.435a4.473,4.473,0,0,0,1.366-.9,10.291,10.291,0,0,0,1.13-1.594,2.846,2.846,0,0,1,2.074-1.281c.2,0,.2-.313,0-.3a2.9,2.9,0,0,0-1.667.716,6.31,6.31,0,0,0-1.138,1.517,4.269,4.269,0,0,1-1.488,1.386c-1.578.874-3.615.614-5.351.6a.155.155,0,0,0,0,.3Z" transform="translate(-18 -24.32)" fill="rgba(0,0,0,0)" stroke="#4a4a4a" stroke-width="0.2"/>
      <path id="Path_3427" data-name="Path 3427" d="M66.694,32.106c-1.789,0-3.883.281-5.518-.6a4.326,4.326,0,0,1-1.565-1.439,5.729,5.729,0,0,0-1.155-1.472,3.054,3.054,0,0,0-1.74-.7.153.153,0,0,0,0,.3,2.928,2.928,0,0,1,2.009,1.082c.468.549.74,1.22,1.256,1.724a4.672,4.672,0,0,0,1.448.964c1.626.687,3.554.464,5.286.447a.155.155,0,0,0,0-.3Z" transform="translate(-40.851 -24.32)" fill="rgba(0,0,0,0)" stroke="#4a4a4a" stroke-width="0.2"/>
    </g>
    <rect id="Rectangle_657" data-name="Rectangle 657" width="30" height="30" transform="translate(-17956 19304)" fill="none"/>
  </g>
</svg>
