<svg xmlns="http://www.w3.org/2000/svg" width="30" height="30" viewBox="0 0 30 30">
  <g id="SOLAR_icon" transform="translate(17546 -19304)">
    <g id="Icon-15" transform="translate(-17540 19306)">
      <path id="Path_3516" data-name="Path 3516" d="M36.512,49.394H35.368c-.232,0-.809.116-.93-.153a2.682,2.682,0,0,1,0-.818V29.985a3.528,3.528,0,0,1,0-.93c.084-.251.335-.186.558-.186a6.509,6.509,0,0,1,1.395,0c.344.079.246.377.246.674V47.86a9.009,9.009,0,0,1,0,1.227c0,.149.07.246-.177.311a.14.14,0,1,0,.074.27c.428-.116.381-.465.381-.818V29.832a6.145,6.145,0,0,0,0-.828c-.046-.316-.237-.4-.525-.423-.465-.037-.976,0-1.46,0s-.767.074-.786.581,0,.883,0,1.325V47.981c0,.391-.028.79,0,1.181.042.618.618.511,1.1.511H36.5a.14.14,0,0,0,.014-.279Z" transform="translate(-30.905 -23.434)" fill="rgba(0,0,0,0)" stroke="#4a4a4a" stroke-width="0.3"/>
      <path id="Path_3517" data-name="Path 3517" d="M41.879,49.41H40.787c-.228,0-.869.126-.99-.135a2.418,2.418,0,0,1,0-.776V30.015a3.547,3.547,0,0,1,0-.967c.079-.232.307-.172.521-.172a9.5,9.5,0,0,1,1.395,0c.377.056.279.3.279.623V47.89a8.322,8.322,0,0,1,0,1.227c0,.139.07.237-.163.3a.14.14,0,1,0,.074.27c.418-.116.367-.465.367-.8V29.82a5.159,5.159,0,0,0,0-.8c-.051-.321-.242-.386-.525-.4-.493-.037-1,0-1.488,0s-.739.079-.753.567,0,.907,0,1.358v17.5c0,.386-.033.786,0,1.167.051.623.688.465,1.158.465h1.2a.139.139,0,0,0,.014-.26Z" transform="translate(-33.771 -23.45)" fill="rgba(0,0,0,0)" stroke="#4a4a4a" stroke-width="0.3"/>
      <path id="Path_3518" data-name="Path 3518" d="M47.219,49.394H46.094c-.237,0-.818.116-.93-.167a2.836,2.836,0,0,1,0-.818V30a3.72,3.72,0,0,1,0-.93c.084-.26.339-.2.567-.2a6.616,6.616,0,0,1,1.395,0c.358.084.256.386.256.688v18.27a9.009,9.009,0,0,1,0,1.227c0,.153.074.251-.191.325a.156.156,0,0,0,.06.307c.465-.121.4-.465.4-.832V29.841a6.077,6.077,0,0,0,0-.823c-.046-.321-.242-.418-.535-.437-.465-.037-.962,0-1.437,0s-.781.084-.8.6V47.972c0,.386-.028.786,0,1.172.051.632.618.544,1.106.544h1.237a.146.146,0,1,0,0-.293Z" transform="translate(-36.647 -23.434)" fill="rgba(0,0,0,0)" stroke="#4a4a4a" stroke-width="0.3"/>
      <path id="Path_3519" data-name="Path 3519" d="M52.59,49.394H51.465c-.237,0-.818.116-.93-.167a2.683,2.683,0,0,1,0-.818V30a3.528,3.528,0,0,1,0-.93c.084-.26.335-.2.563-.2a6.658,6.658,0,0,1,1.395,0c.353.084.251.386.251.688V47.851a8.944,8.944,0,0,1,0,1.223c0,.153.079.256-.186.325a.14.14,0,1,0,.074.27c.437-.121.391-.465.391-.832v-19a6.075,6.075,0,0,0,0-.823c-.042-.325-.237-.418-.53-.437-.465-.037-.967,0-1.441,0s-.776.084-.795.6,0,.883,0,1.32V47.972c0,.386-.028.786,0,1.176.042.628.614.525,1.1.525h1.237a.139.139,0,1,0,0-.279Z" transform="translate(-39.526 -23.434)" fill="rgba(0,0,0,0)" stroke="#4a4a4a" stroke-width="0.3"/>
      <path id="Path_3520" data-name="Path 3520" d="M57.971,49.392H56.855c-.246,0-.818.116-.93-.177a2.678,2.678,0,0,1,0-.795V30.01a3.77,3.77,0,0,1,0-.93c.088-.27.339-.209.572-.209a6.509,6.509,0,0,1,1.395,0c.358.079.26.377.26.679V47.863a8.6,8.6,0,0,1,0,1.2c0,.153.079.279-.2.335-.177.037-.1.3.074.27.437-.088.4-.465.4-.8V29.829a5.219,5.219,0,0,0,0-.809.465.465,0,0,0-.511-.442c-.465-.042-.976,0-1.455,0s-.781.065-.8.581v20c.019.623.623.53,1.088.53h1.227a.146.146,0,1,0,0-.293Z" transform="translate(-42.424 -23.432)" fill="rgba(0,0,0,0)" stroke="#4a4a4a" stroke-width="0.3"/>
      <path id="Path_3521" data-name="Path 3521" d="M63.292,49.356H62.144c-.256,0-.762.107-.879-.2a3,3,0,0,1,0-.841V30a3.77,3.77,0,0,1,0-.93c.088-.293.367-.232.614-.232a5.272,5.272,0,0,1,1.353,0c.344.1.246.465.246.744V47.79a9.387,9.387,0,0,1,0,1.2c0,.163.084.3-.223.358-.177.037-.1.3.074.27.465-.093.428-.465.428-.832V29.84a6.145,6.145,0,0,0,0-.828c-.107-.753-1.395-.465-1.925-.465s-.832.065-.832.6V49.073c.037.628.558.563,1.046.563h1.26a.14.14,0,1,0-.014-.279Z" transform="translate(-45.281 -23.396)" fill="rgba(0,0,0,0)" stroke="#4a4a4a" stroke-width="0.3"/>
      <rect id="Rectangle_622" data-name="Rectangle 622" width="3.273" height="0.92" transform="translate(0 6.964)" fill="rgba(0,0,0,0)" stroke="#4a4a4a" stroke-width="0.3"/>
      <rect id="Rectangle_623" data-name="Rectangle 623" width="1.72" height="1.506" transform="translate(0.497 6.783)" fill="rgba(0,0,0,0)" stroke="#4a4a4a" stroke-width="0.3"/>
      <rect id="Rectangle_624" data-name="Rectangle 624" width="1.534" height="0.99" transform="translate(0.586 6.727)" fill="rgba(0,0,0,0)" stroke="#4a4a4a" stroke-width="0.3"/>
      <rect id="Rectangle_625" data-name="Rectangle 625" width="0.869" height="1.39" transform="translate(0.902 5.756)" fill="rgba(0,0,0,0)" stroke="#4a4a4a" stroke-width="0.3"/>
      <rect id="Rectangle_626" data-name="Rectangle 626" width="1.72" height="1.506" transform="translate(0.497 23.547)" fill="rgba(0,0,0,0)" stroke="#4a4a4a" stroke-width="0.3"/>
      <rect id="Rectangle_627" data-name="Rectangle 627" width="3.273" height="0.92" transform="translate(0 23.84)" fill="rgba(0,0,0,0)" stroke="#4a4a4a" stroke-width="0.3"/>
      <path id="Path_3522" data-name="Path 3522" d="M28.311,29.319l-.921-.539v.93h.921Z" transform="translate(-27.297 -23.55)" fill="rgba(0,0,0,0)" stroke="#4a4a4a" stroke-width="0.3"/>
      <path id="Path_3523" data-name="Path 3523" d="M30.84,29.319l.925-.539v.93H30.84Z" transform="translate(-29.143 -23.55)" fill="rgba(0,0,0,0)" stroke="#4a4a4a" stroke-width="0.3"/>
      <rect id="Rectangle_628" data-name="Rectangle 628" width="0.456" height="0.26" transform="translate(1.13 5.537)" fill="rgba(0,0,0,0)" stroke="#4a4a4a" stroke-width="0.3"/>
      <rect id="Rectangle_629" data-name="Rectangle 629" width="0.869" height="1.39" transform="translate(0.902 22.58)" fill="rgba(0,0,0,0)" stroke="#4a4a4a" stroke-width="0.3"/>
      <path id="Path_3524" data-name="Path 3524" d="M28.311,65.5l-.921-.544v.93h.921Z" transform="translate(-27.297 -42.91)" fill="rgba(0,0,0,0)" stroke="#4a4a4a" stroke-width="0.3"/>
      <path id="Path_3525" data-name="Path 3525" d="M30.84,65.5l.925-.544v.93H30.84Z" transform="translate(-29.143 -42.91)" fill="rgba(0,0,0,0)" stroke="#4a4a4a" stroke-width="0.3"/>
      <rect id="Rectangle_630" data-name="Rectangle 630" width="0.456" height="0.26" transform="translate(1.13 22.362)" fill="rgba(0,0,0,0)" stroke="#4a4a4a" stroke-width="0.3"/>
      <path id="Path_3526" data-name="Path 3526" d="M41.852,21a1.46,1.46,0,0,1-.428-.865,1.346,1.346,0,0,1,.465-.823,1.4,1.4,0,0,0,.391-.721,1.432,1.432,0,0,0-.465-1.041c-.06-.07-.158.033-.1.1a1.116,1.116,0,0,1,.363,1.093,3,3,0,0,1-.544.739.93.93,0,0,0-.232.846,1.939,1.939,0,0,0,.437.758c.06.065.158-.033.1-.1Z" transform="translate(-34.73 -17.53)" fill="rgba(0,0,0,0)" stroke="#4a4a4a" stroke-width="0.3"/>
      <path id="Path_3527" data-name="Path 3527" d="M57.678,21a1.488,1.488,0,0,1-.428-.865,1.346,1.346,0,0,1,.465-.823,1.4,1.4,0,0,0,.391-.721,1.4,1.4,0,0,0-.465-1.041c-.056-.07-.153.033-.1.1a1.13,1.13,0,0,1,.386,1.106,3.147,3.147,0,0,1-.549.739.93.93,0,0,0-.228.846,1.883,1.883,0,0,0,.437.758c.06.065.158-.033.1-.1Z" transform="translate(-43.21 -17.53)" fill="rgba(0,0,0,0)" stroke="#4a4a4a" stroke-width="0.3"/>
      <path id="Path_3528" data-name="Path 3528" d="M50.26,22.475a1.516,1.516,0,0,1-.4-.865,1.372,1.372,0,0,1,.465-.823,1.4,1.4,0,0,0,.391-.721,1.437,1.437,0,0,0-.465-1.041c-.06-.065-.158.033-.1.1a1.13,1.13,0,0,1,.386,1.106,3.147,3.147,0,0,1-.549.739.93.93,0,0,0-.228.841,1.957,1.957,0,0,0,.437.762c.06.065.158-.033.1-.1Z" transform="translate(-39.251 -18.319)" fill="rgba(0,0,0,0)" stroke="#4a4a4a" stroke-width="0.3"/>
    </g>
    <rect id="Rectangle_657" data-name="Rectangle 657" width="30" height="30" transform="translate(-17546 19304)" fill="none"/>
  </g>
</svg>
