<svg xmlns="http://www.w3.org/2000/svg" width="30" height="30" viewBox="0 0 30 30">
  <g id="WINTERGARTEN_icon" transform="translate(17626 -19304)">
    <g id="Icon-13" transform="translate(-17625 19312)">
      <path id="Path_3491" data-name="Path 3491" d="M17.059,40.823H11.623l.253.253V35.233l-.253.253h3.624a.253.253,0,1,0,0-.505H11.623a.259.259,0,0,0-.253.253v5.843a.256.256,0,0,0,.253.253h5.436a.253.253,0,1,0,0-.505Z" transform="translate(-11.37 -31.472)" fill="rgba(0,0,0,0)" stroke="#4a4a4a" stroke-width="0.3"/>
      <path id="Path_3492" data-name="Path 3492" d="M22.635,41.076V35.233l-.253.253h3.624a.253.253,0,1,0,0-.505H22.383a.256.256,0,0,0-.253.253v5.843a.253.253,0,0,0,.505,0Z" transform="translate(-18.506 -31.472)" fill="rgba(0,0,0,0)" stroke="#4a4a4a" stroke-width="0.3"/>
      <path id="Path_3493" data-name="Path 3493" d="M33.143,35.485h3.621a.253.253,0,1,0,0-.505H33.143a.253.253,0,1,0,0,.505Z" transform="translate(-25.642 -31.472)" fill="rgba(0,0,0,0)" stroke="#4a4a4a" stroke-width="0.3"/>
      <path id="Path_3494" data-name="Path 3494" d="M11.825,28.561c.111-.1.074-.293.084-.431a2.913,2.913,0,0,1,.141-.717,2.873,2.873,0,0,1,.593-1.031,3.8,3.8,0,0,1,1.849-1.135,3.53,3.53,0,0,1,3.318.869,2.694,2.694,0,0,1,.653,1.078,3.526,3.526,0,0,1,.158.771c.017.172-.04.475.094.6.232.229.589-.128.357-.357h0l.074.179a3.782,3.782,0,0,0-.852-2.5A3.7,3.7,0,0,0,16.486,24.8a4.143,4.143,0,0,0-3.87.9,3.6,3.6,0,0,0-1.209,2.678l.074-.179h0c-.232.229.125.586.357.357Z" transform="translate(-11.394 -24.622)" fill="rgba(0,0,0,0)" stroke="#4a4a4a" stroke-width="0.3"/>
      <path id="Path_3495" data-name="Path 3495" d="M43.893,35.485a.253.253,0,1,0-.253-.253A.253.253,0,0,0,43.893,35.485Z" transform="translate(-32.771 -31.472)" fill="rgba(0,0,0,0)" stroke="#4a4a4a" stroke-width="0.3"/>
      <path id="Path_3496" data-name="Path 3496" d="M22.383,25.071h3.5a6.294,6.294,0,0,1,3.24.485,3.006,3.006,0,0,1,1.442,2.718.253.253,0,0,0,.505,0A3.621,3.621,0,0,0,30,25.58a3.991,3.991,0,0,0-2.149-.96,9.946,9.946,0,0,0-1.381-.051H22.383a.253.253,0,1,0,0,.505Z" transform="translate(-18.506 -24.564)" fill="rgba(0,0,0,0)" stroke="#4a4a4a" stroke-width="0.3"/>
      <path id="Path_3497" data-name="Path 3497" d="M31.38,51.1H27.763l.253.253V45.5l-.253.253H31.38l-.246-.253v5.847a.253.253,0,0,0,.505,0V45.5a.259.259,0,0,0-.253-.253H27.763a.256.256,0,0,0-.253.253v5.847a.256.256,0,0,0,.253.253H31.38a.253.253,0,1,0,0-.505Z" transform="translate(-22.074 -38.283)" fill="rgba(0,0,0,0)" stroke="#4a4a4a" stroke-width="0.3"/>
      <path id="Path_3498" data-name="Path 3498" d="M42.13,51.1H38.5l.253.253V45.5l-.253.253H42.13l-.259-.253v5.847a.253.253,0,0,0,.505,0V45.5a.256.256,0,0,0-.253-.253H38.5a.256.256,0,0,0-.253.253v5.847a.256.256,0,0,0,.253.253H42.13a.253.253,0,1,0,0-.505Z" transform="translate(-29.197 -38.283)" fill="rgba(0,0,0,0)" stroke="#4a4a4a" stroke-width="0.3"/>
      <path id="Path_3499" data-name="Path 3499" d="M52.883,51.1H49.259l.253.253V45.5l-.253.253h3.624l-.253-.253v5.847a.253.253,0,0,0,.505,0V45.5a.256.256,0,0,0-.253-.253H49.259A.259.259,0,0,0,49,45.5v5.847a.256.256,0,0,0,.253.253h3.631a.253.253,0,1,0,0-.505Z" transform="translate(-36.326 -38.283)" fill="rgba(0,0,0,0)" stroke="#4a4a4a" stroke-width="0.3"/>
      <path id="Path_3500" data-name="Path 3500" d="M63.657,51.1H60.033l.253.253V45.5l-.253.253h3.624L63.4,45.5v5.847a.253.253,0,0,0,.505,0V45.5a.259.259,0,0,0-.253-.253H60.033a.256.256,0,0,0-.253.253v5.847a.256.256,0,0,0,.253.253h3.624a.253.253,0,1,0,0-.505Z" transform="translate(-43.475 -38.283)" fill="rgba(0,0,0,0)" stroke="#4a4a4a" stroke-width="0.3"/>
      <path id="Path_3501" data-name="Path 3501" d="M74.4,51.1H70.793l.253.253V45.5l-.253.253H74.4l-.239-.253v5.847a.253.253,0,0,0,.505,0V45.5a.256.256,0,0,0-.253-.253H70.793a.256.256,0,0,0-.253.253v5.847a.256.256,0,0,0,.253.253H74.4a.253.253,0,1,0,0-.505Z" transform="translate(-50.611 -38.283)" fill="rgba(0,0,0,0)" stroke="#4a4a4a" stroke-width="0.3"/>
      <path id="Path_3502" data-name="Path 3502" d="M27.935,38.823c.108-.1.074-.293.084-.431a3.072,3.072,0,0,1,.138-.717,2.974,2.974,0,0,1,.593-1.031A3.8,3.8,0,0,1,30.6,35.509a3.53,3.53,0,0,1,3.318.859,2.826,2.826,0,0,1,.653,1.081,3.735,3.735,0,0,1,.168.771c0,.172-.044.472.091.6.236.226.593-.128.357-.357h0l.074.179a3.8,3.8,0,0,0-.859-2.5A3.735,3.735,0,0,0,32.6,35.057a4.133,4.133,0,0,0-3.883.909A3.59,3.59,0,0,0,27.5,38.641l.074-.179h0c-.236.226.121.583.357.357Z" transform="translate(-22.068 -31.421)" fill="rgba(0,0,0,0)" stroke="#4a4a4a" stroke-width="0.3"/>
      <path id="Path_3503" data-name="Path 3503" d="M53.075,38.43h0l.074.179a3.482,3.482,0,0,0-2.809-3.627,4.776,4.776,0,0,0-1.068-.131.253.253,0,1,0,0,.505A3.289,3.289,0,0,1,52.4,37.241a3.368,3.368,0,0,1,.192.707q.03.209.04.414c0,.138-.027.32.081.424C52.951,39.013,53.311,38.659,53.075,38.43Z" transform="translate(-36.339 -31.386)" fill="rgba(0,0,0,0)" stroke="#4a4a4a" stroke-width="0.3"/>
      <path id="Path_3504" data-name="Path 3504" d="M60.006,35.349a3.289,3.289,0,0,1,3.132,1.886,3.59,3.59,0,0,1,.189.707,3.455,3.455,0,0,1,.044.414c0,.138-.027.32.081.424.232.226.589-.128.357-.357h0l.061.175a3.488,3.488,0,0,0-2.812-3.627,4.715,4.715,0,0,0-1.064-.131.253.253,0,1,0,0,.505Z" transform="translate(-43.449 -31.379)" fill="rgba(0,0,0,0)" stroke="#4a4a4a" stroke-width="0.3"/>
      <path id="Path_3505" data-name="Path 3505" d="M60.033,45.765a.253.253,0,1,0-.253-.253A.253.253,0,0,0,60.033,45.765Z" transform="translate(-43.475 -38.29)" fill="rgba(0,0,0,0)" stroke="#4a4a4a" stroke-width="0.3"/>
      <path id="Path_3506" data-name="Path 3506" d="M38.5,35.338h9.481a17.118,17.118,0,0,1,1.812.024,3.533,3.533,0,0,1,2.021.869,2.789,2.789,0,0,1,.728,1.128,3.368,3.368,0,0,1,.168.8c0,.175-.044.478.094.613.236.226.593-.128.357-.357.125.121.067-.115.061-.2s-.02-.205-.034-.3a3.954,3.954,0,0,0-.175-.741,3.469,3.469,0,0,0-.573-1.01,3.648,3.648,0,0,0-1.728-1.115,7,7,0,0,0-2.166-.212H38.5a.253.253,0,1,0,0,.505Z" transform="translate(-29.197 -31.369)" fill="rgba(0,0,0,0)" stroke="#4a4a4a" stroke-width="0.3"/>
      <path id="Path_3507" data-name="Path 3507" d="M81.5,63.115h4.1a.253.253,0,1,0,0-.505l-3.584.017H81.5a.253.253,0,1,0,0,.505Z" transform="translate(-57.714 -49.796)" fill="rgba(0,0,0,0)" stroke="#4a4a4a" stroke-width="0.3"/>
    </g>
    <rect id="Rectangle_658" data-name="Rectangle 658" width="30" height="30" transform="translate(-17626 19304)" fill="none"/>
  </g>
</svg>
